<svg width="17" height="17" viewBox="0 0 17 17" fill="none" xmlns="http://www.w3.org/2000/svg">
<path id="Vector" fill-rule="evenodd" clip-rule="evenodd" d="M9.03469 0.183478C8.71992 -0.0611595 8.27926 -0.0611595 7.96449 0.183478L6.66161 1.19712C6.48789 1.33179 6.27034 1.39634 6.0512 1.37721L4.41202 1.23616C4.01677 1.2019 3.64862 1.43937 3.51555 1.8131L2.95773 3.39013C2.88521 3.59493 2.73859 3.76545 2.54655 3.86745L1.0803 4.64998C0.733665 4.83565 0.553574 5.23012 0.641233 5.61341L1.01896 7.25499C1.06677 7.46535 1.03569 7.6861 0.930507 7.87417L0.11053 9.34202C-0.0807194 9.68468 -0.0193602 10.1126 0.260344 10.3875L1.45407 11.5605C1.60786 11.7119 1.70029 11.9159 1.71304 12.1319L1.80867 13.8101C1.83178 14.2038 2.11626 14.5337 2.50353 14.6134L4.12119 14.9457C4.33555 14.9895 4.52521 15.1122 4.65351 15.2899L5.62409 16.6375C5.85678 16.961 6.27912 17.0853 6.64966 16.9395L8.18125 16.3386C8.38604 16.2582 8.61395 16.2582 8.81875 16.3386L10.3503 16.9395C10.7209 17.0853 11.1432 16.961 11.3751 16.6375L12.3465 15.2899C12.474 15.1122 12.6644 14.9895 12.878 14.9457L14.4965 14.6134C14.8829 14.5337 15.1682 14.2038 15.1913 13.8101L15.287 12.1319C15.2997 11.9159 15.3913 11.7119 15.5459 11.5605L16.7397 10.3875C17.0194 10.1126 17.0807 9.68468 16.8895 9.34202L16.0695 7.87417C15.9643 7.68611 15.9332 7.46537 15.981 7.25499L16.358 5.61341C16.4464 5.23012 16.2663 4.83566 15.9197 4.64998L14.4534 3.86745C14.2614 3.76545 14.1148 3.59493 14.0423 3.39013L13.4837 1.8131C13.3514 1.43937 12.9832 1.20189 12.588 1.23616L10.948 1.37721C10.7297 1.39634 10.5121 1.33179 10.3384 1.19712L9.03469 0.183478ZM12.5482 6.49955C12.8518 6.14176 12.808 5.60546 12.4502 5.30184C12.0916 4.99823 11.5553 5.04207 11.2517 5.39986L7.53112 9.78506L5.71026 7.90762C5.38354 7.57055 4.84565 7.56258 4.50858 7.88929C4.17151 8.21602 4.16274 8.75471 4.49025 9.09178L7.61471 12.3144L12.5482 6.49955Z" fill="#DC0E0E"/>
</svg>
