<svg width="11" height="10" viewBox="0 0 11 10" fill="none" xmlns="http://www.w3.org/2000/svg">
<path d="M7.75033 1.25H3.58366C2.66318 1.25 1.91699 1.99619 1.91699 2.91667V7.08333C1.91699 8.00381 2.66318 8.75 3.58366 8.75H7.75033C8.6708 8.75 9.41699 8.00381 9.41699 7.08333V2.91667C9.41699 1.99619 8.6708 1.25 7.75033 1.25Z" fill="#330000"/>
<path d="M7.36106 4.05398C7.25717 4.05698 7.15642 4.01813 7.08086 3.94938C7.00844 3.87465 6.97067 3.776 6.97381 3.67438C6.97067 3.57273 7.01159 3.47709 7.08715 3.40834C7.16271 3.33959 7.26346 3.30371 7.36736 3.30371C7.49015 3.30371 7.58459 3.33959 7.65386 3.40834C7.72311 3.48007 7.7609 3.57573 7.75775 3.67438C7.7609 3.776 7.72311 3.87465 7.64754 3.94938C7.57515 4.02111 7.46811 4.05996 7.36106 4.05398Z" fill="#FF9A00"/>
<path d="M7.00781 6.64817V4.34654C7.00781 4.31665 7.02042 4.30469 7.04875 4.30469H7.67212C7.70046 4.30469 7.71304 4.31965 7.71304 4.34654V6.64817C7.71304 6.68106 7.70046 6.696 7.67212 6.696H7.05504C7.02356 6.696 7.00781 6.67806 7.00781 6.64817Z" fill="#FF9A00"/>
<path fill-rule="evenodd" clip-rule="evenodd" d="M5.67641 5.94922H4.50522L4.26595 6.65168C4.25966 6.67857 4.23447 6.69651 4.20614 6.69353H3.61424C3.57962 6.69353 3.57018 6.67559 3.57962 6.63972L4.59337 3.8688C4.59614 3.86009 4.59889 3.85111 4.60172 3.84191C4.6086 3.81949 4.61593 3.79557 4.62487 3.77016C4.63745 3.70739 4.64374 3.64161 4.64374 3.57586C4.6406 3.56091 4.6532 3.54597 4.66893 3.54297H5.48435C5.50953 3.54297 5.52214 3.55195 5.52528 3.56689L6.67441 6.6457C6.68387 6.67857 6.67441 6.69353 6.64293 6.69353H5.98493C5.96289 6.69651 5.94087 6.68157 5.93456 6.66064L5.67641 5.94922ZM4.68783 5.34243H5.48749C5.46862 5.27966 5.44343 5.20493 5.4151 5.12722C5.38674 5.04651 5.35841 4.95982 5.33008 4.87016C5.31435 4.82382 5.29939 4.77824 5.28443 4.73266C5.26947 4.68707 5.25451 4.64149 5.23878 4.59516C5.20731 4.50249 5.17897 4.4158 5.15378 4.32911C5.14264 4.29207 5.1321 4.2562 5.12191 4.22151C5.10908 4.1778 5.09681 4.13595 5.08451 4.09597H5.07822C5.04989 4.22451 5.01524 4.35303 4.97118 4.48157C4.9532 4.5362 4.9352 4.5917 4.91706 4.64774C4.88753 4.73884 4.85753 4.83143 4.82635 4.92395C4.78228 5.07641 4.73506 5.21689 4.68783 5.34243Z" fill="#FF9A00"/>
</svg>
