<svg width="10" height="10" viewBox="0 0 10 10" fill="none" xmlns="http://www.w3.org/2000/svg">
<path d="M7.08333 1.25H2.91667C1.99619 1.25 1.25 1.99619 1.25 2.91667V7.08333C1.25 8.00381 1.99619 8.75 2.91667 8.75H7.08333C8.00381 8.75 8.75 8.00381 8.75 7.08333V2.91667C8.75 1.99619 8.00381 1.25 7.08333 1.25Z" fill="#001E36"/>
<path fill-rule="evenodd" clip-rule="evenodd" d="M2.74414 6.5956V3.35048C2.74414 3.3284 2.75352 3.31579 2.77539 3.31579C2.82852 3.31579 2.87852 3.31579 2.95039 3.31265C2.98902 3.31102 3.02847 3.31023 3.06918 3.30942C3.10752 3.30865 3.14697 3.30785 3.18789 3.30633C3.23154 3.30471 3.27685 3.30392 3.32383 3.3031C3.36768 3.30233 3.41299 3.30154 3.45977 3.30002C3.55664 3.29688 3.65039 3.29688 3.74414 3.29688C4.00039 3.29688 4.21289 3.3284 4.38789 3.39463C4.54414 3.44825 4.68789 3.53654 4.80664 3.65323C4.90664 3.75415 4.98477 3.87715 5.03477 4.01275C5.08164 4.14521 5.10664 4.28081 5.10664 4.42273C5.10664 4.69394 5.04414 4.91785 4.91914 5.09446C4.79414 5.27106 4.61914 5.40352 4.41602 5.47921C4.20352 5.55804 3.96914 5.58644 3.71289 5.58644C3.63789 5.58644 3.58789 5.58644 3.55664 5.58327C3.52539 5.58012 3.48164 5.58013 3.42229 5.58013L3.42227 6.59246C3.42539 6.61452 3.40977 6.63346 3.38789 6.6366H2.78164C2.75664 6.6366 2.74414 6.624 2.74414 6.5956ZM3.42539 3.92446V4.98408L3.43477 4.98477C3.47495 4.98767 3.51247 4.9904 3.54727 4.9904H3.71289C3.83477 4.9904 3.95664 4.97146 4.07227 4.93363C4.17227 4.90525 4.25977 4.84531 4.32852 4.76648C4.39414 4.68765 4.42539 4.58042 4.42539 4.44165C4.42852 4.3439 4.40352 4.24613 4.35352 4.16098C4.30039 4.07898 4.22539 4.0159 4.13477 3.98121C4.01914 3.93392 3.89414 3.91498 3.76602 3.91815C3.68477 3.91815 3.61289 3.91815 3.55352 3.92129C3.49102 3.91815 3.44727 3.92129 3.42539 3.92446Z" fill="#31A8FF"/>
<path d="M6.75645 4.6846C6.8627 4.70669 6.9627 4.74137 7.05645 4.79183C7.06895 4.79814 7.08458 4.79814 7.1127 4.79183C7.12208 4.78552 7.12833 4.77291 7.12833 4.76029V4.24625C7.12833 4.23362 7.1252 4.22102 7.12208 4.20839C7.11583 4.19579 7.10333 4.18316 7.09083 4.18002C7.00645 4.14533 6.91583 4.1201 6.82208 4.10748C6.69395 4.08856 6.5627 4.0791 6.43458 4.0791C6.2127 4.0791 6.02833 4.11379 5.88145 4.18948C5.74708 4.25256 5.63145 4.35348 5.55333 4.47962C5.48458 4.59631 5.44708 4.7256 5.44708 4.86121C5.44395 4.97158 5.46895 5.08198 5.51895 5.18289C5.57833 5.2901 5.65958 5.38156 5.75645 5.45096C5.89395 5.54556 6.04083 5.62125 6.2002 5.67802C6.35333 5.73794 6.45645 5.78523 6.50645 5.82623C6.55645 5.86723 6.58145 5.90823 6.58145 5.95237C6.58145 6.00914 6.54708 6.06277 6.49708 6.08483C6.44083 6.11323 6.35645 6.12898 6.2377 6.12898C6.1127 6.12898 5.9877 6.11323 5.86895 6.08168C5.73145 6.05014 5.60333 5.99968 5.48145 5.92714C5.47208 5.92085 5.4627 5.91769 5.45333 5.924C5.44395 5.93031 5.44083 5.94291 5.44083 5.95237V6.50112C5.4377 6.52635 5.45333 6.54841 5.4752 6.56104C5.5752 6.60835 5.68458 6.64304 5.79395 6.66196C5.93458 6.69033 6.0752 6.70296 6.21895 6.70296C6.44395 6.70296 6.63145 6.66827 6.78458 6.60204C6.9252 6.54527 7.04708 6.4475 7.13458 6.32135C7.21583 6.19837 7.25958 6.05014 7.25645 5.90191C7.25958 5.78839 7.23458 5.67802 7.18458 5.5771C7.1252 5.46987 7.04083 5.38156 6.9377 5.31533C6.7877 5.22073 6.6252 5.14189 6.45645 5.08512C6.38145 5.05358 6.30645 5.01889 6.23458 4.98104C6.19395 4.95898 6.15645 4.93058 6.12833 4.89589C6.10958 4.87066 6.09708 4.84229 6.09708 4.81391C6.09708 4.78552 6.10645 4.75398 6.12208 4.72875C6.14395 4.69723 6.17833 4.67514 6.21895 4.66569C6.27833 4.64991 6.34395 4.64046 6.40645 4.6436C6.5252 4.6436 6.64083 4.65937 6.75645 4.6846Z" fill="#31A8FF"/>
</svg>
