<svg width="11" height="10" viewBox="0 0 11 10" fill="none" xmlns="http://www.w3.org/2000/svg">
<path d="M7.41634 1.25H3.24967C2.3292 1.25 1.58301 1.99619 1.58301 2.91667V7.08333C1.58301 8.00381 2.3292 8.75 3.24967 8.75H7.41634C8.33682 8.75 9.08301 8.00381 9.08301 7.08333V2.91667C9.08301 1.99619 8.33682 1.25 7.41634 1.25Z" fill="#470137"/>
<path fill-rule="evenodd" clip-rule="evenodd" d="M6.95084 6.79197C6.72228 6.79508 6.49371 6.7486 6.28678 6.65256C6.09219 6.56272 5.93159 6.41401 5.82038 6.23122C5.70611 6.04224 5.65051 5.80678 5.65051 5.52487C5.64742 5.29562 5.70611 5.06945 5.82038 4.87118C5.93776 4.66981 6.10763 4.50251 6.31149 4.39097C6.52769 4.27016 6.78715 4.21129 7.09292 4.21129C7.10836 4.21129 7.12999 4.21129 7.15778 4.21439C7.17271 4.21606 7.18855 4.21683 7.20574 4.21766C7.22055 4.21839 7.23638 4.21916 7.25353 4.22058V3.2416C7.25353 3.21991 7.2628 3.20751 7.28442 3.20751H7.91142C7.92686 3.20441 7.93921 3.21681 7.9423 3.2292V6.18476C7.9423 6.23539 7.94484 6.29114 7.94763 6.35201L7.94848 6.37064C7.95371 6.42566 7.95671 6.47847 7.9594 6.52533L7.96084 6.55033C7.96084 6.57201 7.95157 6.5906 7.92994 6.59989C7.76934 6.66806 7.59946 6.71762 7.42648 6.7486C7.26896 6.77649 7.11144 6.79197 6.95084 6.79197ZM7.25353 6.17237V4.80922C7.22574 4.80301 7.19792 4.79683 7.17013 4.79372C7.13617 4.79062 7.10219 4.78753 7.06821 4.78753C6.94776 4.78753 6.8273 4.81231 6.71919 4.86808C6.61417 4.92074 6.52461 4.9982 6.45665 5.09733C6.38871 5.19647 6.35474 5.32968 6.35474 5.49079C6.35163 5.59922 6.37017 5.70766 6.40724 5.80989C6.43813 5.89354 6.48444 5.96789 6.54624 6.02985C6.6049 6.08562 6.67594 6.12899 6.75626 6.15376C6.83965 6.18166 6.92613 6.19406 7.01261 6.19406C7.05894 6.19406 7.10219 6.19095 7.14234 6.18785C7.18249 6.19095 7.21646 6.18476 7.25353 6.17237Z" fill="#FF61F6"/>
<path d="M4.59751 5.05754L5.52412 3.524C5.53031 3.51781 5.53647 3.50541 5.53339 3.50231C5.53031 3.48683 5.51485 3.47754 5.49941 3.48062H4.8477C4.83226 3.47754 4.81991 3.48062 4.80756 3.48683C4.79829 3.49302 4.79212 3.50541 4.78901 3.51781C4.76129 3.56964 4.73356 3.62252 4.70562 3.67579C4.6651 3.75304 4.62412 3.83114 4.58208 3.90816C4.51104 4.03829 4.43999 4.16839 4.37206 4.29852C4.3041 4.42864 4.23616 4.56185 4.17129 4.69816H4.16512C4.10024 4.56496 4.03231 4.43483 3.95816 4.30471C3.89497 4.19823 3.83591 4.09173 3.77591 3.98354C3.7626 3.95954 3.74924 3.93546 3.73579 3.91127C3.66474 3.77804 3.59681 3.64483 3.53812 3.51162C3.52885 3.49923 3.51958 3.48993 3.50722 3.48373C3.49487 3.48062 3.47943 3.47754 3.46399 3.47754H2.76285C2.75049 3.47754 2.73814 3.48062 2.73197 3.48993C2.72579 3.49612 2.72889 3.50852 2.73814 3.52091L3.67401 5.11021L2.71343 6.69023C2.70726 6.69952 2.70418 6.71191 2.70726 6.72431C2.70726 6.73602 2.71256 6.73533 2.72049 6.73429C2.72304 6.73396 2.72587 6.7336 2.72889 6.7336H3.40839C3.44237 6.7336 3.46708 6.7305 3.47943 6.69952C3.52679 6.61483 3.57414 6.52741 3.62149 6.43998C3.64518 6.39625 3.66887 6.35254 3.69254 6.30916C3.76049 6.17904 3.83154 6.04583 3.90258 5.9126C3.97362 5.77939 4.04466 5.64616 4.10951 5.51296H4.1157C4.18983 5.64927 4.26395 5.7825 4.33808 5.91571C4.4122 6.04891 4.48324 6.17904 4.5481 6.30606C4.58054 6.37112 4.61374 6.43541 4.64695 6.49969C4.68014 6.56398 4.71335 6.62827 4.74579 6.69331C4.76741 6.72431 4.80137 6.72739 4.85079 6.72739H5.5581C5.56526 6.72621 5.57149 6.72685 5.57662 6.72739C5.58479 6.72825 5.59018 6.72881 5.59208 6.72121C5.59516 6.70881 5.59208 6.69641 5.58589 6.68402L4.59751 5.05754Z" fill="#FF61F6"/>
</svg>
