<svg width="11" height="10" viewBox="0 0 11 10" fill="none" xmlns="http://www.w3.org/2000/svg">
<path d="M3.84858 4.31862C3.84858 4.42118 3.85966 4.50433 3.87906 4.56531C3.90125 4.62627 3.92895 4.69279 3.96777 4.76485C3.98162 4.78702 3.98716 4.80921 3.98716 4.8286C3.98716 4.85631 3.97054 4.88404 3.9345 4.91175L3.75989 5.02816C3.73495 5.04479 3.71 5.0531 3.68783 5.0531C3.66012 5.0531 3.63239 5.03925 3.60468 5.01429C3.56587 4.97273 3.53262 4.92837 3.50491 4.88404C3.47718 4.83691 3.44947 4.78425 3.41897 4.72052C3.20281 4.9755 2.93118 5.103 2.60414 5.103C2.37133 5.103 2.18563 5.03648 2.04982 4.90344C1.91402 4.77039 1.84473 4.59302 1.84473 4.37129C1.84473 4.13571 1.92787 3.94448 2.09694 3.80035C2.26601 3.65623 2.4905 3.58416 2.77597 3.58416C2.8702 3.58416 2.96722 3.59248 3.06977 3.60633C3.17231 3.62018 3.27764 3.64237 3.3885 3.66731V3.46498C3.3885 3.25435 3.34414 3.10746 3.25822 3.02154C3.16954 2.93562 3.01987 2.89404 2.80647 2.89404C2.70946 2.89404 2.60968 2.90512 2.50713 2.93006C2.40458 2.95502 2.30481 2.9855 2.2078 3.02431C2.16346 3.04371 2.1302 3.05479 2.1108 3.06033C2.0914 3.06587 2.07754 3.06864 2.06645 3.06864C2.02765 3.06864 2.00825 3.04093 2.00825 2.98273V2.84691C2.00825 2.80258 2.01379 2.76931 2.02765 2.74991C2.04151 2.73052 2.06645 2.71112 2.10526 2.69171C2.20226 2.64183 2.31867 2.60025 2.45447 2.567C2.59028 2.53096 2.7344 2.51433 2.88685 2.51433C3.21666 2.51433 3.45779 2.58916 3.613 2.73883C3.76543 2.8885 3.84304 3.11577 3.84304 3.42064V4.31862H3.84858ZM2.72332 4.73991C2.81479 4.73991 2.90902 4.72329 3.00879 4.69002C3.10856 4.65677 3.19727 4.59579 3.2721 4.51264C3.31643 4.45998 3.3497 4.40177 3.36633 4.33527C3.38295 4.26875 3.39404 4.18837 3.39404 4.09412V3.97773C3.31366 3.95833 3.22775 3.94171 3.13906 3.9306C3.05037 3.91952 2.96445 3.91398 2.87852 3.91398C2.69283 3.91398 2.55702 3.95002 2.46556 4.02485C2.3741 4.09968 2.32975 4.205 2.32975 4.34358C2.32975 4.47383 2.36301 4.57085 2.4323 4.63735C2.49882 4.70664 2.59582 4.73991 2.72332 4.73991ZM4.94889 5.03925C4.89902 5.03925 4.86575 5.03093 4.84358 5.01152C4.82141 4.99489 4.802 4.9561 4.78537 4.90344L4.13406 2.761C4.11741 2.70558 4.1091 2.66954 4.1091 2.65014C4.1091 2.60579 4.13129 2.58085 4.17562 2.58085H4.44725C4.49989 2.58085 4.53593 2.58916 4.55533 2.60856C4.5775 2.62521 4.59414 2.664 4.61077 2.71666L5.07639 4.55144L5.50875 2.71666C5.52262 2.66123 5.53925 2.62521 5.56141 2.60856C5.58358 2.59193 5.62239 2.58085 5.67229 2.58085H5.894C5.94666 2.58085 5.9827 2.58916 6.00487 2.60856C6.02704 2.62521 6.04643 2.664 6.05752 2.71666L6.49543 4.57362L6.97491 2.71666C6.99156 2.66123 7.01095 2.62521 7.03035 2.60856C7.05252 2.59193 7.08856 2.58085 7.13843 2.58085H7.3962C7.44054 2.58085 7.46549 2.60302 7.46549 2.65014C7.46549 2.664 7.46272 2.67785 7.45995 2.69448C7.45718 2.71112 7.45164 2.73329 7.44054 2.76377L6.7726 4.90621C6.75597 4.96164 6.73656 4.99766 6.71439 5.01429C6.69222 5.03093 6.65618 5.04202 6.60908 5.04202H6.37072C6.31806 5.04202 6.28202 5.03371 6.25985 5.01429C6.23768 4.99489 6.21829 4.95887 6.20718 4.90344L5.7776 3.11577L5.35077 4.90066C5.33691 4.9561 5.32029 4.99212 5.29812 5.01152C5.27593 5.03093 5.23714 5.03925 5.18725 5.03925H4.94889ZM8.51037 5.11408C8.36624 5.11408 8.22212 5.09743 8.08356 5.06418C7.94497 5.03093 7.83687 4.99489 7.76483 4.95333C7.72047 4.92837 7.68999 4.90066 7.67889 4.87573C7.66781 4.85077 7.66227 4.82306 7.66227 4.79812V4.65677C7.66227 4.59856 7.68445 4.57085 7.72602 4.57085C7.74264 4.57085 7.75927 4.57362 7.77591 4.57916C7.79254 4.58471 7.81747 4.59579 7.8452 4.60687C7.93943 4.64846 8.04197 4.68171 8.15008 4.70387C8.26093 4.72606 8.36902 4.73714 8.47989 4.73714C8.6545 4.73714 8.79031 4.70664 8.88454 4.64568C8.97877 4.58471 9.02866 4.49602 9.02866 4.38237C9.02866 4.30477 9.00372 4.24102 8.95383 4.18837C8.90393 4.13571 8.8097 4.08858 8.67389 4.04425L8.27202 3.91952C8.06968 3.85577 7.92004 3.76154 7.82856 3.63683C7.7371 3.51487 7.69 3.37906 7.69 3.23493C7.69 3.11854 7.71493 3.016 7.76483 2.92729C7.8147 2.8386 7.88122 2.761 7.96437 2.70002C8.04752 2.63629 8.14175 2.58916 8.25262 2.55591C8.36347 2.52264 8.47989 2.50879 8.60183 2.50879C8.66281 2.50879 8.72656 2.51156 8.78754 2.51987C8.85129 2.52818 8.90947 2.53927 8.96768 2.55037C9.02312 2.56423 9.07579 2.57808 9.12566 2.59471C9.17556 2.61133 9.21435 2.62798 9.24208 2.6446C9.28087 2.66677 9.3086 2.68893 9.32522 2.71389C9.34185 2.73606 9.35016 2.76654 9.35016 2.80535V2.93562C9.35016 2.99381 9.328 3.02431 9.28641 3.02431C9.26425 3.02431 9.2282 3.01323 9.1811 2.99104C9.02312 2.91898 8.84575 2.88296 8.64895 2.88296C8.49097 2.88296 8.36625 2.90789 8.28033 2.96056C8.19441 3.01323 8.15008 3.0936 8.15008 3.20723C8.15008 3.28483 8.17779 3.35135 8.23322 3.40402C8.28864 3.45666 8.3912 3.50933 8.5381 3.55646L8.93166 3.68116C9.1312 3.74491 9.27533 3.8336 9.36125 3.94725C9.44716 4.06087 9.48875 4.19114 9.48875 4.33527C9.48875 4.45443 9.46379 4.56254 9.41668 4.65677C9.36679 4.751 9.30027 4.83414 9.21435 4.90066C9.12843 4.96996 9.02589 5.01983 8.9067 5.05587C8.782 5.09466 8.65172 5.11408 8.51037 5.11408Z" fill="#252F3E"/>
<path d="M9.03404 6.46078C8.12219 7.13428 6.79737 7.4918 5.65825 7.4918C4.06183 7.4918 2.62338 6.90146 1.53692 5.92032C1.451 5.84271 1.5286 5.7374 1.63115 5.79838C2.80629 6.48017 4.25583 6.89315 5.75527 6.89315C6.7669 6.89315 7.87829 6.68251 8.901 6.25013C9.05344 6.18086 9.18371 6.34992 9.03404 6.46078ZM9.41375 6.02842C9.29733 5.87876 8.64325 5.95636 8.34669 5.99238C8.258 6.00346 8.24415 5.92586 8.32452 5.86765C8.84556 5.50182 9.702 5.60713 9.80177 5.72909C9.90154 5.8538 9.77404 6.71021 9.28625 7.12042C9.21142 7.18415 9.13935 7.1509 9.17263 7.06776C9.28348 6.79336 9.53015 6.1753 9.41375 6.02842Z" fill="#FF9900"/>
</svg>
