<svg width="10" height="10" viewBox="0 0 10 10" fill="none" xmlns="http://www.w3.org/2000/svg">
<path d="M6.91833 6.22439C6.84966 6.22439 6.78252 6.20402 6.72543 6.16587C6.66833 6.1277 6.62383 6.0735 6.59754 6.01004C6.57127 5.9466 6.56439 5.87679 6.57779 5.80943C6.59118 5.74206 6.62425 5.6802 6.67281 5.63164C6.72137 5.58308 6.78324 5.55002 6.8506 5.53662C6.91795 5.52323 6.98777 5.5301 7.0512 5.55637C7.11466 5.58264 7.16889 5.62716 7.20704 5.68427C7.24518 5.74135 7.26556 5.8085 7.26556 5.87716C7.26556 5.96925 7.22897 6.05758 7.16385 6.12268C7.09874 6.18781 7.01041 6.22439 6.91833 6.22439ZM3.08297 6.22439C3.01431 6.22439 2.94716 6.20402 2.89006 6.16587C2.83297 6.1277 2.78845 6.0735 2.76218 6.01004C2.73589 5.9466 2.72902 5.87679 2.74241 5.80943C2.75583 5.74206 2.78889 5.6802 2.83745 5.63164C2.88602 5.58308 2.94787 5.55002 3.01522 5.53662C3.08258 5.52323 3.15241 5.5301 3.21585 5.55637C3.27929 5.58264 3.33352 5.62716 3.37168 5.68427C3.40983 5.74135 3.4302 5.8085 3.4302 5.87716C3.4302 5.96925 3.39362 6.05758 3.32849 6.12268C3.26337 6.18781 3.17506 6.22439 3.08297 6.22439ZM7.04274 4.1341L7.73633 2.93329C7.74737 2.91685 7.75491 2.89831 7.7585 2.87883C7.76206 2.85935 7.7616 2.83935 7.75714 2.82006C7.75268 2.80077 7.74429 2.7826 7.73252 2.76666C7.72074 2.75075 7.70583 2.73741 7.68868 2.72748C7.67156 2.71756 7.65256 2.71127 7.63289 2.70898C7.6132 2.70668 7.59329 2.70848 7.57433 2.7142C7.55537 2.71993 7.53779 2.7295 7.52268 2.74229C7.50756 2.7551 7.49524 2.77087 7.48647 2.78862L6.78422 4.00491C6.22327 3.75333 5.61543 3.62327 5.00066 3.62327C4.38587 3.62327 3.77804 3.75333 3.21708 4.00491L2.51483 2.78862C2.50606 2.77087 2.49374 2.7551 2.47862 2.74229C2.46352 2.7295 2.44593 2.71993 2.42697 2.7142C2.40802 2.70848 2.3881 2.70668 2.36841 2.70898C2.34874 2.71127 2.32974 2.71756 2.31262 2.72748C2.29547 2.73741 2.28056 2.75075 2.26879 2.76666C2.25702 2.7826 2.24862 2.80077 2.24416 2.82006C2.2397 2.83935 2.23924 2.85935 2.24283 2.87883C2.24639 2.89831 2.25393 2.91685 2.26497 2.93329L2.95856 4.1341C1.76758 4.78183 0.953199 5.98741 0.833984 7.41175H9.16733C9.0481 5.98741 8.23358 4.78183 7.04274 4.1341Z" fill="#78C257"/>
</svg>
