<svg width="11" height="10" viewBox="0 0 11 10" fill="none" xmlns="http://www.w3.org/2000/svg">
<path d="M5.33024 8.74972L3.1603 8.14732L2.67676 2.72363H7.99024L7.50615 8.14647L5.33024 8.74972Z" fill="#264DE4"/>
<path d="M7.09126 7.80105L7.50492 3.16699H5.33301V8.28851L7.09126 7.80105Z" fill="#2965F1"/>
<path d="M3.78516 5.17871L3.84476 5.8439H5.33334V5.17871H3.78516Z" fill="#EBEBEB"/>
<path d="M3.66504 3.83301L3.7255 4.4982H5.33302V3.83301H3.66504Z" fill="#EBEBEB"/>
<path d="M5.33385 6.90655L5.33094 6.90732L4.5901 6.70728L4.54275 6.17676H3.875L3.96819 7.22122L5.33079 7.59947L5.33385 7.59863V6.90655Z" fill="#EBEBEB"/>
<path d="M3.92676 1.25H4.73242V1.58691H4.26367V1.92383H4.73242V2.26075H3.92676V1.25Z" fill="black"/>
<path d="M4.89355 1.25H5.69922V1.54297H5.23047V1.60156H5.69922V2.2754H4.89355V1.96777H5.3623V1.90918H4.89355V1.25Z" fill="black"/>
<path d="M5.86035 1.25H6.66602V1.54297H6.19727V1.60156H6.66602V2.2754H5.86035V1.96777H6.3291V1.90918H5.86035V1.25Z" fill="black"/>
<path d="M6.87728 5.17936L6.99737 3.83301H5.33105V4.4982H6.26837L6.20785 5.17936H5.33105V5.84455H6.15016L6.07295 6.70726L5.33105 6.90751V7.59955L6.69472 7.22161L6.70474 7.10922L6.86105 5.35799L6.87728 5.17936Z" fill="white"/>
</svg>
