<svg width="10" height="10" viewBox="0 0 10 10" fill="none" xmlns="http://www.w3.org/2000/svg">
<path d="M5.10449 8.54199C7.00297 8.54199 8.54199 7.00297 8.54199 5.10449C8.54199 3.20601 7.00297 1.66699 5.10449 1.66699C3.20601 1.66699 1.66699 3.20601 1.66699 5.10449C1.66699 7.00297 3.20601 8.54199 5.10449 8.54199Z" fill="#0678BE"/>
<path d="M5.10449 1.66699C3.21099 1.66699 1.66699 3.21099 1.66699 5.10449C1.66699 6.99799 3.21099 8.54199 5.10449 8.54199C6.99799 8.54199 8.54199 6.99799 8.54199 5.10449C8.54199 3.23524 6.97374 1.66699 5.10449 1.66699ZM5.10449 7.29199C4.06783 7.29199 3.22949 6.45366 3.22949 5.41699C3.22949 4.53851 3.81128 3.98603 4.32978 3.46753C4.67353 3.12378 5.00645 2.6628 5.10449 2.29199C5.20285 2.66312 5.53003 3.12378 5.8792 3.46753C6.3977 3.98603 6.97949 4.53851 6.97949 5.41699C6.97949 6.45366 6.14116 7.29199 5.10449 7.29199Z" fill="white"/>
</svg>
