<svg width="11" height="10" viewBox="0 0 11 10" fill="none" xmlns="http://www.w3.org/2000/svg">
<mask id="mask0_1158_119" style="mask-type:luminance" maskUnits="userSpaceOnUse" x="3" y="1" width="6" height="8">
<path d="M8.16602 1.25H3.16602V8.75H8.16602V1.25Z" fill="white"/>
</mask>
<g mask="url(#mask0_1158_119)">
<path d="M5.66602 5C5.66602 4.66848 5.7977 4.35054 6.03214 4.11613C6.26656 3.88169 6.58449 3.75 6.91602 3.75C7.24754 3.75 7.56547 3.88169 7.79989 4.11613C8.03433 4.35054 8.16602 4.66848 8.16602 5C8.16602 5.33152 8.03433 5.64946 7.79989 5.88387C7.56547 6.11831 7.24754 6.25 6.91602 6.25C6.58449 6.25 6.26656 6.11831 6.03214 5.88387C5.7977 5.64946 5.66602 5.33152 5.66602 5Z" fill="#1ABCFE"/>
<path d="M3.16602 7.5C3.16602 7.16848 3.2977 6.85054 3.53214 6.61613C3.76656 6.38169 4.08449 6.25 4.41602 6.25H5.66602V7.5C5.66602 7.83152 5.53433 8.14946 5.29989 8.38387C5.06547 8.61831 4.74754 8.75 4.41602 8.75C4.08449 8.75 3.76656 8.61831 3.53214 8.38387C3.2977 8.14946 3.16602 7.83152 3.16602 7.5Z" fill="#0ACF83"/>
<path d="M5.66602 1.25V3.75H6.91602C7.24754 3.75 7.56547 3.61831 7.79989 3.38387C8.03433 3.14946 8.16602 2.83152 8.16602 2.5C8.16602 2.16848 8.03433 1.85054 7.79989 1.61612C7.56547 1.3817 7.24754 1.25 6.91602 1.25H5.66602Z" fill="#FF7262"/>
<path d="M3.16602 2.5C3.16602 2.83152 3.2977 3.14946 3.53214 3.38387C3.76656 3.61831 4.08449 3.75 4.41602 3.75H5.66602V1.25H4.41602C4.08449 1.25 3.76656 1.3817 3.53214 1.61612C3.2977 1.85054 3.16602 2.16848 3.16602 2.5Z" fill="#F24E1E"/>
<path d="M3.16602 5C3.16602 5.33152 3.2977 5.64946 3.53214 5.88387C3.76656 6.11831 4.08449 6.25 4.41602 6.25H5.66602V3.75H4.41602C4.08449 3.75 3.76656 3.88169 3.53214 4.11613C3.2977 4.35054 3.16602 4.66848 3.16602 5Z" fill="#A259FF"/>
</g>
</svg>
