<svg width="11" height="10" viewBox="0 0 11 10" fill="none" xmlns="http://www.w3.org/2000/svg">
<path d="M8.90974 2.4707L8.37187 8.49608L5.95418 9.16635L3.54316 8.49704L3.00586 2.4707H8.90974Z" fill="#E44D26"/>
<path d="M5.95801 8.65445L7.91161 8.11283L8.37126 2.96387H5.95801V8.65445Z" fill="#F16529"/>
<path d="M5.9578 4.44125H4.91224L4.97978 5.19811H5.9578V5.93721H4.30385L4.10449 3.70215H5.9578V4.44125Z" fill="#EBEBEB"/>
<path d="M4.33789 6.30762H5.07983L5.13245 6.8971L5.9556 7.11935L5.95883 7.11849V7.88747L5.95543 7.88841L4.44143 7.46812L4.33789 6.30762Z" fill="#EBEBEB"/>
<path d="M3.93125 0.833984H3.55566V1.95775H3.93127V1.58144H4.27485V1.95775H4.65046V0.833984H4.27483V1.20508H3.93125V0.833984Z" fill="black"/>
<path d="M4.81348 1.20664H5.14414L5.14416 1.95775H5.51979V1.20664H5.8506V0.833984H4.81348V1.20664Z" fill="black"/>
<path d="M6.01562 0.833984H6.40727L6.64819 1.22884L6.88885 0.833984H7.28065V1.95775H6.9066V1.40075L6.64819 1.80031H6.64173L6.38312 1.40075V1.95775H6.01562V0.833984Z" fill="black"/>
<path d="M7.8435 0.833984H7.46777V1.95775H8.37169V1.58629H7.8435V0.833984Z" fill="black"/>
<path d="M5.95605 4.44125V3.70215H7.80751L7.74135 4.44125H5.95605Z" fill="white"/>
<path d="M6.86618 5.9383H5.95605V5.19922H7.6741L7.65605 5.39768L7.47126 7.46836L5.95605 7.8883V7.11936L6.78039 6.89686L6.86618 5.9383Z" fill="white"/>
</svg>
