<svg width="11" height="10" viewBox="0 0 11 10" fill="none" xmlns="http://www.w3.org/2000/svg">
<path d="M9.04199 5C9.04199 7.07 7.36387 8.75 5.29199 8.75C3.22012 8.75 1.54199 7.07 1.54199 5C1.54199 2.92812 3.22012 1.25 5.29199 1.25C7.36387 1.25 9.04199 2.92812 9.04199 5Z" fill="#283544"/>
<path d="M2.9039 6.29667H3.31346V4.39622H2.9039V6.29667ZM3.10786 4.14701C3.23453 4.14701 3.33651 4.03942 3.33651 3.90497C3.33651 3.7669 3.23453 3.66113 3.10786 3.66113C2.98286 3.66113 2.88086 3.7669 2.88086 3.90497C2.88086 4.03942 2.98286 4.14701 3.10786 4.14701Z" fill="white"/>
<path d="M4.74491 3.66602C4.05241 3.66602 3.61816 4.18058 3.61816 5.00352C3.61816 5.82645 4.05241 6.3392 4.74491 6.3392C5.43577 6.3392 5.87002 5.82645 5.87002 5.00352C5.87002 4.18058 5.43577 3.66602 4.74491 3.66602ZM4.74491 4.06045C5.16764 4.06045 5.43741 4.4262 5.43741 5.00352C5.43741 5.57904 5.16764 5.94477 4.74491 5.94477C4.32054 5.94477 4.05241 5.57904 4.05241 5.00352C4.05241 4.4262 4.32054 4.06045 4.74491 4.06045Z" fill="white"/>
<path d="M6.11035 5.56827C6.12846 6.04518 6.48704 6.3392 7.03314 6.3392C7.60721 6.3392 7.96908 6.03083 7.96908 5.53958C7.96908 5.15412 7.76512 4.93718 7.28316 4.81706L7.01012 4.74891C6.71898 4.67362 6.59889 4.57322 6.59889 4.4011C6.59889 4.18595 6.77983 4.04252 7.04796 4.04252C7.31935 4.04252 7.50523 4.18775 7.52496 4.42979H7.9296C7.91973 3.97439 7.57431 3.66602 7.05123 3.66602C6.53475 3.66602 6.16793 3.97618 6.16793 4.43516C6.16793 4.80449 6.37518 5.03399 6.81273 5.14335L7.12033 5.22224C7.41968 5.29933 7.54141 5.40691 7.54141 5.59337C7.54141 5.80852 7.34237 5.9627 7.05616 5.9627C6.76666 5.9627 6.54789 5.80672 6.52158 5.56827H6.11035Z" fill="white"/>
</svg>
