<svg width="11" height="10" viewBox="0 0 11 10" fill="none" xmlns="http://www.w3.org/2000/svg">
<path d="M9.37402 1.25H1.87402V8.75H9.37402V1.25Z" fill="#FFCA28"/>
<path d="M6.42871 7.48735L6.98092 7.12197C7.02419 7.25793 7.29823 7.58083 7.64438 7.58083C7.99052 7.58083 8.15125 7.39176 8.15125 7.26643C8.15125 6.92485 7.79779 6.80443 7.62802 6.74658C7.60034 6.73716 7.57754 6.72939 7.56196 6.7226C7.55398 6.71912 7.54188 6.71449 7.52636 6.70858C7.33754 6.63643 6.64094 6.37028 6.64094 5.59883C6.64094 4.7491 7.461 4.65137 7.64644 4.65137C7.76775 4.65137 8.35111 4.66624 8.64163 5.2122L8.10592 5.58608C7.98848 5.34816 7.79334 5.26955 7.67323 5.26955C7.37652 5.26955 7.31471 5.48708 7.31471 5.58608C7.31471 5.86391 7.63706 5.98843 7.90925 6.09358C7.98046 6.12108 8.04825 6.14726 8.10592 6.17451C8.40263 6.31472 8.83944 6.54414 8.83944 7.26643C8.83944 7.62818 8.536 8.21387 7.77213 8.21387C6.74602 8.21387 6.47404 7.59783 6.42871 7.48735Z" fill="#3E3E3E"/>
<path d="M3.75 7.56061L4.32554 7.1954C4.37065 7.3313 4.54588 7.58184 4.80015 7.58184C5.05442 7.58184 5.18454 7.32069 5.18454 7.1954V4.73242H5.89238V7.1954C5.90383 7.53513 5.71542 8.21457 4.8839 8.21457C4.11937 8.21457 3.80154 7.76019 3.75 7.56061Z" fill="#3E3E3E"/>
</svg>
