<svg width="11" height="10" viewBox="0 0 11 10" fill="none" xmlns="http://www.w3.org/2000/svg">
<path d="M9.68187 2.26718C9.68187 1.72374 9.24133 1.2832 8.69789 1.2832C8.20171 1.2832 7.79152 1.65054 7.72393 2.12809C7.71762 2.12474 7.71396 2.12284 7.71396 2.12284C6.90927 1.7599 6.23143 2.40274 6.23143 2.40274L4.43848 4.20449L5.14691 4.88672L6.59004 3.46893C7.26393 2.79501 7.63087 3.25116 7.63087 3.25116C8.13816 3.6797 7.64835 4.18701 7.64835 4.18701L8.37431 4.88672C8.96712 4.24647 9.0015 3.68768 8.82131 3.24316C9.30643 3.18241 9.68187 2.76878 9.68187 2.26718Z" fill="#F9AE41"/>
<path d="M8.82993 6.79231C8.83327 6.78602 8.83516 6.78238 8.83516 6.78238C9.19814 5.97765 8.55527 5.29984 8.55527 5.29984L6.7535 3.50684L6.07129 4.21529L7.48908 5.65844C8.163 6.33234 7.70687 6.69927 7.70687 6.69927C7.27831 7.20659 6.77102 6.71677 6.77102 6.71677L6.07129 7.44269C6.71152 8.0355 7.27035 8.06988 7.71483 7.88969C7.77558 8.37486 8.18925 8.75029 8.69085 8.75029C9.23427 8.75029 9.67479 8.30975 9.67479 7.76631C9.67479 7.27013 9.30748 6.85992 8.82993 6.79231Z" fill="#EE4035"/>
<path d="M6.76838 5.11426L5.32525 6.53203C4.65134 7.20597 4.2844 6.74986 4.2844 6.74986C3.77711 6.32128 4.26692 5.81401 4.26692 5.81401L3.54098 5.11428C2.94819 5.75451 2.9138 6.3133 3.09396 6.75784C2.6088 6.81857 2.2334 7.23217 2.2334 7.7338C2.2334 8.27724 2.67394 8.71776 3.21738 8.71776C3.71356 8.71778 4.12375 8.35047 4.19134 7.87292C4.19765 7.87628 4.20131 7.87813 4.20131 7.87813C5.00602 8.24113 5.68384 7.59824 5.68384 7.59824L7.47684 5.79647L6.76838 5.11426Z" fill="#4F91CD"/>
<path d="M4.42597 4.34185C3.75206 3.66794 4.20812 3.301 4.20812 3.301C4.63674 2.79371 5.14402 3.28352 5.14402 3.28352L5.84372 2.55762C5.20349 1.96482 4.6447 1.93043 4.2002 2.1106C4.13943 1.6254 3.72585 1.25 3.22418 1.25C2.68077 1.25 2.24026 1.69054 2.24023 2.23398C2.24023 2.73019 2.60755 3.1404 3.0851 3.20798C3.08174 3.21429 3.07989 3.21796 3.07989 3.21796C2.71685 4.02262 3.35974 4.70042 3.35974 4.70042L5.16156 6.49344L5.84377 5.78498L4.42597 4.34185Z" fill="#7AC043"/>
</svg>
