<svg width="41" height="10" viewBox="0 0 41 10" fill="none" xmlns="http://www.w3.org/2000/svg">
<path fill-rule="evenodd" clip-rule="evenodd" d="M18.55 5.39746C18.8972 4.5182 19.2767 3.55801 19.1554 2.67586C19.0793 2.12388 18.7193 1.52403 18.3244 1.27268C18.317 1.26816 18.2982 1.25398 18.2781 1.23877C18.2541 1.22067 18.2282 1.20109 18.2172 1.19461C17.9249 1.0253 17.4568 0.882622 17.131 0.849026C15.4508 0.676721 14.4485 1.42324 13.8723 2.42897C13.6456 2.82399 13.4956 3.25551 13.3785 3.71277C13.2492 4.21929 13.1563 4.83351 13.2304 5.39149C13.2749 5.72572 13.4586 6.20073 13.7242 6.47773C14.3097 7.08797 15.3987 7.08047 16.6039 7.07216C16.7452 7.0712 16.8882 7.07022 17.0322 7.07022C17.4525 7.07022 18.4602 7.06185 18.7643 7.0539C18.8626 7.05097 19.1445 5.90353 19.1193 5.86644C19.1084 5.85338 19.0321 5.85464 18.9161 5.85655C18.7784 5.85881 18.5843 5.86199 18.3762 5.84323C18.4314 5.69757 18.4902 5.54871 18.55 5.39746ZM17.5115 4.2174C17.4825 4.31342 17.4536 4.40886 17.4272 4.50272C17.4175 4.53718 17.4078 4.57168 17.3981 4.60618C17.2835 5.01305 17.1688 5.42057 17.0322 5.78649C16.872 5.78555 16.7135 5.78825 16.5593 5.7909C15.7529 5.80473 15.0599 5.8166 14.8104 5.29272C14.6425 4.93968 14.7181 4.46171 14.8104 4.00899C14.9343 3.39923 15.0528 2.95634 15.4029 2.5771C15.6735 2.28434 16.3544 1.92538 17.0816 2.18216C17.3231 2.26755 17.6973 2.67392 17.7235 3.12022C17.7427 3.4529 17.6258 3.83959 17.5115 4.2174Z" fill="#1A1918"/>
<path d="M36.7907 1.43262L38.3129 1.44098C38.3129 1.44098 35.4827 5.27589 35.2516 5.58843C35.2297 5.61806 35.2044 5.64838 35.1781 5.67982C35.1147 5.75578 35.0457 5.83841 35.0047 5.9341C34.8586 6.27425 34.7086 7.02034 34.7086 7.02034L33.3157 7.02725C33.3157 7.02725 33.5325 6.24956 33.5234 5.83532C33.5181 5.58762 33.4299 5.34015 33.3416 5.09227C33.3008 4.97799 33.2599 4.8636 33.2273 4.74908C33.1225 4.38175 32.9805 3.66282 32.9805 3.66282H34.4123L34.6097 4.45284L36.7907 1.43262Z" fill="#1A1918"/>
<path d="M33.9083 2.24187C34.1892 2.41124 34.3616 3.34541 34.3616 3.34541C34.3616 3.34541 32.8916 3.36708 32.0918 3.36708H31.4005L30.561 7.02084H29.2773C29.2773 7.02084 30.0762 3.05013 30.2649 2.33024C30.3177 2.12876 30.5923 2.13136 31.056 2.13576C31.1285 2.13645 31.2057 2.13717 31.2873 2.13717H32.2516C32.3968 2.13717 32.5477 2.13285 32.6975 2.12856C33.1907 2.11445 33.6735 2.10063 33.9083 2.24187Z" fill="#1A1918"/>
<path fill-rule="evenodd" clip-rule="evenodd" d="M28.9935 5.04931C28.9935 5.04931 29.3051 3.6639 29.1416 3.07435C29.1323 3.04086 29.1233 3.00453 29.1138 2.96722C29.0827 2.84272 29.049 2.70709 28.9935 2.62999C28.7244 2.25472 28.1735 2.12436 27.8085 2.08686C26.8392 1.98761 26.0325 2.24685 25.5866 2.58064L25.5631 2.59818C25.4386 2.69092 25.334 2.76901 25.2411 2.87688C25.2055 2.91829 25.167 2.9647 25.1338 3.01259C25.1209 3.03109 25.1066 3.0469 25.0923 3.06272C25.0755 3.08153 25.0585 3.10038 25.0435 3.1237C25.0183 3.1619 24.9923 3.22094 24.964 3.2849C24.9462 3.32511 24.9275 3.36744 24.9077 3.40761C24.8685 3.48751 24.8311 3.5809 24.8007 3.65672L24.7966 3.66683C24.529 4.33535 24.2561 5.58301 24.5003 6.23425C24.5364 6.33059 24.617 6.45249 24.6446 6.48957C24.6568 6.50592 24.6685 6.52316 24.6803 6.54038C24.702 6.57209 24.7236 6.6037 24.7473 6.62925C24.8811 6.77348 25.0792 6.87518 25.2903 6.92549C26.3605 7.18083 28.4998 7.07362 28.4998 7.07362L28.762 5.91236C28.762 5.91236 27.2481 5.98053 26.5248 5.88866C26.5114 5.88698 26.4953 5.88525 26.477 5.88331C26.3449 5.86931 26.0964 5.84294 25.9609 5.72423C25.8266 5.60679 25.6681 5.32875 25.7842 5.14807C25.8485 5.04748 26.0648 5.04888 26.2883 5.05035C26.3512 5.05075 26.4146 5.05116 26.4755 5.04931C27.3666 5.02212 28.9935 5.04931 28.9935 5.04931ZM27.7962 3.51473C27.972 3.78629 27.932 4.02085 27.932 4.02085L26.0186 4.00851C26.0186 4.00851 25.997 3.18198 27.1123 3.21703C27.5073 3.22936 27.6461 3.28318 27.7962 3.51473Z" fill="#1A1918"/>
<path d="M23.2534 2.13239L24.4982 2.125C24.4982 2.125 23.8045 5.4158 23.451 7.0205H22.0191C21.8877 7.0205 21.7582 7.02263 21.6315 7.02472C20.793 7.03856 20.0773 7.05037 19.7478 6.42796C19.4321 5.8308 19.6462 4.9032 19.8173 4.16091C19.8456 4.0385 19.8727 3.92113 19.896 3.81111C20.0125 3.26107 20.258 2.13685 20.258 2.13685L21.5477 2.125C21.5477 2.125 21.1832 3.8753 21.0315 4.74924C21.0195 4.81894 21.0045 4.88774 20.9899 4.95515C20.9388 5.19041 20.8914 5.40861 20.9823 5.58859C21.0934 5.80885 21.2489 5.82461 21.7228 5.83548C21.873 5.83896 22.3647 5.83548 22.3647 5.83548L23.2534 2.13239Z" fill="#1A1918"/>
<path d="M12.9897 2.60672L12.9896 2.60696C12.9392 2.8485 12.8882 3.09309 12.8356 3.31783H11.4531C11.4957 3.15331 11.5343 2.9892 11.5721 2.82853C11.6294 2.58513 11.6848 2.34963 11.7494 2.13281C11.9654 2.13281 12.174 2.13422 12.3875 2.13566C12.6112 2.13718 12.8403 2.13874 13.0889 2.13874C13.0559 2.28896 13.0229 2.44716 12.9897 2.60672Z" fill="#1A1918"/>
<path d="M12.7369 3.66309H11.4039C11.3363 3.88531 10.9788 5.38036 10.8607 5.93436C10.8344 6.05851 10.8109 6.18329 10.7879 6.30618C10.6327 7.13216 10.4938 7.87212 9.57704 7.7612C9.53044 7.93249 9.47804 8.13073 9.42398 8.33523C9.36117 8.57285 9.29611 8.8189 9.23535 9.04101C9.35135 9.04338 9.46487 9.04751 9.57567 9.05155C9.8775 9.06251 10.1592 9.07275 10.4164 9.04492C10.6326 9.02129 11.0231 8.92796 11.1076 8.84744C11.1251 8.83073 11.1399 8.82662 11.1556 8.82223C11.1706 8.81807 11.1864 8.81366 11.2063 8.79803C11.6521 8.44986 11.7712 7.97223 11.9333 7.32247C11.9378 7.30425 11.9424 7.2859 11.947 7.26742C12.2176 6.18418 12.5627 4.62792 12.7369 3.66309Z" fill="#1A1918"/>
<path d="M7.55222 3.83999C7.77939 3.7916 8.29387 3.40455 8.38322 3.19962C7.64346 3.70305 7.17309 3.56188 6.93594 3.49071C6.92585 3.48768 6.91617 3.48479 6.90692 3.48206C6.85702 3.46777 6.74152 3.41592 6.63389 3.35123C6.62644 3.34675 6.61909 3.34234 6.61187 3.33799C6.38744 3.20327 6.27107 3.1334 6.09078 2.87125C5.98852 2.72271 5.88633 2.48664 5.85279 2.35134C5.79746 2.12766 5.81279 1.78354 5.91798 1.4873C5.56883 1.79888 5.51502 2.40077 5.63205 2.79869C5.64691 2.84908 5.72985 3.04705 5.77474 3.1196C6.07648 3.60501 6.65265 4.0316 7.55222 3.83999Z" fill="#21609B"/>
<path d="M6.91012 5.19384C7.4849 5.19782 8.08525 4.92917 8.44073 4.55202C8.12972 5.34154 7.22916 5.84904 6.02142 5.68761C5.01023 5.55232 4.04696 4.53472 3.9477 3.51511C3.87512 2.77306 4.13379 2.33017 4.55996 1.79297C4.41185 2.07395 4.35649 2.29065 4.3427 2.42887C4.18077 4.03406 5.62496 5.18547 6.91012 5.19384Z" fill="#21609B"/>
<path d="M8.29288 6.1809L8.26431 6.25492C7.77744 7.20288 6.91486 7.78455 5.68447 7.8102C5.10929 7.82205 4.56122 7.6745 4.20322 7.51396C3.43057 7.16685 2.78072 6.52307 2.42579 5.83524C1.9167 4.84924 1.82489 3.47763 2.88346 2.45312C2.89162 2.45312 2.85953 2.50866 2.82742 2.5642C2.79533 2.61974 2.76323 2.67527 2.77138 2.67527L2.74225 2.77007C1.97942 5.15829 4.32959 7.2049 6.61416 6.97085C7.16322 6.91459 7.86338 6.6139 8.29288 6.1809Z" fill="#21609B"/>
</svg>
