<svg width="11" height="10" viewBox="0 0 11 10" fill="none" xmlns="http://www.w3.org/2000/svg">
<path d="M7.50172 7.15633C7.76697 7.04412 8.08324 7.00328 8.4913 7.01347C8.47984 6.93712 8.33401 6.84643 8.22718 6.77999C8.19132 6.75768 8.15984 6.73812 8.13932 6.72274C7.97609 6.60543 7.80265 6.48295 7.62924 6.37587C7.57336 6.34174 7.49293 6.31326 7.41553 6.28585C7.36574 6.26822 7.3172 6.25101 7.27726 6.23306C7.23645 6.21643 7.18086 6.19981 7.12086 6.18185C6.97832 6.1392 6.81082 6.08908 6.75695 6.01372C6.61826 5.83341 6.52145 5.61535 6.4248 5.39762C6.4148 5.37512 6.40482 5.35262 6.3948 5.33018C6.3442 5.21451 6.2879 5.09658 6.2313 4.97797C6.16809 4.84551 6.10447 4.71222 6.04795 4.58033C6.0233 4.52662 6.00457 4.47583 5.98613 4.42583C5.96257 4.36191 5.93947 4.29928 5.90511 4.23347C5.53272 3.51424 4.98186 2.91231 4.31361 2.48893C4.09424 2.3512 3.84943 2.22364 3.57905 2.13695C3.49649 2.1122 3.40503 2.10822 3.31265 2.10418C3.23382 2.10074 3.15434 2.09728 3.07918 2.08086H2.97203C2.91018 2.06368 2.85528 2.01408 2.8042 1.96795C2.77945 1.9456 2.75561 1.92406 2.7323 1.90741C2.57415 1.80031 2.41604 1.72885 2.2273 1.65237C2.161 1.62177 1.97225 1.55035 1.90595 1.60648C1.86511 1.61668 1.84473 1.63198 1.83452 1.67278C1.79372 1.734 1.82946 1.82581 1.85494 1.88191C1.9055 1.98978 1.96943 2.06869 2.03495 2.14956C2.06858 2.19106 2.10262 2.2331 2.13549 2.27981C2.15119 2.30197 2.16756 2.32462 2.1842 2.34766C2.25949 2.45191 2.3404 2.56393 2.39054 2.67256C2.46128 2.82497 2.51172 2.98608 2.56197 3.1466C2.60588 3.28697 2.6497 3.42689 2.7068 3.56014C2.7527 3.66728 2.82411 3.78968 2.89043 3.88662C2.91122 3.91497 2.93834 3.94053 2.96578 3.96641C3.01236 4.01033 3.05993 4.05516 3.07918 4.11616C3.12878 4.19883 3.0377 4.43556 2.98236 4.57939C2.9694 4.61308 2.95843 4.64164 2.95165 4.66197C2.81901 5.08022 2.84451 5.66174 2.99753 6.02389C3.00301 6.03666 3.00843 6.04962 3.0139 6.06268C3.06963 6.19581 3.12947 6.33868 3.27809 6.37587C3.28272 6.37126 3.28315 6.36978 3.28415 6.36906C3.28534 6.3682 3.28734 6.36847 3.29851 6.36566C3.30597 6.30703 3.31232 6.24885 3.31859 6.19147C3.34228 5.97435 3.3647 5.76893 3.44132 5.59543C3.47784 5.50585 3.53807 5.43353 3.59676 5.36303C3.62832 5.32516 3.65943 5.28781 3.68618 5.24858C3.71853 5.26799 3.73036 5.31206 3.74251 5.35731C3.74951 5.38337 3.75661 5.40983 3.7678 5.4322C3.77261 5.44368 3.77747 5.45524 3.78232 5.46689C3.84453 5.61543 3.91147 5.77524 3.98713 5.92189C4.15547 6.24835 4.34424 6.56458 4.55845 6.85026C4.62984 6.95228 4.73188 7.06451 4.8237 7.15633C4.83768 7.16853 4.85222 7.17897 4.86657 7.18924C4.89413 7.20897 4.92088 7.22814 4.94103 7.25833H4.95124V7.27366C4.85438 7.23814 4.78003 7.16176 4.70743 7.0872C4.66532 7.04395 4.6238 7.00131 4.57884 6.9676C4.3493 6.79416 4.07386 6.53399 3.91572 6.28406C3.8659 6.17678 3.81322 6.07237 3.7598 5.96649C3.74211 5.93145 3.72436 5.89622 3.70659 5.8607C3.70659 5.8607 3.70661 5.85558 3.70659 5.85049C3.68709 5.87647 3.68415 5.90247 3.68063 5.93374C3.67863 5.95156 3.67643 5.97108 3.67086 5.99331C3.65197 6.06603 3.64259 6.14166 3.63355 6.21476C3.61084 6.39799 3.59011 6.56528 3.42603 6.63093C3.16588 6.73806 2.97203 6.45745 2.89043 6.32995C2.6303 5.90658 2.55886 5.19245 2.74249 4.61606C2.7567 4.57168 2.76657 4.52422 2.77643 4.47691C2.7949 4.38822 2.81328 4.29999 2.85984 4.23347C2.84959 4.17218 2.81436 4.14041 2.77995 4.10939C2.7628 4.09393 2.74586 4.07866 2.73232 4.06003C2.66088 3.96314 2.5997 3.85091 2.54357 3.74378C2.46201 3.58458 2.39822 3.40168 2.33639 3.22445C2.317 3.16887 2.2978 3.11383 2.27831 3.06024C2.2609 3.01549 2.24956 2.9707 2.23837 2.92653C2.22661 2.8801 2.21501 2.83431 2.19671 2.78991C2.14849 2.68543 2.06864 2.58097 1.99451 2.48399C1.97453 2.45785 1.95496 2.43224 1.93654 2.40733C1.91667 2.37883 1.89036 2.34576 1.86103 2.30891C1.7172 2.12824 1.50079 1.85637 1.61519 1.58097C1.82944 1.05558 2.57932 1.45342 2.87001 1.63707C2.89909 1.65576 2.92984 1.68289 2.96161 1.71091C3.00788 1.75173 3.05628 1.79442 3.10468 1.8156C3.16845 1.81816 3.23224 1.82199 3.29601 1.82581C3.35976 1.82964 3.42351 1.83346 3.48726 1.83602C3.50813 1.84091 3.5289 1.84572 3.54953 1.85049C3.76582 1.90058 3.96786 1.94737 4.14018 2.04515C5.01753 2.56037 5.58886 3.08576 6.11424 3.95291C6.18557 4.06962 6.23424 4.19251 6.2838 4.31766C6.31222 4.38943 6.34093 4.46193 6.37438 4.53445C6.5019 4.83028 6.64478 5.14141 6.79265 5.42199C6.81126 5.45918 6.82865 5.49758 6.84607 5.53606C6.89078 5.63478 6.93574 5.73401 7.00182 5.81476C7.02557 5.84872 7.07874 5.86685 7.12965 5.8842C7.15526 5.89293 7.18028 5.90145 7.20074 5.9117C7.26672 5.94568 7.33818 5.97653 7.41022 6.00764C7.52197 6.05587 7.63509 6.10472 7.73126 6.16674C8.02709 6.35037 8.31278 6.56968 8.5729 6.79416C8.62551 6.84122 8.66909 6.89876 8.71261 6.95624C8.74932 7.0047 8.78597 7.05312 8.82797 7.09514V7.14101C8.74636 7.16653 8.66472 7.19203 8.58311 7.21245C8.49432 7.23526 8.41059 7.24422 8.32749 7.2531C8.24351 7.26208 8.16022 7.27097 8.07303 7.29406C8.06203 7.2972 8.05078 7.30045 8.0393 7.30376C7.93888 7.33272 7.82176 7.36651 7.72105 7.37568C7.72613 7.38076 7.73126 7.38587 7.73126 7.38587C7.78043 7.52581 7.98947 7.64614 8.1608 7.74474C8.22053 7.77912 8.27568 7.81085 8.31786 7.83987C8.51682 7.98268 8.70045 8.15612 8.84838 8.35504C8.8738 8.38047 8.89924 8.40464 8.92468 8.42881C8.95026 8.4531 8.97584 8.47741 9.0014 8.50299C9.01868 8.52768 9.02999 8.55597 9.04111 8.58379C9.05295 8.61343 9.06459 8.64253 9.08301 8.66622V8.68151C9.03838 8.66558 9.0077 8.6337 8.97728 8.60208C8.95901 8.5831 8.94082 8.5642 8.91978 8.54891C8.87172 8.51616 8.8237 8.48058 8.77565 8.44501C8.71149 8.39749 8.64732 8.34997 8.58311 8.30916C8.48443 8.24681 8.37778 8.1977 8.27061 8.14835C8.16732 8.10079 8.06353 8.05297 7.96588 7.99289C7.8537 7.92147 7.74655 7.83987 7.63945 7.75826C7.54251 7.68683 7.43543 7.54908 7.37418 7.44708C7.35874 7.42283 7.34903 7.39668 7.33968 7.37149C7.3274 7.33843 7.31574 7.30703 7.29255 7.28385C7.30018 7.21137 7.37059 7.1931 7.43761 7.17568C7.4602 7.16981 7.48243 7.16403 7.50172 7.15633Z" fill="#00546B"/>
<path d="M3.0791 2.6056C3.14033 2.59031 3.20152 2.58008 3.28825 2.58008C3.30441 2.59624 3.32458 2.61002 3.34496 2.62391C3.376 2.6451 3.4075 2.6666 3.42598 2.69741C3.43731 2.71329 3.4446 2.72916 3.45191 2.74502C3.46104 2.76487 3.47016 2.7847 3.48718 2.80456C3.48718 2.92695 3.4515 3.00856 3.38004 3.0596C3.38004 3.0596 3.37496 3.0647 3.36987 3.06981C3.34948 3.02906 3.33039 2.98831 3.31129 2.94756C3.29212 2.90668 3.27298 2.86581 3.25252 2.82495C3.23266 2.79714 3.20971 2.77166 3.18668 2.74608C3.15056 2.70597 3.11425 2.66564 3.08931 2.61581H3.0791V2.6056Z" fill="#00546B"/>
</svg>
