<svg width="10" height="10" viewBox="0 0 10 10" fill="none" xmlns="http://www.w3.org/2000/svg">
<path d="M4.99984 8.75C4.89649 8.75 4.80003 8.72244 4.71046 8.67421L3.79407 8.12988C3.65626 8.05408 3.72515 8.02652 3.76651 8.01275C3.95253 7.95073 3.98699 7.93696 4.17992 7.82671C4.20059 7.81294 4.22815 7.81981 4.24882 7.8336L4.95161 8.2539C4.97917 8.26769 5.01363 8.26769 5.0343 8.2539L7.78351 6.66227C7.81105 6.64848 7.82484 6.62092 7.82484 6.58648V3.41008C7.82484 3.37563 7.81105 3.34806 7.78351 3.33429L5.0343 1.74954C5.00674 1.73576 4.9723 1.73576 4.95161 1.74954L2.20242 3.33429C2.17486 3.34806 2.16109 3.38252 2.16109 3.41008V6.58648C2.16109 6.61404 2.17486 6.64848 2.20242 6.66227L2.95346 7.09635C3.35999 7.30306 3.61492 7.0619 3.61492 6.82073V3.68569C3.61492 3.64435 3.64936 3.603 3.69759 3.603H4.04901C4.09034 3.603 4.13167 3.63746 4.13167 3.68569V6.82073C4.13167 7.36506 3.8354 7.68202 3.31863 7.68202C3.16015 7.68202 3.03613 7.68202 2.68474 7.50977L1.96126 7.09635C1.78212 6.993 1.67188 6.80006 1.67188 6.59335V3.41698C1.67188 3.21027 1.78212 3.01733 1.96126 2.91398L4.71046 1.32235C4.88271 1.22588 5.11699 1.22588 5.28924 1.32235L8.03844 2.91398C8.21759 3.01733 8.32782 3.21027 8.32782 3.41698V6.59335C8.32782 6.80006 8.21759 6.993 8.03844 7.09635L5.28924 8.68798C5.19967 8.72933 5.09632 8.75 4.99984 8.75ZM5.84734 6.56579C4.64155 6.56579 4.39351 6.01458 4.39351 5.54604C4.39351 5.50471 4.42796 5.46338 4.47619 5.46338H4.83449C4.87582 5.46338 4.91028 5.49094 4.91028 5.53227C4.9654 5.89746 5.12388 6.0766 5.85424 6.0766C6.43301 6.0766 6.68107 5.94569 6.68107 5.63563C6.68107 5.45648 6.61215 5.32556 5.70955 5.236C4.95851 5.16019 4.48996 4.99483 4.48996 4.39538C4.48996 3.83727 4.95851 3.50654 5.74399 3.50654C6.62594 3.50654 7.06003 3.80971 7.11515 4.47117C7.11515 4.49185 7.10826 4.51252 7.09446 4.53319C7.08069 4.54696 7.06003 4.56075 7.03936 4.56075H6.68107C6.64661 4.56075 6.61215 4.53319 6.60528 4.49873C6.52259 4.11977 6.30899 3.99575 5.74399 3.99575C5.11009 3.99575 5.0343 4.21623 5.0343 4.3816C5.0343 4.58142 5.12388 4.64344 5.97826 4.75367C6.82576 4.86392 7.22538 5.0224 7.22538 5.61496C7.21851 6.22129 6.7224 6.56579 5.84734 6.56579Z" fill="#539E43"/>
</svg>
