<svg width="11" height="10" viewBox="0 0 11 10" fill="none" xmlns="http://www.w3.org/2000/svg">
<path d="M5.20866 7.19107C7.50985 7.19107 9.37533 6.21024 9.37533 5.00032C9.37533 3.7904 7.50985 2.80957 5.20866 2.80957C2.90747 2.80957 1.04199 3.7904 1.04199 5.00032C1.04199 6.21024 2.90747 7.19107 5.20866 7.19107Z" fill="url(#paint0_radial_1158_180)"/>
<path d="M5.2085 7.02768C7.41979 7.02768 9.21241 6.1197 9.21241 4.99968C9.21241 3.87966 7.41979 2.97168 5.2085 2.97168C2.9972 2.97168 1.20459 3.87966 1.20459 4.99968C1.20459 6.1197 2.9972 7.02768 5.2085 7.02768Z" fill="#6181B6"/>
<path fill-rule="evenodd" clip-rule="evenodd" d="M6.21764 4.63509L6.01908 5.65723C6.01258 5.68652 5.98654 5.70929 5.95722 5.71907H5.46895C5.44941 5.71907 5.43314 5.71257 5.42012 5.69627C5.4071 5.68 5.40385 5.66048 5.4071 5.64094L5.59589 4.66763C5.61868 4.54719 5.59916 4.50813 5.58939 4.49838C5.57637 4.48536 5.53731 4.45929 5.39733 4.45929H5.07181L4.83743 5.66373C4.83093 5.69302 4.80489 5.71582 4.77233 5.71582H4.29708C4.27754 5.71582 4.26126 5.70929 4.24824 5.69302C4.23522 5.67675 4.23197 5.65723 4.23522 5.63769L4.31987 5.19823C4.26779 5.28938 4.19941 5.37402 4.11804 5.44888C4.01712 5.54329 3.9032 5.61165 3.77624 5.65396C3.65581 5.69302 3.49629 5.71257 3.31074 5.71257H2.95593L2.85176 6.24317C2.84524 6.27246 2.8192 6.29525 2.78666 6.29525H2.30814C2.28861 6.29525 2.27233 6.28873 2.25931 6.27246C2.24629 6.25619 2.24304 6.23665 2.24629 6.21711L2.67272 4.01659C2.67924 3.98729 2.70529 3.9645 2.73783 3.9645H3.65254C3.94876 3.9645 4.16687 4.0459 4.30685 4.2054C4.38497 4.29004 4.43054 4.39421 4.45008 4.5179L4.66166 3.43392C4.66816 3.40463 4.6942 3.38184 4.72676 3.38184H5.20201C5.22156 3.38184 5.23783 3.38834 5.25085 3.40461C5.26387 3.4209 5.26712 3.44042 5.26387 3.45996L5.16622 3.96777H5.51126C5.79772 3.96777 5.99304 4.01986 6.10697 4.12402C6.22416 4.23144 6.26322 4.40396 6.21764 4.63509ZM3.65254 5.1364C3.73393 5.07454 3.78926 4.96386 3.81856 4.81088C3.8446 4.67415 3.83483 4.57323 3.79251 4.52115C3.75997 4.48536 3.67858 4.44302 3.47676 4.44302H3.20333L3.05033 5.23079H3.26191C3.4377 5.23079 3.57116 5.19823 3.65254 5.1364Z" fill="white"/>
<path fill-rule="evenodd" clip-rule="evenodd" d="M7.39588 3.96484C7.69211 3.96484 7.91019 4.04622 8.05017 4.20572C8.19015 4.36849 8.23246 4.58984 8.17713 4.87303C8.15434 4.98697 8.11527 5.09114 8.06319 5.18553C8.01111 5.27995 7.9395 5.36782 7.85486 5.44595C7.75394 5.54036 7.64002 5.60872 7.51306 5.65103C7.39263 5.69009 7.23311 5.70964 7.04756 5.70964H6.69275L6.58858 6.24022C6.58206 6.26953 6.55602 6.2923 6.52348 6.2923H6.04496C6.02544 6.2923 6.00915 6.2858 5.99613 6.26953C5.98311 6.25324 5.97986 6.23372 5.98311 6.21418L6.40954 4.01693C6.41606 3.98761 6.44211 3.96484 6.47465 3.96484H7.39588ZM7.38611 5.13672C7.46748 5.07486 7.52283 4.96418 7.55213 4.8112C7.58142 4.67447 7.57165 4.57355 7.52608 4.52147C7.49352 4.48568 7.41215 4.44334 7.21033 4.44334H6.9369L6.7839 5.23111H6.99548C7.17127 5.23111 7.30473 5.19855 7.38611 5.13672Z" fill="white"/>
<path d="M4.73015 3.44727H5.20542L5.09148 4.02993H5.51465C5.78159 4.02993 5.96388 4.07552 6.06479 4.16991C6.16569 4.26431 6.195 4.41406 6.15594 4.62239L5.95736 5.64454H5.47559L5.6644 4.67122C5.68719 4.56054 5.67742 4.48566 5.64161 4.4466C5.60579 4.40754 5.52442 4.38477 5.40398 4.38477H5.02313L4.77898 5.64454H4.30371L4.73015 3.44727Z" fill="#000004"/>
<path fill-rule="evenodd" clip-rule="evenodd" d="M2.31152 6.22752H2.79002L2.90396 5.64486H3.31413C3.49642 5.64486 3.6429 5.62532 3.76009 5.58625C3.87727 5.54719 3.98144 5.48534 4.07909 5.39419C4.16048 5.31934 4.22559 5.23794 4.2744 5.15007C4.32323 5.06217 4.35904 4.9645 4.37857 4.85709C4.43065 4.59667 4.39159 4.39486 4.26465 4.24836C4.13769 4.10188 3.93586 4.03027 3.65917 4.03027H2.73794L2.31152 6.22752ZM3.47688 4.37857C3.65917 4.37857 3.77961 4.41113 3.84146 4.47948C3.90332 4.54784 3.91634 4.66177 3.88377 4.82454C3.85123 4.99382 3.78613 5.1175 3.69173 5.18913C3.59732 5.26073 3.45409 5.29654 3.26202 5.29654H2.97232L3.15136 4.37857H3.47688Z" fill="#000004"/>
<path fill-rule="evenodd" clip-rule="evenodd" d="M6.52344 6.22752H6.04492L6.47136 4.03027H7.39259C7.66928 4.03027 7.87109 4.10188 7.99805 4.24836C8.125 4.39486 8.16407 4.59667 8.11198 4.85709C8.09244 4.9645 8.05665 5.06217 8.00782 5.15007C7.95898 5.23794 7.89388 5.31934 7.81251 5.39419C7.71484 5.48534 7.61067 5.54719 7.49348 5.58625C7.3763 5.62532 7.22982 5.64486 7.04753 5.64486H6.63738L6.52344 6.22752ZM7.57488 4.47948C7.51303 4.41113 7.39259 4.37857 7.2103 4.37857H6.88478L6.70573 5.29654H6.99544C7.1875 5.29654 7.33073 5.26073 7.42513 5.18913C7.51953 5.1175 7.58463 4.99382 7.61719 4.82454C7.64973 4.66177 7.63671 4.54784 7.57488 4.47948Z" fill="#000004"/>
<defs>
<radialGradient id="paint0_radial_1158_180" cx="0" cy="0" r="1" gradientUnits="userSpaceOnUse" gradientTransform="translate(3.54368 3.58001) scale(5.47185)">
<stop stop-color="white"/>
<stop offset="0.5" stop-color="#4C6B97"/>
<stop offset="1" stop-color="#231F20"/>
</radialGradient>
</defs>
</svg>
