<svg width="11" height="10" viewBox="0 0 11 10" fill="none" xmlns="http://www.w3.org/2000/svg">
<path d="M7.958 3.8259C7.88021 3.7991 7.79959 3.77377 7.71657 3.74981C7.73021 3.69413 7.74273 3.63917 7.75388 3.58513C7.93663 2.698 7.81715 1.98331 7.40911 1.748C7.01784 1.52238 6.37796 1.75763 5.73173 2.32004C5.66959 2.3741 5.60727 2.43138 5.54498 2.49138C5.50346 2.45167 5.46202 2.41331 5.42069 2.3766C4.74342 1.77525 4.06455 1.52183 3.65692 1.75782C3.26602 1.98409 3.15027 2.65596 3.31477 3.49671C3.33067 3.57792 3.34923 3.66085 3.37023 3.74517C3.27415 3.77244 3.1814 3.80152 3.09265 3.83246C2.29861 4.10929 1.7915 4.54317 1.7915 4.99321C1.7915 5.458 2.33589 5.92421 3.16294 6.2069C3.22821 6.22921 3.29592 6.25029 3.36573 6.27031C3.34307 6.36152 3.32336 6.45088 3.30682 6.53804C3.14996 7.36419 3.27246 8.02021 3.6623 8.24504C4.06498 8.47725 4.74077 8.23858 5.39884 7.66335C5.45084 7.6179 5.50305 7.56967 5.55534 7.51913C5.62311 7.5844 5.69077 7.64617 5.75809 7.7041C6.3955 8.2526 7.02505 8.4741 7.41452 8.24863C7.8168 8.01573 7.94752 7.31104 7.7778 6.45365C7.76484 6.38817 7.74975 6.32127 7.73282 6.25319C7.78027 6.23917 7.82686 6.22467 7.8723 6.20963C8.73209 5.92475 9.2915 5.46421 9.2915 4.99321C9.2915 4.54154 8.76805 4.10473 7.958 3.8259ZM7.77152 5.9055C7.7305 5.91906 7.68844 5.93219 7.64555 5.94492C7.55063 5.64442 7.42252 5.3249 7.26575 4.99477C7.41536 4.6725 7.53852 4.35706 7.63077 4.0585C7.7075 4.08071 7.78196 4.10413 7.85371 4.12883C8.54775 4.36775 8.97111 4.72102 8.97111 4.99321C8.97111 5.28313 8.5139 5.6595 7.77152 5.9055ZM7.46348 6.51588C7.53855 6.895 7.54925 7.23777 7.49955 7.50573C7.45488 7.74652 7.36505 7.90704 7.25398 7.97133C7.01761 8.10815 6.51217 7.93031 5.96705 7.46123C5.90455 7.40746 5.84161 7.35004 5.77846 7.28927C5.9898 7.05815 6.201 6.78944 6.40713 6.49104C6.76971 6.45885 7.11225 6.40627 7.4229 6.33446C7.43819 6.39617 7.45177 6.45671 7.46348 6.51588ZM4.34842 7.94769C4.1175 8.02925 3.93357 8.03158 3.8224 7.96748C3.58582 7.83102 3.48748 7.30433 3.62163 6.59779C3.637 6.51688 3.65527 6.43377 3.67636 6.34881C3.98359 6.41675 4.32363 6.46563 4.68707 6.49508C4.89459 6.7871 5.1119 7.0555 5.3309 7.2905C5.28305 7.33669 5.2354 7.38067 5.188 7.4221C4.897 7.67646 4.6054 7.85694 4.34842 7.94769ZM3.26657 5.90371C2.90086 5.77873 2.59884 5.61627 2.39182 5.439C2.2058 5.27969 2.11189 5.12154 2.11189 4.99321C2.11189 4.7201 2.51905 4.37177 3.19811 4.135C3.2805 4.10627 3.36677 4.07921 3.45627 4.05377C3.55013 4.35906 3.67323 4.67823 3.82182 5.001C3.67132 5.32854 3.54646 5.65281 3.45169 5.96169C3.38788 5.94333 3.32605 5.92404 3.26657 5.90371ZM3.62921 3.43519C3.48825 2.71485 3.58188 2.17146 3.81744 2.0351C4.06834 1.88984 4.62317 2.09696 5.20796 2.61621C5.24534 2.6494 5.28286 2.68413 5.3205 2.72006C5.10259 2.95404 4.88727 3.22044 4.68159 3.51071C4.32886 3.5434 3.99121 3.59592 3.68077 3.66625C3.66125 3.58773 3.64396 3.5106 3.62921 3.43519ZM6.86438 4.23404C6.79015 4.10585 6.71396 3.98069 6.6363 3.85896C6.87561 3.88921 7.10488 3.92935 7.32017 3.9785C7.25555 4.18567 7.17496 4.40227 7.08013 4.62431C7.01211 4.49517 6.94015 4.36494 6.86438 4.23404ZM5.54509 2.94904C5.69286 3.10915 5.84086 3.2879 5.98642 3.48185C5.83973 3.47492 5.69123 3.47131 5.5415 3.47131C5.39319 3.47131 5.24577 3.47483 5.1 3.48165C5.24571 3.2895 5.39498 3.11098 5.54509 2.94904ZM4.21734 4.23625C4.14321 4.36479 4.07259 4.49431 4.00563 4.62408C3.91232 4.40281 3.8325 4.18521 3.7673 3.9751C3.9813 3.92723 4.20948 3.88806 4.44725 3.8584C4.36848 3.98125 4.29167 4.10735 4.21734 4.23625ZM4.45411 6.15088C4.20844 6.12346 3.97682 6.08631 3.76288 6.03975C3.82913 5.8259 3.91071 5.60367 4.00598 5.37763C4.07313 5.50729 4.14402 5.63688 4.21861 5.76569C4.29457 5.89694 4.37332 6.0255 4.45411 6.15088ZM5.55394 7.05996C5.40209 6.8961 5.25063 6.71488 5.10269 6.51992C5.2463 6.52556 5.39271 6.52844 5.5415 6.52844C5.69438 6.52844 5.8455 6.525 5.99423 6.51838C5.84819 6.71683 5.70073 6.89835 5.55394 7.05996ZM7.08319 5.3661C7.18344 5.59458 7.26794 5.81567 7.33505 6.02588C7.11759 6.07548 6.8828 6.11544 6.63542 6.14513C6.71327 6.02175 6.79013 5.89444 6.86565 5.7635C6.94205 5.631 7.01461 5.49831 7.08319 5.3661ZM6.58813 5.60342C6.47088 5.80671 6.35052 6.00075 6.22834 6.18394C6.00577 6.19985 5.77586 6.20804 5.5415 6.20804C5.30811 6.20804 5.08109 6.20079 4.86246 6.1866C4.73534 6.00102 4.61236 5.8064 4.49588 5.60517C4.37969 5.4045 4.27277 5.20213 4.1759 5.0009C4.27275 4.79919 4.3794 4.59658 4.49492 4.39627C4.61073 4.19542 4.73263 4.00179 4.85857 3.81738C5.08161 3.8005 5.31034 3.79171 5.54148 3.79171C5.77367 3.79171 6.00271 3.80058 6.22569 3.81758C6.34971 4.00065 6.4708 4.19371 6.58707 4.39458C6.70467 4.59771 6.81269 4.79896 6.9104 4.99633C6.81298 5.1971 6.70519 5.4004 6.58813 5.60342ZM7.24907 2.02557C7.50021 2.1704 7.59788 2.75452 7.44009 3.52046C7.43002 3.56933 7.41869 3.61913 7.40638 3.66956C7.09521 3.59777 6.75734 3.54435 6.40357 3.51117C6.19748 3.21769 5.98394 2.9509 5.76957 2.71992C5.82721 2.66448 5.88475 2.6116 5.94207 2.56171C6.49577 2.07985 7.01327 1.8896 7.24907 2.02557ZM5.5415 4.32348C5.91138 4.32348 6.21123 4.62331 6.21123 4.99321C6.21123 5.36308 5.91138 5.66292 5.5415 5.66292C5.17163 5.66292 4.87177 5.36308 4.87177 4.99321C4.87177 4.62331 5.17163 4.32348 5.5415 4.32348Z" fill="#00D8FF"/>
</svg>
