<svg width="11" height="10" viewBox="0 0 11 10" fill="none" xmlns="http://www.w3.org/2000/svg">
<path fill-rule="evenodd" clip-rule="evenodd" d="M4.91291 3.63705C4.90829 3.63705 4.89931 3.63705 4.89468 3.63705C4.81772 3.62765 4.75435 3.55713 4.75435 3.47721C4.74972 3.40198 4.70891 1.64373 5.70076 1.24414C5.94989 1.14541 6.1811 1.1642 6.37581 1.30997C6.61566 1.48391 6.78783 1.83179 6.89199 2.33953C6.96431 2.69682 6.97791 3.00707 6.97791 3.02119C6.98256 3.0964 6.92383 3.15284 6.84656 3.13871C6.7696 3.12932 6.70624 3.05882 6.70624 2.98357C6.69264 2.6639 6.58847 1.78479 6.24445 1.53091C6.13566 1.451 5.99966 1.44158 5.83676 1.50741C4.98522 1.85058 5.02604 3.50071 5.02604 3.51951C5.02604 3.58534 4.98091 3.63705 4.91291 3.63705Z" fill="#595961"/>
<path opacity="0.46" fill-rule="evenodd" clip-rule="evenodd" d="M6.32604 1.31926C6.14492 1.18761 5.93225 1.16882 5.70106 1.25814C5.298 1.42267 5.01273 1.8552 4.8724 2.51338C4.76823 2.99757 4.78183 3.4348 4.78183 3.45361C4.78183 3.47711 4.79079 3.50063 4.80904 3.51942C4.82696 3.53822 4.84519 3.55234 4.86777 3.55234C4.8724 3.55234 4.87704 3.55234 4.88135 3.55234C4.92217 3.55234 4.954 3.51942 4.954 3.47711C4.954 3.4583 4.91321 1.77996 5.78731 1.42738C5.96379 1.35688 6.11771 1.36626 6.24475 1.46029C6.61131 1.72826 6.7201 2.63561 6.73371 2.95999C6.73371 3.00699 6.77452 3.05401 6.82429 3.05869C6.86971 3.0634 6.90588 3.03049 6.90588 2.98349C6.90123 2.92707 6.85148 1.70476 6.32604 1.31926Z" fill="#B2B2C2"/>
<path opacity="0.46" fill-rule="evenodd" clip-rule="evenodd" d="M4.87206 3.49617C4.86742 3.49617 4.86742 3.49617 4.86308 3.49617C4.83589 3.49146 4.81302 3.46325 4.80869 3.43504C4.80869 3.41623 4.7951 2.98844 4.89925 2.50419C5.03494 1.86014 5.32052 1.43232 5.71431 1.27247C5.93623 1.18314 6.1356 1.20197 6.30777 1.3242C6.81498 1.69558 6.86473 2.89911 6.86473 2.95081C6.86473 2.97902 6.84217 2.99781 6.81498 2.99313C6.78777 2.98844 6.76521 2.96494 6.76056 2.93202C6.76056 2.9179 6.71081 1.73791 6.25335 1.39941C6.11735 1.3007 5.94983 1.28658 5.75975 1.36179C4.87206 1.7332 4.91285 3.43504 4.91285 3.45383C4.91719 3.47733 4.89925 3.49617 4.87206 3.49617Z" fill="#B2B2C2"/>
<path opacity="0.62" fill-rule="evenodd" clip-rule="evenodd" d="M5.23885 2.15179C5.275 2.08128 5.31116 2.01075 5.343 1.93555C5.32939 1.95905 5.23883 2.20352 4.9625 2.16589C4.95787 2.16589 5.12541 2.2176 5.23885 2.15179Z" fill="#595961"/>
<path opacity="0.62" fill-rule="evenodd" clip-rule="evenodd" d="M5.13936 2.45301C5.16657 2.37776 5.19376 2.29786 5.21199 2.22266C5.20303 2.25086 5.15759 2.50472 4.86768 2.50472C4.86768 2.50472 5.0352 2.53761 5.13936 2.45301Z" fill="#595961"/>
<path opacity="0.62" fill-rule="evenodd" clip-rule="evenodd" d="M6.72902 1.84585C6.69285 1.76121 6.65204 1.6813 6.61125 1.59668C6.62485 1.62488 6.76085 1.89285 6.60693 2.08559C6.60693 2.08559 6.72468 1.99159 6.72902 1.84585Z" fill="#595961"/>
<path opacity="0.62" fill-rule="evenodd" clip-rule="evenodd" d="M6.47981 1.42314C6.40717 1.36203 6.33483 1.30561 6.26221 1.25391C6.28939 1.27741 6.52956 1.45135 6.51596 1.71464C6.51131 1.71464 6.55214 1.55949 6.47981 1.42314Z" fill="#595961"/>
<path opacity="0.62" fill-rule="evenodd" clip-rule="evenodd" d="M5.37023 1.89331C5.42463 1.8369 5.46975 1.77578 5.51952 1.70996C5.50159 1.72875 5.352 1.92152 5.08496 1.85099C5.08496 1.85099 5.23888 1.93564 5.37023 1.89331Z" fill="#595961"/>
<path opacity="0.62" fill-rule="evenodd" clip-rule="evenodd" d="M5.5382 1.67699C5.60155 1.62999 5.66028 1.58295 5.71933 1.53125C5.69676 1.54537 5.51101 1.70048 5.25293 1.58766C5.25293 1.58766 5.4022 1.69578 5.5382 1.67699Z" fill="#595961"/>
<path opacity="0.62" fill-rule="evenodd" clip-rule="evenodd" d="M5.78226 1.52198C5.85924 1.49848 5.93186 1.47028 6.0042 1.44207C5.97699 1.45145 5.74609 1.53607 5.51953 1.35742C5.52418 1.35742 5.64195 1.49848 5.78226 1.52198Z" fill="#595961"/>
<path opacity="0.62" fill-rule="evenodd" clip-rule="evenodd" d="M6.00435 1.43708C6.06771 1.44649 6.13106 1.4512 6.19444 1.45591C6.17187 1.4512 5.9725 1.43708 5.85938 1.24902C5.85938 1.24902 5.90481 1.37597 6.00435 1.43708Z" fill="#595961"/>
<path opacity="0.62" fill-rule="evenodd" clip-rule="evenodd" d="M6.26694 1.54045C6.31207 1.59219 6.36213 1.64389 6.41621 1.69089C6.39829 1.6721 6.24438 1.51695 6.28054 1.32422C6.2759 1.32422 6.22613 1.43233 6.26694 1.54045Z" fill="#595961"/>
<path opacity="0.74" fill-rule="evenodd" clip-rule="evenodd" d="M6.81498 2.92726C6.81498 2.87553 6.76521 1.68611 6.2716 1.32414C6.17639 1.25362 6.07223 1.2207 5.96344 1.2207C5.88183 1.2207 5.79592 1.2395 5.70535 1.27711C5.31125 1.43226 5.03494 1.85067 4.89925 2.49003C4.7951 2.96955 4.80869 3.39736 4.80869 3.41617C4.80869 3.43028 4.82229 3.44436 4.8359 3.44436H4.84021C4.85381 3.44436 4.86308 3.43498 4.86308 3.42086C4.86308 3.40207 4.81765 1.68611 5.72792 1.31944C5.92727 1.2395 6.09944 1.25362 6.24439 1.36173C6.71512 1.70494 6.76521 2.90376 6.76521 2.91784C6.76521 2.93196 6.77881 2.94605 6.79242 2.94605C6.79242 2.94605 6.79239 2.94605 6.79673 2.94605C6.806 2.95076 6.81498 2.94134 6.81498 2.92726Z" fill="url(#paint0_linear_1158_209)"/>
<path fill-rule="evenodd" clip-rule="evenodd" d="M6.89179 2.33943C6.78762 1.83169 6.61548 1.48848 6.37562 1.30984C6.24425 1.21584 6.10362 1.17351 5.94971 1.18292C6.0721 1.19231 6.18523 1.23463 6.28939 1.30984C6.52954 1.48381 6.70171 1.83169 6.80587 2.33943C6.87821 2.69672 6.89179 3.00697 6.89179 3.02109C6.89179 3.07751 6.86458 3.11982 6.81917 3.13391C6.82844 3.13861 6.83739 3.13861 6.84204 3.13861C6.919 3.14803 6.97773 3.0963 6.97339 3.02109C6.97773 3.00697 6.9641 2.70143 6.89179 2.33943Z" fill="url(#paint1_linear_1158_209)"/>
<path fill-rule="evenodd" clip-rule="evenodd" d="M5.75105 1.50782C4.89951 1.85099 4.9403 3.50114 4.9403 3.51993C4.9403 3.57633 4.91309 3.61866 4.86768 3.63274C4.87695 3.63745 4.88128 3.63745 4.89055 3.63745C4.89488 3.63745 4.90413 3.63745 4.90847 3.63745C4.97647 3.63745 5.02159 3.58574 5.02159 3.51993C5.02159 3.50114 4.98111 1.8557 5.83234 1.51253C5.89136 1.48903 5.94576 1.47491 5.99551 1.4702C5.92288 1.45611 5.84161 1.4702 5.75105 1.50782Z" fill="url(#paint2_linear_1158_209)"/>
<path fill-rule="evenodd" clip-rule="evenodd" d="M7.04132 1.91694L3.20092 3.14864C3.20092 3.14864 3.03802 3.19566 2.99723 3.24737C2.95642 3.29908 2.94746 3.44481 2.94746 3.44481L2.354 8.19306L6.81042 9.05808L7.15475 1.91223C7.10498 1.90282 7.0549 1.91223 7.04132 1.91694Z" fill="url(#paint3_linear_1158_209)"/>
<path fill-rule="evenodd" clip-rule="evenodd" d="M8.3681 2.52796C8.3681 2.52796 8.36346 2.49033 8.34089 2.47625C8.32266 2.46214 8.3001 2.46214 8.3001 2.46214L7.6705 2.41514L7.20871 1.94032C7.19048 1.9262 7.17225 1.91682 7.14968 1.91211L6.80566 9.05796L9.21931 8.51731L8.3681 2.52796Z" fill="url(#paint4_linear_1158_209)"/>
<path fill-rule="evenodd" clip-rule="evenodd" d="M5.45626 5.88479C5.38826 5.79077 5.30697 5.70614 5.22537 5.63091C5.14378 5.5557 5.05785 5.49458 4.97162 5.43818C4.91289 5.40056 4.85849 5.36293 4.81305 5.32533C4.76793 5.28774 4.73176 5.25012 4.70455 5.2172C4.67737 5.17958 4.6548 5.14668 4.6412 5.1091C4.6276 5.07147 4.62295 5.03385 4.62295 4.99624C4.62295 4.94454 4.63655 4.89283 4.6548 4.85049C4.67272 4.8082 4.70455 4.7706 4.7361 4.73768C4.77255 4.70477 4.81305 4.68127 4.86312 4.66247C4.91289 4.64364 4.9716 4.63427 5.03497 4.62956C5.10297 4.62485 5.17097 4.62956 5.23433 4.63427C5.2977 4.63895 5.35672 4.65306 5.41545 4.66714C5.46985 4.68127 5.52424 4.70006 5.56939 4.71889C5.6148 4.73768 5.65993 4.75647 5.69178 4.77529L5.99068 3.85387C5.94555 3.83037 5.89114 3.80683 5.83212 3.79274C5.76874 3.77391 5.70074 3.75983 5.62378 3.75041C5.54683 3.74104 5.46522 3.73633 5.37928 3.73633C5.29337 3.73633 5.2028 3.74104 5.10762 3.75512C4.90393 3.78333 4.72249 3.83974 4.5596 3.92435C4.40568 4.00431 4.26968 4.1077 4.15655 4.23466C4.04774 4.35689 3.96183 4.49791 3.89845 4.65777C3.83943 4.81291 3.80326 4.98685 3.7943 5.17489C3.78966 5.28774 3.79862 5.39114 3.82583 5.48518C3.84839 5.5792 3.88487 5.66854 3.93462 5.75314C3.97974 5.83777 4.03878 5.91299 4.10214 5.98349C4.16551 6.05402 4.24247 6.11985 4.31943 6.18097C4.38278 6.22797 4.4372 6.27497 4.48264 6.31729C4.52776 6.35962 4.56424 6.40191 4.59112 6.44893C4.61833 6.49122 4.63655 6.53356 4.65016 6.58056C4.66376 6.62287 4.66839 6.66987 4.66376 6.71691C4.66376 6.76391 4.65016 6.81091 4.63193 6.84852C4.61401 6.88614 4.59112 6.92377 4.55497 6.95195C4.52343 6.98016 4.48264 6.99895 4.4372 7.00837C4.39208 7.01775 4.33768 7.02245 4.27864 7.01308C4.21095 7.00366 4.14295 6.98487 4.07958 6.95664C4.01622 6.93314 3.95255 6.90022 3.89383 6.86731C3.83512 6.83443 3.7807 6.79681 3.73526 6.76391C3.68551 6.73099 3.6447 6.69337 3.61318 6.66516L3.40918 7.36566C3.44101 7.41266 3.48614 7.45499 3.53591 7.49729C3.58597 7.5396 3.6447 7.58189 3.7127 7.62422C3.7807 7.66185 3.85303 7.69943 3.92999 7.73233C4.00695 7.76524 4.09318 7.79345 4.17912 7.81699H4.18376H4.18808H4.19272H4.19735C4.3828 7.85929 4.5596 7.86868 4.72712 7.84518C4.89928 7.82166 5.05785 7.76054 5.19353 7.66654C5.33385 7.56781 5.44728 7.43616 5.53322 7.26222C5.61945 7.08829 5.6692 6.87672 5.67818 6.63695C5.6828 6.48652 5.66458 6.35491 5.62378 6.23266C5.58299 6.09164 5.52426 5.98349 5.45626 5.88479Z" fill="url(#paint5_linear_1158_209)"/>
<path opacity="0.226763" fill-rule="evenodd" clip-rule="evenodd" d="M3.43825 7.4031C3.42775 7.39064 3.41785 7.37791 3.40889 7.36485L3.61289 6.66435C3.61567 6.66696 3.61877 6.66966 3.62185 6.67243C3.65214 6.6995 3.68985 6.73323 3.735 6.76308C3.78042 6.796 3.83483 6.83362 3.89354 6.86652C3.95227 6.89941 4.01594 6.93231 4.07929 6.95585C4.14267 6.98406 4.21067 7.00285 4.27835 7.01227C4.33739 7.02164 4.39179 7.01696 4.43692 7.00756C4.48235 6.99814 4.52314 6.97935 4.55469 6.95114C4.59083 6.92294 4.61373 6.88531 4.63164 6.84771C4.64987 6.81008 4.66348 6.76308 4.66348 6.71608C4.6681 6.66906 4.66348 6.62206 4.64987 6.57973C4.63627 6.53273 4.61804 6.49041 4.59085 6.44812C4.56519 6.40341 4.53119 6.363 4.48883 6.32277C4.5111 6.34791 4.52996 6.37371 4.54571 6.40108C4.57292 6.44341 4.59085 6.48571 4.60444 6.53273C4.61804 6.57502 4.62269 6.62206 4.61804 6.66906C4.61804 6.71608 4.60446 6.76308 4.58652 6.80071C4.56829 6.83831 4.54571 6.87591 4.50956 6.90412C4.47771 6.93231 4.43692 6.95114 4.39179 6.96052C4.34635 6.96993 4.29196 6.97464 4.23323 6.96523C4.16523 6.95585 4.09723 6.93702 4.03387 6.90881C3.9705 6.88531 3.90714 6.85241 3.8481 6.8195C3.78937 6.78658 3.735 6.749 3.68985 6.71608C3.64444 6.68623 3.60673 6.6525 3.57644 6.62543C3.57333 6.62266 3.57054 6.61996 3.56746 6.61735L3.36377 7.31781C3.38385 7.34775 3.40952 7.37577 3.43825 7.4031ZM4.10558 5.98696C4.08858 5.97012 4.07219 5.95306 4.05644 5.93569C3.99306 5.86514 3.93435 5.78993 3.88892 5.70533C3.83914 5.62068 3.80298 5.53135 3.78042 5.43735C3.75321 5.34333 3.74394 5.23989 3.74856 5.12706C3.75754 4.939 3.79402 4.76506 3.85275 4.60991C3.9161 4.4501 4.00235 4.30906 4.11083 4.18683C4.22427 4.05989 4.35996 3.95646 4.51387 3.87654C4.67706 3.79193 4.85821 3.73552 5.06189 3.70731C5.15708 3.69318 5.24767 3.68848 5.33358 3.68848C5.41981 3.68848 5.50142 3.69318 5.57837 3.7026C5.65533 3.71202 5.72333 3.7261 5.78671 3.74493C5.84544 3.75902 5.89983 3.78252 5.94527 3.80602L5.93814 3.828C5.90539 3.81377 5.86954 3.80093 5.83183 3.79191C5.76846 3.77312 5.70046 3.75902 5.6235 3.7496C5.54654 3.74023 5.46494 3.73552 5.379 3.73552C5.29308 3.73552 5.20254 3.74023 5.10733 3.75431C4.90364 3.78252 4.72221 3.83891 4.55931 3.92358C4.40539 4.00348 4.26939 4.10689 4.15627 4.23383C4.04746 4.35606 3.96154 4.4971 3.89817 4.65696C3.83914 4.8121 3.80298 4.98604 3.79402 5.17406C3.78937 5.28691 3.79833 5.39033 3.82554 5.48435C3.8481 5.57839 3.88458 5.66771 3.93433 5.75233C3.97946 5.83693 4.0385 5.91218 4.10185 5.98268C4.1031 5.98408 4.10433 5.98554 4.10558 5.98696ZM4.72064 5.23564C4.74537 5.2636 4.77629 5.29406 4.81277 5.3245C4.85821 5.36212 4.9126 5.39975 4.97133 5.43735C5.05756 5.49377 5.1435 5.55489 5.22508 5.63008C5.24889 5.652 5.27237 5.67466 5.29587 5.69816C5.25817 5.65762 5.21889 5.61927 5.17964 5.5831C5.09835 5.50785 5.01212 5.44675 4.92621 5.39033C4.86717 5.35271 4.81277 5.31512 4.76764 5.2775C4.75064 5.26348 4.73519 5.24946 4.72064 5.23564Z" fill="black"/>
<path opacity="0.41" fill-rule="evenodd" clip-rule="evenodd" d="M7.82496 7.7277L7.67105 2.4153L7.64384 2.3871L7.71648 7.65245C7.71648 7.65245 7.07792 8.65851 6.98271 8.6303C6.84238 8.58801 7.25903 1.9922 7.25903 1.9922L7.21361 1.9452C7.19567 1.93108 7.1728 1.9217 7.15488 1.91699L6.81519 8.9641L6.81055 9.06285L6.92832 8.90768L7.82496 7.7277Z" fill="url(#paint6_linear_1158_209)"/>
<path fill-rule="evenodd" clip-rule="evenodd" d="M6.09027 2.22197C6.03619 2.44291 5.96819 2.64976 5.91844 2.7767C5.88659 2.85193 5.92275 2.92243 5.99075 2.93185C6.0634 2.94126 6.14469 2.88951 6.17188 2.8143C6.17652 2.8002 6.29861 2.49464 6.37588 2.13264V2.12793L6.09027 2.22197Z" fill="url(#paint7_linear_1158_209)"/>
<path fill-rule="evenodd" clip-rule="evenodd" d="M4.04775 2.88061C3.9844 3.02165 3.92103 3.14388 3.87559 3.2285C3.83511 3.29902 3.85767 3.37423 3.92567 3.39302C3.99336 3.41654 4.08392 3.37423 4.12471 3.30371C4.12934 3.29432 4.26071 3.06396 4.37848 2.77246L4.04775 2.88061Z" fill="url(#paint8_linear_1158_209)"/>
<path opacity="0.32" fill-rule="evenodd" clip-rule="evenodd" d="M6.81055 9.05802L7.82496 7.72754L9.22915 8.51737L6.81055 9.05802Z" fill="url(#paint9_linear_1158_209)"/>
<path opacity="0.19" fill-rule="evenodd" clip-rule="evenodd" d="M6.81055 9.05802L7.81601 7.72754L9.22915 8.51737L6.81055 9.05802Z" fill="url(#paint10_linear_1158_209)"/>
<path opacity="0.19" fill-rule="evenodd" clip-rule="evenodd" d="M6.81055 9.05802L7.81601 7.72754L9.22915 8.51737L6.81055 9.05802Z" fill="url(#paint11_linear_1158_209)"/>
<path opacity="0.6" fill-rule="evenodd" clip-rule="evenodd" d="M5.82306 5.33452C6.34849 6.0726 6.70177 6.87181 6.87824 7.64752L7.15458 1.90733C7.10483 1.89795 7.05474 1.90733 7.04114 1.91204L3.20077 3.14848C3.20077 3.14848 3.16458 3.15785 3.11914 3.17669C4.09308 3.52456 5.0667 4.27206 5.82306 5.33452Z" fill="url(#paint12_linear_1158_209)"/>
<path fill-rule="evenodd" clip-rule="evenodd" d="M8.34563 2.48066C8.3685 2.49949 8.3685 2.5277 8.3685 2.5277L9.21075 8.5123L7.82482 7.72251L7.6709 2.41016L8.29154 2.45716C8.29586 2.46186 8.32307 2.46186 8.34563 2.48066Z" fill="url(#paint13_linear_1158_209)"/>
<path fill-rule="evenodd" clip-rule="evenodd" d="M8.24586 2.49513C8.24586 2.49513 8.27306 2.49513 8.29563 2.51863C8.31819 2.53746 8.32281 2.56567 8.32281 2.56567L9.15179 8.48448L9.21515 8.52211L8.37258 2.53276C8.37258 2.53276 8.36825 2.50455 8.35002 2.48576C8.32746 2.46692 8.29563 2.46692 8.29563 2.46692L7.67529 2.41992L8.24586 2.49513Z" fill="url(#paint14_linear_1158_209)"/>
<path fill-rule="evenodd" clip-rule="evenodd" d="M2.354 8.19283L6.81042 9.05787L7.028 4.15918L2.90819 4.27628L2.354 8.19283Z" fill="url(#paint15_linear_1158_209)"/>
<path opacity="0.3" fill-rule="evenodd" clip-rule="evenodd" d="M3.81659 3.21695C3.77612 3.33122 3.81597 3.45126 3.90624 3.48516C3.99618 3.51903 4.10189 3.45389 4.14268 3.33966C4.18318 3.22541 4.14301 3.10532 4.05305 3.07147C3.96312 3.03757 3.85709 3.10272 3.81659 3.21695Z" fill="white"/>
<path opacity="0.89" fill-rule="evenodd" clip-rule="evenodd" d="M3.81167 3.1623C3.77117 3.27653 3.81136 3.39661 3.9013 3.43049C3.99124 3.46438 4.09726 3.39924 4.13776 3.28499C4.17824 3.17072 4.13838 3.05066 4.04813 3.01678C3.95817 2.98288 3.85246 3.04803 3.81167 3.1623Z" fill="black"/>
<path fill-rule="evenodd" clip-rule="evenodd" d="M7.67569 2.41514L7.21361 1.94032C7.19567 1.9262 7.1728 1.91682 7.15488 1.91211L6.81055 9.05796L7.82961 7.72279L7.67569 2.41514Z" fill="url(#paint16_linear_1158_209)"/>
<path fill-rule="evenodd" clip-rule="evenodd" d="M7.04134 1.91664L3.20095 3.14833C3.20095 3.14833 3.03807 3.19538 2.99726 3.24706C2.99264 3.25177 2.99261 3.25648 2.98828 3.26119L6.86022 2.15169C6.89205 2.14227 6.96901 2.11408 6.96005 2.34444L6.72453 9.04835L6.80614 9.06248L7.15013 1.91664C7.10501 1.90252 7.05495 1.91193 7.04134 1.91664Z" fill="url(#paint17_linear_1158_209)"/>
<path fill-rule="evenodd" clip-rule="evenodd" d="M7.04134 1.91664L3.20095 3.14833C3.20095 3.14833 3.03807 3.19538 2.99726 3.24706C2.99264 3.25177 2.99261 3.25648 2.98828 3.26119L3.88495 3.0026L6.96901 2.01066C6.98261 2.00596 7.03239 1.99655 7.08216 2.00596L6.74247 9.04835L6.80614 9.06248L7.15013 1.91664C7.10501 1.90252 7.05495 1.91193 7.04134 1.91664Z" fill="url(#paint18_linear_1158_209)"/>
<path opacity="0.32" fill-rule="evenodd" clip-rule="evenodd" d="M8.02841 7.84018L7.82441 7.72266L6.80566 9.05778L6.85977 9.04368C6.85977 9.04368 7.75673 7.84488 7.83802 7.80726C7.89704 7.78376 8.02841 7.84018 8.02841 7.84018Z" fill="url(#paint19_linear_1158_209)"/>
<path opacity="0.57" fill-rule="evenodd" clip-rule="evenodd" d="M6.81055 9.05778L7.82961 7.72266C7.82496 7.72734 7.18207 8.45603 6.81055 9.05778Z" fill="url(#paint20_linear_1158_209)"/>
<path opacity="0.46" fill-rule="evenodd" clip-rule="evenodd" d="M9.22874 8.51737L7.8292 7.72754C7.82455 7.72754 7.98776 7.75575 9.22874 8.51737Z" fill="url(#paint21_linear_1158_209)"/>
<path opacity="0.3" fill-rule="evenodd" clip-rule="evenodd" d="M5.88754 2.7482C5.84673 2.86245 5.88692 2.98254 5.97686 3.01643C6.06711 3.05033 6.17284 2.98518 6.21332 2.87095C6.25411 2.75668 6.21394 2.6366 6.12398 2.6027C6.03405 2.56885 5.92802 2.63395 5.88754 2.7482Z" fill="white"/>
<path opacity="0.89" fill-rule="evenodd" clip-rule="evenodd" d="M5.88246 2.69449C5.84198 2.80876 5.88217 2.92884 5.97211 2.96274C6.06207 2.99661 6.16807 2.93149 6.20854 2.81722C6.24904 2.70299 6.20917 2.5829 6.11921 2.54901C6.02896 2.51511 5.92325 2.58026 5.88246 2.69449Z" fill="black"/>
<path fill-rule="evenodd" clip-rule="evenodd" d="M3.97568 3.39289C3.97103 3.39289 3.96207 3.39289 3.95743 3.39289C3.8851 3.38352 3.83535 3.313 3.8443 3.23308C3.85328 3.15785 4.11135 1.39959 5.17122 1C5.43826 0.901269 5.66482 0.920062 5.83697 1.06583C6.0453 1.23977 6.15843 1.58765 6.17666 2.09537C6.19026 2.45266 6.14947 2.76293 6.14947 2.77706C6.14051 2.85227 6.07251 2.9087 5.99989 2.89458C5.92755 2.88516 5.87314 2.81466 5.88674 2.73943C5.92755 2.41977 5.97268 1.54065 5.66945 1.28677C5.57426 1.20686 5.44291 1.19744 5.26643 1.26327C4.35616 1.60644 4.11599 3.25658 4.11599 3.27066C4.09776 3.3412 4.04368 3.39289 3.97568 3.39289Z" fill="#595961"/>
<path opacity="0.46" fill-rule="evenodd" clip-rule="evenodd" d="M5.78236 1.07509C5.6238 0.943475 5.41549 0.924681 5.16636 1.014C4.73611 1.17853 4.37384 1.61103 4.12471 2.2645C3.93928 2.74873 3.87561 3.18594 3.87561 3.20475C3.87128 3.22825 3.88026 3.25175 3.89386 3.27059C3.90744 3.28938 3.92567 3.3035 3.94824 3.3035C3.95257 3.3035 3.95721 3.3035 3.96184 3.3035C4.00263 3.3035 4.0388 3.27059 4.04342 3.22825C4.04776 3.20946 4.28792 1.53112 5.22538 1.17853C5.41549 1.108 5.5694 1.11742 5.67819 1.21145C5.99963 1.47941 5.95453 2.38673 5.91371 2.71111C5.90909 2.75815 5.94092 2.80515 5.98605 2.80986C6.03149 2.81454 6.07661 2.78165 6.08124 2.73465C6.08588 2.6829 6.24444 1.46062 5.78236 1.07509Z" fill="#B2B2C2"/>
<path opacity="0.81" fill-rule="evenodd" clip-rule="evenodd" d="M3.95723 3.25202C3.95259 3.25202 3.95259 3.25202 3.94825 3.25202C3.92106 3.24731 3.90281 3.2191 3.90746 3.19091C3.91209 3.17208 3.97084 2.74429 4.15659 2.26006C4.40571 1.616 4.75898 1.18818 5.17996 1.02833C5.42013 0.939003 5.61486 0.957828 5.76415 1.08006C6.20798 1.45144 6.05406 2.65498 6.04511 2.70666C6.04046 2.73487 6.01792 2.75366 5.98606 2.749C5.95919 2.74429 5.94094 2.72079 5.94094 2.68787C5.94094 2.67377 6.09488 1.49377 5.69646 1.15527C5.57869 1.06594 5.4155 1.05656 5.21646 1.13177C4.26075 1.49377 4.01163 3.19091 4.01163 3.2097C4.007 3.2332 3.98442 3.25202 3.95723 3.25202Z" fill="#B2B2C2"/>
<path opacity="0.42" fill-rule="evenodd" clip-rule="evenodd" d="M4.55516 1.90764C4.60493 1.83714 4.65035 1.76661 4.69549 1.69141C4.67756 1.71491 4.5462 1.95937 4.27451 1.92176C4.26987 1.92176 4.42843 1.97346 4.55516 1.90764Z" fill="#595961"/>
<path opacity="0.42" fill-rule="evenodd" clip-rule="evenodd" d="M4.40133 2.2079C4.44215 2.13265 4.48292 2.05275 4.51446 1.97754C4.50085 2.00575 4.41029 2.25959 4.125 2.25959C4.125 2.25959 4.28358 2.29251 4.40133 2.2079Z" fill="#595961"/>
<path opacity="0.42" fill-rule="evenodd" clip-rule="evenodd" d="M4.28341 2.51809C4.31957 2.43813 4.34678 2.35824 4.37397 2.27832C4.36036 2.30653 4.31061 2.56509 4.01172 2.59799C4.01172 2.59328 4.17459 2.61211 4.28341 2.51809Z" fill="#595961"/>
<path opacity="0.62" fill-rule="evenodd" clip-rule="evenodd" d="M6.09454 1.60171C6.07197 1.51707 6.04939 1.43716 6.01756 1.35254C6.02652 1.38074 6.1171 1.64871 5.93164 1.84145C5.93164 1.84145 6.06733 1.74745 6.09454 1.60171Z" fill="#595961"/>
<path opacity="0.62" fill-rule="evenodd" clip-rule="evenodd" d="M5.91844 1.179C5.85507 1.11788 5.7914 1.06147 5.72803 1.00977C5.7509 1.03326 5.96357 1.20721 5.90484 1.47047C5.90019 1.47047 5.96819 1.31532 5.91844 1.179Z" fill="#595961"/>
<path opacity="0.62" fill-rule="evenodd" clip-rule="evenodd" d="M6.14052 2.03398C6.13588 1.94936 6.12229 1.86004 6.10869 1.77539C6.10869 1.8083 6.15413 2.08569 5.93652 2.23613C5.93652 2.23613 6.08611 2.17029 6.14052 2.03398Z" fill="#595961"/>
<path opacity="0.62" fill-rule="evenodd" clip-rule="evenodd" d="M6.16311 2.47634C6.16773 2.39171 6.16773 2.3024 6.16311 2.21777C6.16311 2.25069 6.16773 2.52807 5.93652 2.65498C5.93652 2.65032 6.09511 2.60327 6.16311 2.47634Z" fill="#595961"/>
<path opacity="0.42" fill-rule="evenodd" clip-rule="evenodd" d="M4.17921 2.86147C4.20642 2.77685 4.22467 2.69224 4.24259 2.6123C4.23363 2.64049 4.19284 2.90847 3.9165 2.9743C3.92115 2.9743 4.08402 2.9696 4.17921 2.86147Z" fill="#595961"/>
<path opacity="0.42" fill-rule="evenodd" clip-rule="evenodd" d="M4.72744 1.6482C4.7908 1.59179 4.84982 1.53067 4.90421 1.46484C4.88136 1.48364 4.70024 1.6764 4.44678 1.60587C4.45111 1.60587 4.59144 1.69052 4.72744 1.6482Z" fill="#595961"/>
<path opacity="0.42" fill-rule="evenodd" clip-rule="evenodd" d="M4.93064 1.43187C5.00326 1.38487 5.07128 1.33784 5.13897 1.28613C5.11207 1.30025 4.90374 1.45537 4.66357 1.34254C4.66357 1.34254 4.7903 1.45066 4.93064 1.43187Z" fill="#595961"/>
<path opacity="0.62" fill-rule="evenodd" clip-rule="evenodd" d="M5.20718 1.27686C5.28878 1.25333 5.36574 1.22513 5.44272 1.19692C5.41551 1.20633 5.17103 1.29095 4.97168 1.1123C4.97168 1.1123 5.06687 1.25333 5.20718 1.27686Z" fill="#595961"/>
<path opacity="0.62" fill-rule="evenodd" clip-rule="evenodd" d="M5.43783 1.19294C5.5015 1.20235 5.56487 1.20706 5.62825 1.21176C5.60569 1.20706 5.41094 1.19294 5.32471 1.00488C5.32933 1.00488 5.35192 1.13182 5.43783 1.19294Z" fill="#595961"/>
<path opacity="0.62" fill-rule="evenodd" clip-rule="evenodd" d="M5.6828 1.29634C5.72361 1.34805 5.76411 1.39975 5.8049 1.44678C5.7913 1.42796 5.66457 1.27284 5.72792 1.08008C5.73257 1.08008 5.66457 1.18822 5.6828 1.29634Z" fill="#595961"/>
<path fill-rule="evenodd" clip-rule="evenodd" d="M5.99561 2.68308C5.99992 2.63137 6.15417 1.44197 5.72392 1.07997C5.64232 1.00947 5.5428 0.976562 5.43401 0.976562C5.3524 0.976562 5.26184 0.995356 5.16665 1.03298C4.75001 1.18812 4.40134 1.60653 4.15686 2.24587C3.97109 2.72541 3.91236 3.15322 3.90771 3.17202C3.90771 3.1861 3.91669 3.20023 3.9303 3.20023H3.93492C3.94853 3.20023 3.95749 3.19081 3.95749 3.17673C3.96213 3.15791 4.20661 1.44197 5.18024 1.07527C5.38855 0.995356 5.56536 1.00947 5.69209 1.11759C6.10409 1.46076 5.95017 2.65958 5.94586 2.6737C5.94586 2.68779 5.95482 2.70191 5.96842 2.70191C5.96842 2.70191 5.9684 2.70191 5.97274 2.70191C5.98634 2.70662 5.99561 2.6972 5.99561 2.68308Z" fill="url(#paint22_linear_1158_209)"/>
<path fill-rule="evenodd" clip-rule="evenodd" d="M6.17632 2.09527C6.15807 1.58755 6.04495 1.24434 5.83664 1.0657C5.72351 0.971696 5.58751 0.929373 5.43359 0.938784C5.55136 0.948167 5.65984 0.99049 5.75072 1.0657C5.95903 1.23967 6.07216 1.58755 6.09007 2.09527C6.10368 2.45256 6.0632 2.76283 6.0632 2.77696C6.05393 2.83335 6.01776 2.87569 5.97232 2.88977C5.98159 2.89448 5.98593 2.89448 5.9952 2.89448C6.06751 2.9039 6.13553 2.85215 6.14449 2.77696C6.14914 2.76283 6.18991 2.45727 6.17632 2.09527Z" fill="url(#paint23_linear_1158_209)"/>
<path fill-rule="evenodd" clip-rule="evenodd" d="M5.17604 1.26314C4.26579 1.60631 4.02562 3.25644 4.02562 3.27525C4.01666 3.33165 3.98018 3.37398 3.93506 3.38806C3.94402 3.39277 3.94866 3.39277 3.95762 3.39277C3.96225 3.39277 3.97123 3.39277 3.97587 3.39277C4.04387 3.39277 4.09795 3.34106 4.10723 3.27525C4.11154 3.25644 4.34708 1.61102 5.25733 1.26781C5.321 1.24431 5.3751 1.23023 5.42518 1.22552C5.35718 1.21611 5.27093 1.23023 5.17604 1.26314Z" fill="url(#paint24_linear_1158_209)"/>
<defs>
<linearGradient id="paint0_linear_1158_209" x1="5.04483" y1="1.23132" x2="4.90279" y2="3.16513" gradientUnits="userSpaceOnUse">
<stop stop-color="white" stop-opacity="0.65"/>
<stop offset="1" stop-color="white" stop-opacity="0.01"/>
</linearGradient>
<linearGradient id="paint1_linear_1158_209" x1="6.0826" y1="2.33801" x2="7.0826" y2="3.21389" gradientUnits="userSpaceOnUse">
<stop stop-opacity="0.01"/>
<stop offset="1" stop-opacity="0.4"/>
</linearGradient>
<linearGradient id="paint2_linear_1158_209" x1="5.68211" y1="3.35177" x2="6.74057" y2="2.36587" gradientUnits="userSpaceOnUse">
<stop stop-opacity="0.01"/>
<stop offset="1" stop-opacity="0.4"/>
</linearGradient>
<linearGradient id="paint3_linear_1158_209" x1="4.33463" y1="0.474817" x2="0.223437" y2="5.21183" gradientUnits="userSpaceOnUse">
<stop stop-color="#B8D26E"/>
<stop offset="1" stop-color="#7FB525"/>
</linearGradient>
<linearGradient id="paint4_linear_1158_209" x1="9.95802" y1="1.66063" x2="7.70173" y2="1.70253" gradientUnits="userSpaceOnUse">
<stop stop-color="#B4E034"/>
<stop offset="1" stop-color="#60A927"/>
</linearGradient>
<linearGradient id="paint5_linear_1158_209" x1="3.2472" y1="4.81943" x2="1.39733" y2="9.32425" gradientUnits="userSpaceOnUse">
<stop stop-color="white"/>
<stop offset="1" stop-color="#CECEEB"/>
</linearGradient>
<linearGradient id="paint6_linear_1158_209" x1="5.89967" y1="15.9134" x2="8.82948" y2="15.9074" gradientUnits="userSpaceOnUse">
<stop stop-color="#1D1D1B" stop-opacity="0.5"/>
<stop offset="0.038033" stop-color="#1D1D1B" stop-opacity="0.4837"/>
<stop offset="0.4243" stop-color="#1D1D1B" stop-opacity="0.3185"/>
<stop offset="1" stop-color="#1D1D1B" stop-opacity="0.01"/>
</linearGradient>
<linearGradient id="paint7_linear_1158_209" x1="6.23988" y1="1.81241" x2="5.75382" y2="2.07401" gradientUnits="userSpaceOnUse">
<stop stop-opacity="0.01"/>
<stop offset="1" stop-opacity="0.4"/>
</linearGradient>
<linearGradient id="paint8_linear_1158_209" x1="4.202" y1="2.58882" x2="3.86032" y2="2.88244" gradientUnits="userSpaceOnUse">
<stop stop-opacity="0.01"/>
<stop offset="1" stop-opacity="0.4"/>
</linearGradient>
<linearGradient id="paint9_linear_1158_209" x1="7.53505" y1="8.52087" x2="7.56965" y2="8.97685" gradientUnits="userSpaceOnUse">
<stop stop-opacity="0.01"/>
<stop offset="1" stop-opacity="0.4"/>
</linearGradient>
<linearGradient id="paint10_linear_1158_209" x1="6.7274" y1="7.85331" x2="6.80761" y2="9.03887" gradientUnits="userSpaceOnUse">
<stop stop-color="white" stop-opacity="0.5"/>
<stop offset="0.0896271" stop-color="white" stop-opacity="0.4552"/>
<stop offset="1" stop-color="white" stop-opacity="0.01"/>
</linearGradient>
<linearGradient id="paint11_linear_1158_209" x1="6.57317" y1="8.03771" x2="6.71584" y2="9.30414" gradientUnits="userSpaceOnUse">
<stop stop-opacity="0.01"/>
<stop offset="1" stop-opacity="0.4"/>
</linearGradient>
<linearGradient id="paint12_linear_1158_209" x1="6.01312" y1="0.7513" x2="2.35441" y2="2.86735" gradientUnits="userSpaceOnUse">
<stop stop-color="white" stop-opacity="0.5"/>
<stop offset="1" stop-color="white" stop-opacity="0.01"/>
</linearGradient>
<linearGradient id="paint13_linear_1158_209" x1="6.71921" y1="11.8103" x2="9.94854" y2="11.8169" gradientUnits="userSpaceOnUse">
<stop stop-color="#1D1D1B" stop-opacity="0.5"/>
<stop offset="0.0896271" stop-color="#1D1D1B" stop-opacity="0.4552"/>
<stop offset="1" stop-color="#1D1D1B" stop-opacity="0.01"/>
</linearGradient>
<linearGradient id="paint14_linear_1158_209" x1="9.03156" y1="2.24178" x2="8.57281" y2="2.35417" gradientUnits="userSpaceOnUse">
<stop stop-color="white" stop-opacity="0.4"/>
<stop offset="1" stop-color="white" stop-opacity="0.01"/>
</linearGradient>
<linearGradient id="paint15_linear_1158_209" x1="4.91602" y1="9.11018" x2="5.15457" y2="7.96014" gradientUnits="userSpaceOnUse">
<stop stop-color="#1D1D1B" stop-opacity="0.5"/>
<stop offset="0.0896271" stop-color="#1D1D1B" stop-opacity="0.4552"/>
<stop offset="1" stop-color="#1D1D1B" stop-opacity="0.01"/>
</linearGradient>
<linearGradient id="paint16_linear_1158_209" x1="6.2953" y1="15.7668" x2="9.23565" y2="15.7694" gradientUnits="userSpaceOnUse">
<stop stop-color="#1D1D1B" stop-opacity="0.5"/>
<stop offset="1" stop-color="#1D1D1B" stop-opacity="0.01"/>
</linearGradient>
<linearGradient id="paint17_linear_1158_209" x1="3.60832" y1="1.50235" x2="2.18226" y2="6.98121" gradientUnits="userSpaceOnUse">
<stop stop-color="white" stop-opacity="0.5"/>
<stop offset="1" stop-color="white" stop-opacity="0.01"/>
</linearGradient>
<linearGradient id="paint18_linear_1158_209" x1="3.60832" y1="1.50235" x2="2.18226" y2="6.98121" gradientUnits="userSpaceOnUse">
<stop stop-color="white" stop-opacity="0.5"/>
<stop offset="1" stop-color="white" stop-opacity="0.01"/>
</linearGradient>
<linearGradient id="paint19_linear_1158_209" x1="7.06871" y1="7.2457" x2="5.94154" y2="8.79709" gradientUnits="userSpaceOnUse">
<stop stop-color="white" stop-opacity="0.5"/>
<stop offset="0.0896271" stop-color="white" stop-opacity="0.4552"/>
<stop offset="1" stop-color="white" stop-opacity="0.01"/>
</linearGradient>
<linearGradient id="paint20_linear_1158_209" x1="7.40926" y1="7.60239" x2="7.29765" y2="7.85255" gradientUnits="userSpaceOnUse">
<stop stop-opacity="0.01"/>
<stop offset="1" stop-opacity="0.4"/>
</linearGradient>
<linearGradient id="paint21_linear_1158_209" x1="8.51567" y1="7.93337" x2="8.51017" y2="8.00062" gradientUnits="userSpaceOnUse">
<stop stop-opacity="0.01"/>
<stop offset="1" stop-opacity="0.4"/>
</linearGradient>
<linearGradient id="paint22_linear_1158_209" x1="4.45728" y1="0.81831" x2="3.97001" y2="2.74331" gradientUnits="userSpaceOnUse">
<stop stop-color="white" stop-opacity="0.65"/>
<stop offset="1" stop-color="white" stop-opacity="0.01"/>
</linearGradient>
<linearGradient id="paint23_linear_1158_209" x1="5.54734" y1="1.9286" x2="6.39499" y2="2.79038" gradientUnits="userSpaceOnUse">
<stop stop-opacity="0.01"/>
<stop offset="1" stop-opacity="0.4"/>
</linearGradient>
<linearGradient id="paint24_linear_1158_209" x1="5.00606" y1="3.19765" x2="6.1772" y2="1.99487" gradientUnits="userSpaceOnUse">
<stop stop-opacity="0.01"/>
<stop offset="1" stop-opacity="0.4"/>
</linearGradient>
</defs>
</svg>
