<svg width="11" height="10" viewBox="0 0 11 10" fill="none" xmlns="http://www.w3.org/2000/svg">
<path d="M3.58247 1.25C3.62641 1.25 7.66353 1.25 7.73676 1.25C7.93891 1.25 8.1352 1.28223 8.32564 1.34961C8.60103 1.44922 8.85005 1.625 9.03755 1.85352C9.22797 2.08203 9.35395 2.36329 9.39791 2.65625C9.41547 2.76465 9.41841 2.87304 9.41841 2.98144C9.41841 3.08106 9.41841 6.59081 9.41841 6.74902C9.41841 6.84277 9.41841 6.93946 9.41841 7.03321C9.41841 7.1621 9.41255 7.29394 9.38618 7.41992C9.3276 7.70996 9.18989 7.98242 8.99068 8.20215C8.79439 8.42187 8.53657 8.58594 8.25824 8.67383C8.08832 8.72656 7.91255 8.75 7.73385 8.75C7.65474 8.75 3.57074 8.75 3.50922 8.74706C3.21041 8.73242 2.91449 8.63575 2.66548 8.46875C2.42231 8.30469 2.2231 8.07617 2.09419 7.8125C1.98286 7.58692 1.9272 7.33496 1.9272 7.083C1.9272 7.02442 1.9272 2.97558 1.9272 2.917C1.92134 2.66798 1.97407 2.42187 2.08247 2.19923C2.20845 1.93555 2.40474 1.7041 2.6479 1.54004C2.89693 1.37012 3.18989 1.27051 3.48872 1.25586C3.51801 1.25 3.55024 1.25 3.58247 1.25Z" fill="url(#paint0_linear_1158_268)"/>
<path d="M8.24317 7.38477C8.21679 7.34375 8.1875 7.30273 8.15527 7.26465C8.08204 7.17675 7.99706 7.10058 7.90331 7.03612C7.78612 6.95702 7.64844 6.90723 7.50781 6.90137C7.40821 6.8955 7.30858 6.91308 7.21483 6.94825C7.12108 6.98048 7.03027 7.02735 6.94237 7.07423C6.83985 7.12696 6.73731 7.17969 6.6289 7.22363C6.5 7.27638 6.36523 7.31737 6.22754 7.34669C6.05469 7.37892 5.8789 7.39062 5.70606 7.38769C5.39258 7.38183 5.0791 7.33496 4.78027 7.24706C4.5166 7.16796 4.26465 7.05956 4.02733 6.92187C3.81933 6.80175 3.62598 6.66406 3.44433 6.50879C3.29492 6.37988 3.15723 6.24219 3.02831 6.09571C2.94044 5.99317 2.85546 5.88477 2.77637 5.77344C2.74414 5.7295 2.71484 5.68262 2.68848 5.63575L1.91504 4.80077V2.91112C1.91504 1.99414 2.65625 1.25 3.57325 1.25H5.05273L6.14844 2.36329C8.6211 4.04492 7.82129 5.89942 7.82129 5.89942C7.82129 5.89942 8.52442 6.69044 8.24317 7.38477Z" fill="url(#paint1_linear_1158_268)"/>
<path d="M6.15429 2.36328C8.62696 4.04491 7.82715 5.89941 7.82715 5.89941C7.82715 5.89941 8.53027 6.69334 8.24609 7.38768C8.24609 7.38768 7.95606 6.90136 7.46973 6.90136C7.00098 6.90136 6.72558 7.38768 5.78223 7.38768C3.68165 7.38768 2.68848 5.6328 2.68848 5.6328C4.58106 6.87793 5.87304 5.99607 5.87304 5.99607C5.0205 5.50097 3.20702 3.13378 3.20702 3.13378C4.78613 4.47851 5.46875 4.83299 5.46875 4.83299C5.06152 4.49609 3.91894 2.84959 3.91894 2.84959C4.833 3.77539 6.64942 5.06736 6.64942 5.06736C7.16504 3.63768 6.15429 2.36328 6.15429 2.36328Z" fill="white"/>
<defs>
<linearGradient id="paint0_linear_1158_268" x1="6.3771" y1="0.982379" x2="4.9601" y2="9.01854" gradientUnits="userSpaceOnUse">
<stop stop-color="#FAAE42"/>
<stop offset="1" stop-color="#EF3E31"/>
</linearGradient>
<linearGradient id="paint1_linear_1158_268" x1="5.74156" y1="1.37118" x2="4.70448" y2="7.25271" gradientUnits="userSpaceOnUse">
<stop stop-color="#E39F3A"/>
<stop offset="1" stop-color="#D33929"/>
</linearGradient>
</defs>
</svg>
