<svg width="11" height="10" viewBox="0 0 11 10" fill="none" xmlns="http://www.w3.org/2000/svg">
<path d="M5.66699 8.75C7.73806 8.75 9.41699 7.07107 9.41699 5C9.41699 2.92893 7.73806 1.25 5.66699 1.25C3.59592 1.25 1.91699 2.92893 1.91699 5C1.91699 7.07107 3.59592 8.75 5.66699 8.75Z" fill="#028CB0"/>
<path d="M3.11053 5.00014C3.11053 6.01325 3.69982 6.88585 4.55203 7.30062L3.33266 3.95983C3.18624 4.2871 3.11055 4.6416 3.11053 5.00014ZM5.66714 7.55673C5.96403 7.55673 6.24962 7.5046 6.51705 7.41169L6.49893 7.37769L5.71247 5.22452L4.94639 7.45248C5.17303 7.52048 5.41555 7.55673 5.66714 7.55673ZM6.01843 3.80116L6.94316 6.55042L7.19928 5.69821C7.30807 5.34464 7.39193 5.09079 7.39193 4.87096C7.39193 4.55364 7.27859 4.33606 7.18341 4.16833C7.05195 3.95529 6.93182 3.77625 6.93182 3.56773C6.93182 3.332 7.10862 3.11444 7.36247 3.11444H7.3942C6.92312 2.68196 6.30662 2.44248 5.66714 2.44354C5.24372 2.44348 4.82691 2.54864 4.45422 2.74962C4.08155 2.9506 3.76466 3.24108 3.53209 3.59491L3.69528 3.59946C3.96274 3.59946 4.37524 3.56546 4.37524 3.56546C4.51576 3.55867 4.53162 3.76037 4.39337 3.77625C4.39337 3.77625 4.25512 3.79437 4.09872 3.80116L5.03251 6.57081L5.59234 4.89362L5.19343 3.80116C5.10409 3.79625 5.01491 3.78869 4.92599 3.7785C4.78774 3.76944 4.80359 3.55867 4.94187 3.56546C4.94187 3.56546 5.36343 3.59946 5.61501 3.59946C5.88245 3.59946 6.29495 3.56546 6.29495 3.56546C6.4332 3.55867 6.45134 3.76037 6.31307 3.77625C6.31307 3.77625 6.17482 3.7921 6.01843 3.80116ZM6.95222 7.20996C7.33899 6.98508 7.65997 6.66264 7.8831 6.27485C8.10622 5.88708 8.22368 5.44754 8.22372 5.00014C8.22372 4.55591 8.11041 4.13887 7.91095 3.77398C7.95145 4.17544 7.89068 4.58064 7.73416 4.95254L6.95222 7.20996ZM5.66714 7.94656C4.8857 7.94656 4.13626 7.63614 3.5837 7.08358C3.03114 6.53102 2.7207 5.78158 2.7207 5.00014C2.7207 4.21871 3.03114 3.46927 3.5837 2.91671C4.13626 2.36414 4.8857 2.05371 5.66714 2.05371C6.44857 2.05371 7.19801 2.36414 7.75057 2.91671C8.30314 3.46927 8.61355 4.21871 8.61355 5.00014C8.61355 5.78158 8.30314 6.53102 7.75057 7.08358C7.19801 7.63614 6.44857 7.94656 5.66714 7.94656Z" fill="white"/>
</svg>
