<svg width="100" height="100" viewBox="0 0 100 100" fill="none" xmlns="http://www.w3.org/2000/svg">
<g filter="url(#filter0_d_337_5344)">
<circle cx="46" cy="40" r="30" fill="#20CDEB"/>
</g>
<path d="M55.5953 27.8125H53.9688V26.1812C53.9688 25.5297 53.4391 25 52.7875 25H32.1812C31.5297 25 31 25.5297 31 26.1812V51.475C31 52.1266 31.5297 52.6562 32.1812 52.6562H33.8078V53.8188C33.8078 54.4703 34.3375 55 34.9891 55H55.5953C56.2469 55 56.7766 54.4703 56.7766 53.8188V28.9891C56.7766 28.3422 56.2469 27.8125 55.5953 27.8125ZM32.1812 51.7188C32.0453 51.7188 31.9375 51.6109 31.9375 51.475V26.1812C31.9375 26.0453 32.0453 25.9375 32.1812 25.9375H52.7875C52.9234 25.9375 53.0312 26.0453 53.0312 26.1812V27.8125H34.9891C34.3375 27.8125 33.8078 28.3422 33.8078 28.9891V51.7188H32.1812ZM55.8391 53.8188C55.8391 53.9547 55.7313 54.0625 55.5953 54.0625H34.9891C34.8531 54.0625 34.7453 53.9547 34.7453 53.8188V28.9891C34.7453 28.8578 34.8531 28.75 34.9891 28.75H55.5953C55.7313 28.75 55.8391 28.8578 55.8391 28.9891V53.8188Z" fill="white"/>
<path d="M53.9688 31.5625H36.625C36.3672 31.5625 36.1562 31.7734 36.1562 32.0312C36.1562 32.2891 36.3672 32.5 36.625 32.5H53.9688C54.2266 32.5 54.4375 32.2891 54.4375 32.0312C54.4375 31.7734 54.2313 31.5625 53.9688 31.5625Z" fill="white"/>
<path d="M53.9688 35.3125H36.625C36.3672 35.3125 36.1562 35.5234 36.1562 35.7812C36.1562 36.0391 36.3672 36.25 36.625 36.25H53.9688C54.2266 36.25 54.4375 36.0391 54.4375 35.7812C54.4375 35.5234 54.2313 35.3125 53.9688 35.3125Z" fill="white"/>
<path d="M53.9688 39.0625H36.625C36.3672 39.0625 36.1562 39.2734 36.1562 39.5312C36.1562 39.7891 36.3672 40 36.625 40H53.9688C54.2266 40 54.4375 39.7891 54.4375 39.5312C54.4375 39.2734 54.2313 39.0625 53.9688 39.0625Z" fill="white"/>
<path d="M53.9688 42.8125H36.625C36.3672 42.8125 36.1562 43.0234 36.1562 43.2812C36.1562 43.5391 36.3672 43.75 36.625 43.75H53.9688C54.2266 43.75 54.4375 43.5391 54.4375 43.2812C54.4375 43.0234 54.2313 42.8125 53.9688 42.8125Z" fill="white"/>
<path d="M41.3125 46.0938H36.625C36.3672 46.0938 36.1562 46.3047 36.1562 46.5625C36.1562 46.8203 36.3672 47.0312 36.625 47.0312H41.3125C41.5703 47.0312 41.7812 46.8203 41.7812 46.5625C41.7812 46.3047 41.575 46.0938 41.3125 46.0938Z" fill="white"/>
<path d="M41.3125 49.8438H36.625C36.3672 49.8438 36.1562 50.0547 36.1562 50.3125C36.1562 50.5703 36.3672 50.7812 36.625 50.7812H41.3125C41.5703 50.7812 41.7812 50.5703 41.7812 50.3125C41.7812 50.0547 41.575 49.8438 41.3125 49.8438Z" fill="white"/>
<path d="M53.9688 46.0938H49.2812C49.0234 46.0938 48.8125 46.3047 48.8125 46.5625C48.8125 46.8203 49.0234 47.0312 49.2812 47.0312H53.9688C54.2266 47.0312 54.4375 46.8203 54.4375 46.5625C54.4375 46.3047 54.2312 46.0938 53.9688 46.0938Z" fill="white"/>
<path d="M53.9688 49.8438H49.2812C49.0234 49.8438 48.8125 50.0547 48.8125 50.3125C48.8125 50.5703 49.0234 50.7812 49.2812 50.7812H53.9688C54.2266 50.7812 54.4375 50.5703 54.4375 50.3125C54.4375 50.0547 54.2312 49.8438 53.9688 49.8438Z" fill="white"/>
<path d="M61 51.7188V34.1406C61 33.2359 60.2641 32.5 59.3594 32.5C58.4547 32.5 57.7188 33.2359 57.7188 34.1406V51.7141C57.7188 51.7516 57.7328 51.7844 57.7422 51.8219C57.7469 51.8453 57.7469 51.8687 57.7563 51.8922L58.9281 54.7C58.9984 54.8828 59.1719 55 59.3594 55C59.5469 55 59.7203 54.8875 59.7906 54.7094L60.9625 51.9016C60.9625 51.9016 60.9625 51.9016 60.9625 51.8969C60.9719 51.8734 60.9719 51.85 60.9766 51.8266C60.9859 51.7937 61 51.7563 61 51.7188ZM58.6562 36.7234H60.0625V51.25H58.6562V36.7234ZM59.3594 33.4375C59.7484 33.4375 60.0625 33.7516 60.0625 34.1406V35.7859H58.6562V34.1406C58.6562 33.7516 58.9703 33.4375 59.3594 33.4375ZM59.3594 53.3125L58.8906 52.1875H59.8281L59.3594 53.3125Z" fill="white"/>
<defs>
<filter id="filter0_d_337_5344" x="0" y="0" width="100" height="100" filterUnits="userSpaceOnUse" color-interpolation-filters="sRGB">
<feFlood flood-opacity="0" result="BackgroundImageFix"/>
<feColorMatrix in="SourceAlpha" type="matrix" values="0 0 0 0 0 0 0 0 0 0 0 0 0 0 0 0 0 0 127 0" result="hardAlpha"/>
<feOffset dx="4" dy="10"/>
<feGaussianBlur stdDeviation="10"/>
<feComposite in2="hardAlpha" operator="out"/>
<feColorMatrix type="matrix" values="0 0 0 0 0.862745 0 0 0 0 0.054902 0 0 0 0 0.054902 0 0 0 0.2 0"/>
<feBlend mode="normal" in2="BackgroundImageFix" result="effect1_dropShadow_337_5344"/>
<feBlend mode="normal" in="SourceGraphic" in2="effect1_dropShadow_337_5344" result="shape"/>
</filter>
</defs>
</svg>
