<svg width="100" height="100" viewBox="0 0 100 100" fill="none" xmlns="http://www.w3.org/2000/svg">
<g filter="url(#filter0_d_337_5398)">
<circle cx="46" cy="40" r="30" fill="#DC0E0E"/>
</g>
<path fill-rule="evenodd" clip-rule="evenodd" d="M37.0814 27C34.8285 27 33 28.8285 33 31.0814C33 32.1162 33.5551 33.3067 34.2734 34.3427C35.2366 35.7329 36.4422 36.8456 36.4422 36.8456C36.8039 37.1784 37.3589 37.1784 37.7206 36.8456C37.7206 36.8456 38.9262 35.7329 39.8894 34.3427C40.6077 33.3067 41.1628 32.1162 41.1628 31.0814C41.1628 28.8285 39.3343 27 37.0814 27ZM37.0814 28.8837C38.2945 28.8837 39.2791 29.8683 39.2791 31.0814C39.2791 31.7847 38.8295 32.5645 38.3422 33.269C37.9215 33.8743 37.4493 34.4193 37.0814 34.8149C36.7134 34.4206 36.2413 33.8743 35.8206 33.269C35.3333 32.5645 34.8837 31.7847 34.8837 31.0814C34.8837 29.8683 35.8683 28.8837 37.0814 28.8837Z" fill="white"/>
<path fill-rule="evenodd" clip-rule="evenodd" d="M55.9186 41.394C53.6656 41.394 51.8372 43.2225 51.8372 45.4754C51.8372 46.5102 52.3922 47.7007 53.1106 48.7355C54.0738 50.1257 55.2793 51.2384 55.2793 51.2384C55.641 51.5712 56.1961 51.5712 56.5578 51.2384C56.5578 51.2384 57.7633 50.1257 58.7266 48.7355C59.4449 47.7007 59.9999 46.5102 59.9999 45.4754C59.9999 43.2225 58.1715 41.394 55.9186 41.394ZM55.9186 43.2778C57.1317 43.2778 58.1162 44.2623 58.1162 45.4754C58.1162 46.1787 57.6666 46.9586 57.1794 47.6618C56.7587 48.2684 56.2865 48.8134 55.9186 49.209C55.5506 48.8134 55.0784 48.2684 54.6577 47.6618C54.1705 46.9586 53.7209 46.1787 53.7209 45.4754C53.7209 44.2623 54.7054 43.2778 55.9186 43.2778Z" fill="white"/>
<path fill-rule="evenodd" clip-rule="evenodd" d="M46.814 42.3836C46.814 42.9663 46.5829 43.5252 46.1697 43.9371C45.7578 44.3502 45.199 44.5813 44.6163 44.5813C43.2537 44.5813 39.1359 44.5813 37.7093 44.5813C36.4598 44.5813 35.263 45.0774 34.3789 45.9602C33.496 46.8443 33 48.0411 33 49.2906C33 50.5402 33.496 51.7369 34.3789 52.621C35.263 53.5039 36.4598 53.9999 37.7093 53.9999H55.9186C56.4385 53.9999 56.8605 53.578 56.8605 53.0581C56.8605 52.5382 56.4385 52.1162 55.9186 52.1162H37.7093C36.9596 52.1162 36.2413 51.8186 35.7113 51.2886C35.1813 50.7587 34.8837 50.0403 34.8837 49.2906C34.8837 48.5409 35.1813 47.8226 35.7113 47.2926C36.2413 46.7627 36.9596 46.465 37.7093 46.465H44.6163C45.6988 46.465 46.7373 46.0355 47.5021 45.2695C48.2682 44.5047 48.6977 43.4662 48.6977 42.3836C48.6977 41.3011 48.2682 40.2626 47.5021 39.4978C46.7373 38.7317 45.6988 38.3022 44.6163 38.3022C42.3156 38.3022 37.0814 38.3022 37.0814 38.3022C36.5615 38.3022 36.1395 38.7242 36.1395 39.2441C36.1395 39.764 36.5615 40.186 37.0814 40.186H44.6163C45.199 40.186 45.7578 40.417 46.1697 40.8302C46.5829 41.2421 46.814 41.8009 46.814 42.3836Z" fill="white"/>
<defs>
<filter id="filter0_d_337_5398" x="0" y="0" width="100" height="100" filterUnits="userSpaceOnUse" color-interpolation-filters="sRGB">
<feFlood flood-opacity="0" result="BackgroundImageFix"/>
<feColorMatrix in="SourceAlpha" type="matrix" values="0 0 0 0 0 0 0 0 0 0 0 0 0 0 0 0 0 0 127 0" result="hardAlpha"/>
<feOffset dx="4" dy="10"/>
<feGaussianBlur stdDeviation="10"/>
<feComposite in2="hardAlpha" operator="out"/>
<feColorMatrix type="matrix" values="0 0 0 0 0.862745 0 0 0 0 0.054902 0 0 0 0 0.054902 0 0 0 0.2 0"/>
<feBlend mode="normal" in2="BackgroundImageFix" result="effect1_dropShadow_337_5398"/>
<feBlend mode="normal" in="SourceGraphic" in2="effect1_dropShadow_337_5398" result="shape"/>
</filter>
</defs>
</svg>
