<svg width="125" height="80" viewBox="0 0 125 80" fill="none" xmlns="http://www.w3.org/2000/svg">
<path d="M45.6367 19.2563C43.7975 19.2563 42.2391 18.8983 40.9614 18.1821C39.6919 17.466 38.7235 16.4731 38.0562 15.2036C37.3888 13.9259 37.0552 12.4489 37.0552 10.7725V9.9668C37.0552 8.20085 37.3848 6.64242 38.0439 5.2915C38.7031 3.94059 39.6593 2.88265 40.9126 2.11768C42.1659 1.3527 43.6795 0.970215 45.4536 0.970215C46.6662 0.970215 47.8828 1.15739 49.1035 1.53174C50.3242 1.89795 51.3984 2.47982 52.3262 3.27734V7.43994H49.2744L48.6274 5.18164C48.3507 4.89681 47.9561 4.66081 47.4434 4.47363C46.9388 4.28646 46.3691 4.19287 45.7344 4.19287C44.7578 4.19287 43.9399 4.43701 43.2808 4.92529C42.6216 5.40544 42.1252 6.07682 41.7915 6.93945C41.466 7.80208 41.3032 8.80306 41.3032 9.94238V10.7725C41.3032 11.8467 41.4741 12.7785 41.8159 13.5679C42.1659 14.3573 42.6745 14.9676 43.3418 15.3989C44.0091 15.8302 44.8311 16.0459 45.8076 16.0459C46.3203 16.0459 46.8289 15.993 47.3335 15.8872C47.8381 15.7814 48.2327 15.6634 48.5176 15.5332V13.2383L46.5156 12.9941V10.04H52.8145V17.4131C51.8542 18.0316 50.7677 18.4954 49.5552 18.8047C48.3507 19.1058 47.0446 19.2563 45.6367 19.2563ZM54.9316 19V16.4976L56.7749 16.1069V4.13184L54.9316 3.74121V1.22656H69.1284V6.35352H65.8936L65.7959 4.52246H61.0596V8.17236H66.7358V11.4561H61.0596V15.6919H66.0278L66.1255 13.7754H69.3237V19H54.9316ZM75.8354 19V16.4976L77.6909 16.1069V4.54688H74.9443L74.8345 6.46338H71.5996V1.22656H88.1157V6.46338H84.8442L84.7466 4.54688H81.9756V16.1069L83.8311 16.4976V19H75.8354ZM7.49463 49L1.92822 33.9365L0.243652 33.7412V31.2266H8.21484V33.7412L6.62793 33.9854L9.81396 43.9707L9.98486 44.6665H10.0581L10.2168 44.0073L13.3052 33.9854L11.4009 33.7412V31.2266H18.8472V33.7412L17.1138 33.9365L12.1333 49H7.49463ZM20.2441 49V46.4976L22.0874 46.1069V34.1318L20.2441 33.7412V31.2266H34.4409V36.3535H31.2061L31.1084 34.5225H26.3721V38.1724H32.0483V41.4561H26.3721V45.6919H31.3403L31.438 43.7754H34.6362V49H20.2441ZM36.9854 49V46.4976L38.8286 46.1069V34.1318L36.9854 33.7412V31.2144H45.7256C47.1335 31.2144 48.3542 31.4382 49.3877 31.8857C50.4212 32.3333 51.2188 32.9722 51.7803 33.8022C52.3418 34.6242 52.6226 35.6007 52.6226 36.7319C52.6226 37.7736 52.3377 38.742 51.7681 39.6372C51.2065 40.5324 50.4334 41.2526 49.4487 41.7979C48.464 42.335 47.341 42.5994 46.0796 42.5913L43.1133 42.5547V46.1069L44.9565 46.4976V49H36.9854ZM48.2402 49L45.8477 42.0664L49.5708 40.7969L51.7314 46.0825L53.416 46.5098V49H48.2402ZM43.1133 39.271H45.7744C46.6045 39.271 47.2433 39.0798 47.6909 38.6973C48.1385 38.3066 48.3623 37.7451 48.3623 37.0127C48.3623 36.2559 48.1344 35.6496 47.6787 35.1938C47.223 34.73 46.5719 34.498 45.7256 34.498H43.1133V39.271ZM55.0938 49V46.4976L56.937 46.1069V34.1318L55.0938 33.7412V31.2266H63.0527V33.7412L61.2095 34.1318V46.1069L63.0527 46.4976V49H55.0938ZM64.7793 49V46.4976L66.6226 46.1069V34.1318L64.7793 33.7412V31.2266H79.4155V36.4634H76.1807L76.0952 34.5225H70.9072V38.6362H76.9497V41.9077H70.9072V46.1069L72.7505 46.4976V49H64.7793ZM81.0566 49V46.4976L82.8999 46.1069V34.1318L81.0566 33.7412V31.2266H89.0156V33.7412L87.1724 34.1318V46.1069L89.0156 46.4976V49H81.0566ZM90.7422 49V46.4976L92.5854 46.1069V34.1318L90.7422 33.7412V31.2266H104.939V36.3535H101.704L101.606 34.5225H96.8701V38.1724H102.546V41.4561H96.8701V45.6919H101.838L101.936 43.7754H105.134V49H90.7422ZM107.483 49V46.4976L109.351 46.0459V34.2051L107.483 33.7412V31.2266H109.351H115.809C117.412 31.2266 118.832 31.6009 120.069 32.3496C121.306 33.0902 122.274 34.1196 122.974 35.438C123.674 36.7482 124.024 38.2619 124.024 39.979V40.2598C124.024 41.9769 123.674 43.4946 122.974 44.813C122.274 46.1232 121.306 47.1486 120.069 47.8892C118.832 48.6297 117.412 49 115.809 49H107.483ZM113.636 45.7529H115.589C116.492 45.7529 117.249 45.5251 117.859 45.0693C118.47 44.6136 118.93 43.9748 119.239 43.1528C119.556 42.3228 119.715 41.3584 119.715 40.2598V39.9668C119.715 38.8682 119.556 37.9079 119.239 37.0859C118.93 36.264 118.47 35.6252 117.859 35.1694C117.249 34.7137 116.492 34.4858 115.589 34.4858H113.636V45.7529ZM6.13623 79V76.4976L7.38135 76.3145L12.6792 61.2266H17.3179L22.6279 76.3145L23.873 76.4976V79H17.2324V76.4976L18.3921 76.2778L17.855 74.3491H12.1421L11.6294 76.2778L12.7891 76.4976V79H6.13623ZM13.0454 71.3462H16.9395L15.2061 65.9629L15.0107 65.3403H14.9375L14.73 66.0239L13.0454 71.3462ZM25.4043 79V76.4976L27.2476 76.1069V64.1318L25.4043 63.7412V61.2144H34.1445C35.5524 61.2144 36.7731 61.4382 37.8066 61.8857C38.8402 62.3333 39.6377 62.9722 40.1992 63.8022C40.7607 64.6242 41.0415 65.6007 41.0415 66.7319C41.0415 67.7736 40.7567 68.742 40.187 69.6372C39.6255 70.5324 38.8524 71.2526 37.8677 71.7979C36.883 72.335 35.7599 72.5994 34.4985 72.5913L31.5322 72.5547V76.1069L33.3755 76.4976V79H25.4043ZM36.6592 79L34.2666 72.0664L37.9897 70.7969L40.1504 76.0825L41.835 76.5098V79H36.6592ZM31.5322 69.271H34.1934C35.0234 69.271 35.6623 69.0798 36.1099 68.6973C36.5575 68.3066 36.7812 67.7451 36.7812 67.0127C36.7812 66.2559 36.5534 65.6496 36.0977 65.1938C35.6419 64.73 34.9909 64.498 34.1445 64.498H31.5322V69.271ZM47.0649 79V76.4976L48.9204 76.1069V64.5469H46.1738L46.064 66.4634H42.8291V61.2266H59.3452V66.4634H56.0737L55.9761 64.5469H53.2051V76.1069L55.0605 76.4976V79H47.0649ZM60.7422 79V76.4976L62.5854 76.1069V64.1318L60.7422 63.7412V61.2266H68.7012V63.7412L66.8579 64.1318V76.1069L68.7012 76.4976V79H60.7422ZM78.2036 79.2563C76.755 79.2563 75.4692 79.118 74.3462 78.8413C73.2231 78.5646 72.1042 78.0438 70.9893 77.2788V72.6646H74.2974L74.6636 75.0327C74.924 75.3257 75.3838 75.5739 76.043 75.7773C76.7021 75.9727 77.4224 76.0703 78.2036 76.0703C78.7489 76.0703 79.2046 76.0052 79.5708 75.875C79.937 75.7367 80.2137 75.5373 80.4009 75.2769C80.5881 75.0164 80.6816 74.7031 80.6816 74.3369C80.6816 73.987 80.5921 73.6737 80.4131 73.397C80.2422 73.1203 79.9574 72.8599 79.5586 72.6157C79.1598 72.3634 78.6227 72.1071 77.9473 71.8467C76.4255 71.3584 75.1763 70.862 74.1997 70.3574C73.2231 69.8529 72.4948 69.2547 72.0146 68.563C71.5426 67.8713 71.3066 67.0127 71.3066 65.9873C71.3066 65.0026 71.5874 64.144 72.1489 63.4116C72.7104 62.6711 73.4836 62.0892 74.4683 61.666C75.453 61.2428 76.5801 61.019 77.8496 60.9946C79.2982 60.9621 80.5799 61.1086 81.6948 61.4341C82.8097 61.7515 83.7944 62.2357 84.6489 62.8867V67.1714H81.4751L80.9746 64.791C80.6979 64.6527 80.3032 64.5265 79.7905 64.4126C79.2778 64.2987 78.7326 64.2417 78.1548 64.2417C77.6584 64.2417 77.2148 64.3068 76.8242 64.437C76.4417 64.5672 76.1366 64.7625 75.9087 65.0229C75.689 65.2834 75.5791 65.6089 75.5791 65.9995C75.5791 66.3169 75.6727 66.6017 75.8599 66.854C76.047 67.0981 76.3766 67.3464 76.8486 67.5986C77.3206 67.8428 77.9798 68.1276 78.8262 68.4531C80.8444 69.0472 82.3743 69.7918 83.416 70.687C84.4658 71.5741 84.9907 72.7826 84.9907 74.3125C84.9907 75.3623 84.7059 76.2575 84.1362 76.998C83.5666 77.7305 82.7731 78.292 81.7559 78.6826C80.7386 79.0651 79.5545 79.2563 78.2036 79.2563ZM90.6235 79V76.4976L92.479 76.1069V64.5469H89.7324L89.6226 66.4634H86.3877V61.2266H102.904V66.4634H99.6323L99.5347 64.5469H96.7637V76.1069L98.6191 76.4976V79H90.6235ZM111.881 79.2563C110.433 79.2563 109.147 79.118 108.024 78.8413C106.901 78.5646 105.782 78.0438 104.667 77.2788V72.6646H107.975L108.341 75.0327C108.602 75.3257 109.062 75.5739 109.721 75.7773C110.38 75.9727 111.1 76.0703 111.881 76.0703C112.427 76.0703 112.882 76.0052 113.249 75.875C113.615 75.7367 113.891 75.5373 114.079 75.2769C114.266 75.0164 114.359 74.7031 114.359 74.3369C114.359 73.987 114.27 73.6737 114.091 73.397C113.92 73.1203 113.635 72.8599 113.236 72.6157C112.838 72.3634 112.3 72.1071 111.625 71.8467C110.103 71.3584 108.854 70.862 107.877 70.3574C106.901 69.8529 106.173 69.2547 105.692 68.563C105.22 67.8713 104.984 67.0127 104.984 65.9873C104.984 65.0026 105.265 64.144 105.827 63.4116C106.388 62.6711 107.161 62.0892 108.146 61.666C109.131 61.2428 110.258 61.019 111.527 60.9946C112.976 60.9621 114.258 61.1086 115.373 61.4341C116.487 61.7515 117.472 62.2357 118.327 62.8867V67.1714H115.153L114.652 64.791C114.376 64.6527 113.981 64.5265 113.468 64.4126C112.956 64.2987 112.41 64.2417 111.833 64.2417C111.336 64.2417 110.893 64.3068 110.502 64.437C110.119 64.5672 109.814 64.7625 109.586 65.0229C109.367 65.2834 109.257 65.6089 109.257 65.9995C109.257 66.3169 109.35 66.6017 109.538 66.854C109.725 67.0981 110.054 67.3464 110.526 67.5986C110.998 67.8428 111.658 68.1276 112.504 68.4531C114.522 69.0472 116.052 69.7918 117.094 70.687C118.144 71.5741 118.668 72.7826 118.668 74.3125C118.668 75.3623 118.384 76.2575 117.814 76.998C117.244 77.7305 116.451 78.292 115.434 78.6826C114.416 79.0651 113.232 79.2563 111.881 79.2563Z" fill="url(#paint0_linear_465_756)"/>
<defs>
<linearGradient id="paint0_linear_465_756" x1="62.5" y1="-6" x2="62.5" y2="79" gradientUnits="userSpaceOnUse">
<stop stop-color="#FFEDC3"/>
</linearGradient>
</defs>
</svg>
