<svg width="224" height="224" viewBox="0 0 224 224" fill="none" xmlns="http://www.w3.org/2000/svg">
<path d="M108.61 6.10597C110.087 3.4454 113.913 3.4454 115.39 6.10597C116.763 8.57874 120.236 8.79724 121.908 6.51606C123.708 4.06162 127.503 4.54116 128.636 7.36591C129.688 9.99126 133.106 10.6433 135.051 8.58968C137.143 6.38009 140.849 7.33161 141.619 10.276C142.334 13.0125 145.643 14.0878 147.83 12.2941C150.183 10.3642 153.74 11.7727 154.134 14.7903C154.501 17.5949 157.649 19.0765 160.044 17.571C162.62 15.9513 165.973 17.7945 165.986 20.8377C165.998 23.666 168.936 25.5306 171.5 24.3371C174.259 23.053 177.354 25.302 176.986 28.3227C176.643 31.1303 179.324 33.3484 182.018 32.4857C184.916 31.5575 187.705 34.1767 186.961 37.1274C186.269 39.8699 188.651 42.4066 191.432 41.8883C194.423 41.3306 196.862 44.2787 195.754 47.1129C194.724 49.7471 196.769 52.5623 199.593 52.3966C202.631 52.2183 204.681 55.4488 203.226 58.1217C201.874 60.606 203.55 63.6553 206.372 63.8448C209.409 64.0487 211.038 67.5107 209.259 69.9802C207.607 72.2754 208.887 75.5108 211.664 76.0525C214.65 76.6353 215.833 80.2742 213.759 82.5014C211.831 84.5713 212.697 87.9418 215.383 88.8271C218.273 89.7797 218.99 93.5381 216.654 95.4877C214.482 97.2998 214.918 100.752 217.472 101.967C220.22 103.275 220.461 107.093 217.898 108.735C215.516 110.26 215.516 113.74 217.898 115.265C220.461 116.907 220.22 120.726 217.472 122.033C214.918 123.248 214.482 126.7 216.654 128.512C218.99 130.462 218.273 134.22 215.383 135.173C212.697 136.058 211.831 139.429 213.759 141.499C215.833 143.726 214.65 147.365 211.664 147.947C208.887 148.489 207.607 151.725 209.259 154.02C211.038 156.489 209.409 159.951 206.372 160.155C203.55 160.345 201.874 163.394 203.226 165.878C204.681 168.551 202.631 171.782 199.593 171.603C196.769 171.438 194.724 174.253 195.754 176.887C196.862 179.721 194.423 182.669 191.432 182.112C188.651 181.593 186.269 184.13 186.961 186.873C187.705 189.823 184.916 192.442 182.018 191.514C179.324 190.652 176.643 192.87 176.986 195.677C177.354 198.698 174.259 200.947 171.5 199.663C168.936 198.469 165.998 200.334 165.986 203.162C165.973 206.205 162.62 208.049 160.044 206.429C157.649 204.924 154.501 206.405 154.134 209.21C153.74 212.227 150.183 213.636 147.83 211.706C145.643 209.912 142.334 210.987 141.619 213.724C140.849 216.668 137.143 217.62 135.051 215.41C133.106 213.357 129.688 214.009 128.636 216.634C127.503 219.459 123.708 219.938 121.908 217.484C120.236 215.203 116.763 215.421 115.39 217.894C113.913 220.555 110.087 220.555 108.61 217.894C107.237 215.421 103.764 215.203 102.092 217.484C100.292 219.938 96.4965 219.459 95.3643 216.634C94.3121 214.009 90.8939 213.357 88.9491 215.41C86.8565 217.62 83.1506 216.668 82.3814 213.724C81.6665 210.987 78.357 209.912 76.1701 211.706C73.8171 213.636 70.2597 212.227 69.8655 209.21C69.4992 206.405 66.3506 204.924 63.9562 206.429C61.3799 208.049 58.027 206.205 58.0142 203.162C58.0022 200.334 55.0642 198.469 52.4999 199.663C49.7409 200.947 46.6455 198.698 47.0142 195.677C47.3569 192.87 44.6756 190.652 41.982 191.514C39.0838 192.442 36.2947 189.823 37.0391 186.873C37.7309 184.13 35.3488 181.593 32.5683 182.112C29.5767 182.669 27.1378 179.721 28.2461 176.887C29.2763 174.253 27.2309 171.438 24.4074 171.603C21.3694 171.782 19.3192 168.551 20.7741 165.878C22.1262 163.394 20.4498 160.345 17.6278 160.155C14.5914 159.951 12.9623 156.489 14.7407 154.02C16.3935 151.725 15.1125 148.489 12.3365 147.947C9.34961 147.365 8.16727 143.726 10.2411 141.499C12.1686 139.429 11.3032 136.058 8.61694 135.173C5.72668 134.22 5.00973 130.462 7.34636 128.512C9.51805 126.7 9.08192 123.248 6.52781 122.033C3.77974 120.725 3.53949 116.907 6.10205 115.265C8.48373 113.74 8.48373 110.26 6.10205 108.735C3.53949 107.093 3.77974 103.275 6.52781 101.967C9.08192 100.752 9.51805 97.2998 7.34636 95.4877C5.00973 93.5381 5.72668 89.7797 8.61694 88.8271C11.3032 87.9418 12.1686 84.5713 10.2411 82.5014C8.16727 80.2742 9.34962 76.6353 12.3365 76.0525C15.1125 75.5108 16.3935 72.2754 14.7407 69.9802C12.9623 67.5107 14.5914 64.0487 17.6278 63.8448C20.4498 63.6553 22.1262 60.606 20.7741 58.1217C19.3192 55.4488 21.3694 52.2183 24.4074 52.3966C27.2309 52.5623 29.2763 49.7471 28.2461 47.1129C27.1378 44.2787 29.5767 41.3306 32.5683 41.8883C35.3488 42.4066 37.7309 39.8699 37.0391 37.1274C36.2947 34.1767 39.0838 31.5575 41.982 32.4857C44.6756 33.3484 47.3569 31.1303 47.0142 28.3227C46.6455 25.302 49.7409 23.053 52.4999 24.3371C55.0642 25.5306 58.0022 23.666 58.0142 20.8377C58.027 17.7945 61.3799 15.9513 63.9562 17.571C66.3506 19.0765 69.4992 17.5949 69.8655 14.7903C70.2597 11.7727 73.8171 10.3642 76.1701 12.2941C78.357 14.0878 81.6665 13.0125 82.3814 10.276C83.1506 7.33161 86.8565 6.38009 88.9491 8.58968C90.8939 10.6433 94.3121 9.99126 95.3643 7.36591C96.4965 4.54116 100.292 4.06162 102.092 6.51605C103.764 8.79724 107.237 8.57874 108.61 6.10597Z" fill="url(#paint0_linear_465_825)"/>
<circle opacity="0.5" cx="112" cy="112" r="96.5667" stroke="url(#paint1_linear_465_825)"/>
<circle opacity="0.5" cx="112" cy="112" r="74.5" stroke="url(#paint2_linear_465_825)"/>
<path d="M121.134 198.077C120.485 198.716 117.621 199.339 117.592 199.346L117.042 199.464L117.59 199.591C117.619 199.598 120.473 200.265 121.112 200.914C121.751 201.563 122.375 204.428 122.381 204.457L122.5 205.006L122.627 204.458C122.633 204.43 123.301 201.575 123.95 200.936C124.599 200.297 127.464 199.674 127.492 199.667L128.042 199.549L127.494 199.422C127.466 199.415 124.611 198.748 123.971 198.099C123.333 197.45 122.709 194.585 122.703 194.556L122.585 194.007L122.457 194.554C122.451 194.583 121.783 197.438 121.134 198.077Z" fill="#F6F6F6"/>
<path d="M101.134 24.0777C100.486 24.7169 97.6213 25.3404 97.5922 25.3465L97.0425 25.4651L97.5903 25.5919C97.6193 25.5988 100.473 26.266 101.112 26.9153C101.752 27.5641 102.375 30.4288 102.381 30.4576L102.5 31.0073L102.627 30.4595C102.634 30.4308 103.301 27.5761 103.95 26.9372C104.599 26.2983 107.464 25.6748 107.492 25.6684L108.042 25.5501L107.494 25.423C107.466 25.4164 104.611 24.7487 103.972 24.0996C103.333 23.4511 102.71 20.5862 102.703 20.5574L102.585 20.0076L102.458 20.5552C102.451 20.5842 101.783 23.4386 101.134 24.0777Z" fill="#F6F6F6"/>
<path d="M204.743 117.555L196.056 120.432L196.415 119.109L204.401 122.76L204.221 125.506L192.28 119.334L204.926 114.777L204.743 117.555Z" fill="white"/>
<path d="M191.342 129.37C191.502 128.532 191.795 127.85 192.221 127.323C192.646 126.806 193.164 126.449 193.778 126.251C194.391 126.053 195.059 126.023 195.782 126.161C196.474 126.293 197.063 126.59 197.55 127.052C198.038 127.515 198.387 128.075 198.598 128.734C198.819 129.396 198.86 130.093 198.72 130.826C198.532 131.811 198.09 132.563 197.394 133.082C196.706 133.613 195.805 133.87 194.69 133.853L194.011 128.185L195.299 127.926L195.866 132.041L195.749 131.546C196.037 131.515 196.302 131.408 196.543 131.226C196.792 131.056 196.958 130.756 197.04 130.327C197.134 129.834 197.041 129.409 196.762 129.052C196.482 128.695 196.06 128.462 195.494 128.354C194.855 128.232 194.335 128.312 193.934 128.594C193.543 128.878 193.299 129.271 193.204 129.774C193.158 130.015 193.155 130.254 193.197 130.49C193.237 130.736 193.304 130.982 193.398 131.228L191.578 131.891C191.438 131.484 191.347 131.054 191.303 130.601C191.257 130.158 191.27 129.748 191.342 129.37Z" fill="white"/>
<path d="M196.602 138.232L194.7 137.902L194.99 137.935C195.334 138.245 195.595 138.609 195.775 139.027C195.965 139.447 196.089 139.844 196.149 140.216C196.205 140.599 196.209 140.877 196.159 141.051L194.037 140.325C194.243 139.84 194.284 139.386 194.162 138.963C194.039 138.539 193.822 138.177 193.509 137.876C193.195 137.575 192.844 137.369 192.455 137.257L189.825 136.501L190.439 134.364L197.159 136.295L196.602 138.232Z" fill="white"/>
<path d="M195.103 142.975L194.34 145.081L187.766 142.699L188.53 140.593L195.103 142.975ZM197.451 143.775C197.762 143.888 197.974 144.101 198.087 144.414C198.197 144.738 198.201 145.04 198.099 145.32C197.998 145.601 197.805 145.821 197.52 145.979C197.233 146.147 196.933 146.174 196.622 146.062C196.312 145.949 196.099 145.736 195.986 145.422C195.879 145.123 195.877 144.833 195.978 144.552C196.08 144.271 196.272 144.04 196.553 143.858C196.841 143.69 197.14 143.662 197.451 143.775Z" fill="white"/>
<path d="M186.693 145.398L191.298 147.448L191.779 146.366L193.592 147.173L193.11 148.255L195.332 149.244C196.17 149.617 196.746 150.159 197.06 150.871C197.379 151.597 197.335 152.418 196.927 153.334C196.805 153.607 196.627 153.889 196.392 154.181C196.162 154.488 195.898 154.726 195.6 154.897L194.508 153.378C194.678 153.337 194.813 153.257 194.913 153.138C195.018 153.033 195.096 152.922 195.148 152.805C195.278 152.512 195.287 152.23 195.175 151.958C195.062 151.686 194.792 151.455 194.363 151.264L192.2 150.301L191.341 152.231L189.528 151.424L190.387 149.494L185.783 147.445L186.693 145.398Z" fill="white"/>
<path d="M190.323 154.117L189.277 156.098L183.094 152.834L184.139 150.853L190.323 154.117ZM192.538 155.232C192.831 155.386 193.012 155.627 193.081 155.952C193.145 156.288 193.108 156.588 192.968 156.852C192.829 157.116 192.607 157.307 192.304 157.424C191.996 157.551 191.696 157.537 191.403 157.383C191.111 157.228 190.93 156.988 190.861 156.662C190.796 156.351 190.834 156.063 190.973 155.799C191.112 155.535 191.334 155.332 191.638 155.191C191.946 155.064 192.246 155.078 192.538 155.232Z" fill="white"/>
<path d="M180.06 157.548C180.518 156.828 181.043 156.302 181.633 155.97C182.218 155.646 182.832 155.506 183.475 155.549C184.118 155.591 184.75 155.81 185.371 156.205C185.965 156.583 186.403 157.077 186.685 157.686C186.968 158.295 187.085 158.945 187.038 159.636C186.999 160.332 186.78 160.995 186.379 161.625C185.841 162.471 185.152 163.007 184.314 163.232C183.479 163.471 182.546 163.377 181.516 162.95L182.978 157.432L184.27 157.667L183.278 161.7L183.352 161.197C183.631 161.274 183.917 161.272 184.208 161.192C184.503 161.127 184.767 160.909 185.002 160.54C185.271 160.118 185.342 159.688 185.214 159.253C185.087 158.818 184.78 158.446 184.294 158.137C183.745 157.787 183.232 157.669 182.755 157.783C182.287 157.903 181.916 158.178 181.641 158.61C181.509 158.817 181.419 159.038 181.371 159.273C181.317 159.517 181.288 159.771 181.285 160.034L179.349 159.978C179.369 159.548 179.443 159.115 179.569 158.677C179.69 158.248 179.854 157.872 180.06 157.548Z" fill="white"/>
<path d="M175.598 163.83C176.005 163.323 176.485 162.963 177.039 162.75C177.6 162.545 178.199 162.506 178.835 162.633C179.465 162.769 180.087 163.084 180.703 163.578C181.319 164.072 181.743 164.618 181.975 165.214C182.207 165.811 182.262 166.416 182.139 167.029C182.017 167.642 181.735 168.222 181.295 168.771C181.014 169.121 180.693 169.41 180.331 169.64C179.963 169.877 179.579 170.014 179.181 170.05L178.632 169.609L183.96 173.886L182.568 175.62L172.723 167.719L174.125 165.972L175.186 166.823L174.701 166.66C174.695 166.19 174.749 165.714 174.863 165.231C174.986 164.754 175.23 164.288 175.598 163.83ZM176.609 165.586C176.329 165.935 176.162 166.28 176.108 166.619C176.062 166.966 176.117 167.324 176.271 167.694L177.606 168.766C177.953 168.88 178.308 168.871 178.673 168.74C179.038 168.609 179.361 168.369 179.642 168.019C179.849 167.761 179.976 167.467 180.023 167.135C180.072 166.819 180.037 166.504 179.919 166.191C179.801 165.877 179.597 165.604 179.306 165.37C179.015 165.136 178.699 164.993 178.359 164.939C178.02 164.885 177.697 164.913 177.39 165.022C177.076 165.14 176.816 165.328 176.609 165.586Z" fill="white"/>
<path d="M162.532 178.707C162.558 178.542 162.642 178.276 162.786 177.907C162.922 177.545 163.131 177.146 163.415 176.71C163.699 176.274 164.072 175.859 164.535 175.464C165.245 174.866 165.978 174.439 166.734 174.184C167.49 173.943 168.239 173.857 168.983 173.926C169.719 174.002 170.42 174.215 171.086 174.566C171.752 174.917 172.35 175.392 172.879 175.992C173.473 176.663 173.916 177.367 174.211 178.103C174.498 178.847 174.633 179.588 174.618 180.328C174.594 181.074 174.417 181.793 174.087 182.482C173.758 183.172 173.273 183.8 172.633 184.365C172.042 184.888 171.448 185.27 170.851 185.513C170.254 185.756 169.73 185.912 169.28 185.982L168.512 183.736C168.846 183.711 169.252 183.63 169.729 183.494C170.205 183.372 170.659 183.121 171.09 182.739C171.538 182.344 171.848 181.849 172.021 181.255C172.186 180.668 172.201 180.057 172.066 179.422C171.931 178.801 171.627 178.223 171.154 177.688C170.652 177.12 170.103 176.716 169.506 176.475C168.915 176.242 168.315 176.182 167.703 176.295C167.091 176.408 166.518 176.702 165.982 177.175C165.511 177.592 165.174 178.024 164.973 178.473C164.771 178.921 164.656 179.307 164.629 179.63L162.532 178.707Z" fill="white"/>
<path d="M157.485 180.766C158.187 180.282 158.875 180.002 159.549 179.927C160.214 179.857 160.834 179.968 161.409 180.258C161.985 180.548 162.481 180.996 162.899 181.602C163.298 182.182 163.509 182.807 163.531 183.479C163.553 184.15 163.408 184.794 163.095 185.411C162.788 186.037 162.327 186.562 161.712 186.986C160.886 187.555 160.043 187.779 159.183 187.659C158.321 187.554 157.499 187.104 156.717 186.308L160.217 181.798L161.315 182.518L158.827 185.845L159.091 185.41C159.319 185.59 159.583 185.7 159.882 185.74C160.179 185.795 160.507 185.698 160.867 185.45C161.28 185.165 161.513 184.798 161.565 184.347C161.617 183.897 161.48 183.434 161.153 182.96C160.784 182.424 160.358 182.116 159.874 182.034C159.397 181.962 158.947 182.071 158.525 182.361C158.323 182.5 158.154 182.669 158.018 182.866C157.874 183.07 157.748 183.292 157.642 183.533L155.881 182.726C156.068 182.338 156.305 181.968 156.592 181.614C156.871 181.267 157.168 180.984 157.485 180.766Z" fill="white"/>
<path d="M159.477 194.679L157.536 195.797L151.235 184.857L153.177 183.739L159.477 194.679Z" fill="white"/>
<path d="M146.182 187.21C146.954 186.846 147.678 186.681 148.355 186.715C149.022 186.754 149.616 186.963 150.137 187.342C150.659 187.721 151.076 188.244 151.39 188.909C151.691 189.546 151.798 190.197 151.711 190.863C151.625 191.529 151.377 192.141 150.969 192.7C150.565 193.268 150.025 193.712 149.35 194.031C148.443 194.459 147.575 194.544 146.746 194.287C145.912 194.044 145.173 193.467 144.53 192.555L148.712 188.67L149.68 189.558L146.687 192.439L147.018 192.053C147.214 192.267 147.456 192.418 147.745 192.506C148.029 192.608 148.369 192.565 148.764 192.378C149.218 192.164 149.506 191.839 149.631 191.403C149.755 190.967 149.694 190.488 149.448 189.968C149.171 189.379 148.8 189.006 148.336 188.847C147.876 188.699 147.415 188.734 146.952 188.952C146.73 189.057 146.536 189.196 146.37 189.369C146.194 189.546 146.035 189.745 145.891 189.966L144.284 188.885C144.53 188.533 144.824 188.205 145.165 187.903C145.496 187.605 145.835 187.374 146.182 187.21Z" fill="white"/>
<path d="M137.447 190.692C138.001 190.501 138.501 190.43 138.947 190.479C139.386 190.541 139.799 190.675 140.186 190.88L140.176 191.391L139.732 190.106L141.85 189.374L145.972 201.306L143.87 202.032L141.639 195.575L141.874 196.256C141.689 196.568 141.405 196.875 141.024 197.176C140.643 197.477 140.175 197.723 139.62 197.914C139.046 198.113 138.474 198.158 137.906 198.05C137.338 197.941 136.823 197.673 136.359 197.247C135.889 196.834 135.525 196.254 135.268 195.508C135.01 194.762 134.948 194.061 135.083 193.405C135.207 192.753 135.481 192.19 135.904 191.716C136.328 191.243 136.842 190.901 137.447 190.692ZM138.532 192.315C138.219 192.423 137.96 192.603 137.754 192.855C137.537 193.11 137.397 193.407 137.333 193.745C137.269 194.083 137.298 194.428 137.42 194.781C137.542 195.134 137.731 195.419 137.986 195.635C138.242 195.852 138.532 195.988 138.856 196.046C139.174 196.116 139.489 196.098 139.802 195.99C140.215 195.847 140.545 195.626 140.791 195.326C141.038 195.027 141.171 194.693 141.19 194.325L140.631 192.707C140.335 192.437 140.016 192.265 139.674 192.191C139.326 192.131 138.945 192.172 138.532 192.315Z" fill="white"/>
<path d="M130.286 192.745C130.847 192.616 131.395 192.593 131.929 192.678C132.452 192.766 132.921 192.948 133.335 193.224L132.708 194.633C132.306 194.408 131.949 194.261 131.637 194.191C131.317 194.133 131.043 194.13 130.814 194.183C130.544 194.245 130.33 194.339 130.173 194.462C130.015 194.586 129.958 194.742 130.001 194.929C130.042 195.106 130.147 195.229 130.316 195.3C130.476 195.372 130.671 195.415 130.904 195.427C131.139 195.449 131.39 195.468 131.656 195.483C132.325 195.537 132.843 195.719 133.21 196.028C133.569 196.35 133.8 196.735 133.903 197.182C133.982 197.525 133.973 197.888 133.875 198.272C133.77 198.668 133.546 199.027 133.204 199.346C132.853 199.679 132.361 199.918 131.727 200.064C131.156 200.196 130.659 200.251 130.238 200.227C129.816 200.204 129.399 200.103 128.986 199.925L129.517 198.456C129.751 198.566 130.004 198.645 130.278 198.691C130.543 198.75 130.781 198.761 130.991 198.724C131.274 198.669 131.48 198.567 131.61 198.417C131.742 198.277 131.791 198.134 131.758 197.989C131.722 197.789 131.614 197.65 131.431 197.571C131.239 197.495 131.01 197.455 130.747 197.45C130.483 197.445 130.222 197.429 129.964 197.401C129.437 197.347 128.992 197.198 128.629 196.953C128.268 196.719 128.029 196.347 127.912 195.838C127.816 195.422 127.834 195.002 127.966 194.577C128.09 194.166 128.344 193.795 128.728 193.466C129.101 193.139 129.621 192.899 130.286 192.745Z" fill="white"/>
<path d="M197.464 102.922C198.345 103.675 199.448 107.239 199.459 107.275L199.669 107.959L199.77 107.251C199.776 107.213 200.311 103.522 201.065 102.641C201.818 101.76 205.383 100.657 205.419 100.646L206.103 100.436L205.395 100.335C205.357 100.329 201.665 99.7933 200.784 99.0403C199.903 98.2867 198.801 94.7216 198.79 94.6861L198.58 94.0018L198.478 94.7104C198.473 94.7472 197.937 98.4401 197.184 99.3212C196.431 100.202 192.866 101.304 192.83 101.315L192.145 101.525L192.854 101.627C192.891 101.632 196.583 102.168 197.464 102.922Z" fill="#F6F6F6"/>
<path d="M109.469 20.6597L113.077 29.0693L111.728 28.8242L114.684 20.5555L117.435 20.5005L112.306 32.9255L106.685 20.7154L109.469 20.6597Z" fill="white"/>
<path d="M122.386 33.0018C121.537 32.9141 120.832 32.6804 120.271 32.3008C119.72 31.9222 119.32 31.4359 119.07 30.8417C118.821 30.2476 118.733 29.5845 118.809 28.8524C118.881 28.1521 119.127 27.5394 119.546 27.0144C119.965 26.4893 120.493 26.0935 121.132 25.827C121.772 25.55 122.463 25.4498 123.206 25.5265C124.203 25.6295 124.99 26.0056 125.567 26.6549C126.155 27.2947 126.488 28.1709 126.566 29.2835L120.977 30.4435L120.609 29.183L124.66 28.2663L124.177 28.4256C124.121 28.1409 123.992 27.8863 123.79 27.6617C123.599 27.4276 123.287 27.2881 122.852 27.2432C122.353 27.1917 121.938 27.3203 121.606 27.6292C121.273 27.938 121.078 28.3789 121.019 28.9519C120.952 29.5991 121.076 30.1106 121.391 30.4863C121.707 30.8513 122.12 31.0602 122.629 31.1128C122.873 31.138 123.111 31.1196 123.343 31.0578C123.585 30.997 123.824 30.9091 124.061 30.7942L124.877 32.5513C124.484 32.7252 124.063 32.8533 123.615 32.9357C123.178 33.0192 122.768 33.0412 122.386 33.0018Z" fill="white"/>
<path d="M130.766 27.0033L130.599 28.9273L130.608 28.6355C130.887 28.2664 131.227 27.9745 131.628 27.7599C132.031 27.5348 132.415 27.3767 132.781 27.2856C133.157 27.1965 133.434 27.1695 133.612 27.2045L133.07 29.3807C132.57 29.2171 132.114 29.2143 131.702 29.3725C131.29 29.5307 130.948 29.7787 130.675 30.1163C130.402 30.454 130.227 30.8217 130.148 31.2194L129.62 33.9039L127.438 33.4747L128.788 26.6142L130.766 27.0033Z" fill="white"/>
<path d="M135.619 28.0918L137.783 28.6723L135.971 35.4254L133.808 34.845L135.619 28.0918ZM136.216 25.6841C136.301 25.3647 136.496 25.1352 136.798 24.9955C137.111 24.8585 137.412 24.8288 137.7 24.9061C137.988 24.9835 138.224 25.1571 138.405 25.4267C138.597 25.6991 138.65 25.9949 138.565 26.3143C138.479 26.6337 138.285 26.8632 137.982 27.0029C137.693 27.1351 137.404 27.1625 137.115 27.0851C136.827 27.0077 136.58 26.8366 136.375 26.5717C136.183 26.2993 136.13 26.0035 136.216 25.6841Z" fill="white"/>
<path d="M138.753 36.2636L140.401 31.5008L139.282 31.1135L139.931 29.2387L141.05 29.6259L141.846 27.3277C142.146 26.4609 142.637 25.8407 143.319 25.4674C144.015 25.0874 144.837 25.0615 145.784 25.3894C146.066 25.4871 146.363 25.6406 146.675 25.85C146.999 26.0527 147.26 26.2952 147.456 26.5775L146.035 27.7958C145.979 27.6299 145.888 27.5023 145.761 27.4131C145.647 27.3174 145.53 27.2486 145.409 27.2067C145.107 27.102 144.825 27.1174 144.564 27.2527C144.302 27.388 144.095 27.6774 143.941 28.1209L143.167 30.3586L145.163 31.0495L144.514 32.9243L142.518 32.2335L140.869 36.9963L138.753 36.2636Z" fill="white"/>
<path d="M147.129 31.9025L149.192 32.7749L146.469 39.2148L144.406 38.3424L147.129 31.9025ZM148.051 29.5996C148.179 29.295 148.403 29.0944 148.722 28.9976C149.051 28.905 149.353 28.9168 149.628 29.0331C149.903 29.1494 150.112 29.3536 150.255 29.6457C150.408 29.9418 150.419 30.2422 150.291 30.5468C150.162 30.8513 149.938 31.052 149.619 31.1488C149.314 31.2399 149.024 31.2273 148.749 31.111C148.474 30.9947 148.253 30.7912 148.087 30.5007C147.934 30.2045 147.922 29.9042 148.051 29.5996Z" fill="white"/>
<path d="M151.424 41.8343C150.668 41.4394 150.099 40.962 149.717 40.4019C149.345 39.8467 149.153 39.247 149.141 38.6027C149.128 37.9584 149.292 37.31 149.632 36.6575C149.958 36.0334 150.413 35.5547 150.996 35.2214C151.579 34.888 152.216 34.7155 152.908 34.7037C153.605 34.6825 154.285 34.8446 154.947 35.1901C155.836 35.6541 156.428 36.2942 156.724 37.1104C157.034 37.9221 157.02 38.8594 156.682 39.9222L151.06 38.9367L151.183 37.6292L155.287 38.2733L154.779 38.243C154.832 37.9577 154.806 37.6733 154.701 37.39C154.61 37.1022 154.371 36.8571 153.984 36.6547C153.539 36.4227 153.106 36.3889 152.683 36.5533C152.26 36.7177 151.916 37.0552 151.649 37.5658C151.348 38.1426 151.274 38.6638 151.429 39.1292C151.588 39.5852 151.894 39.9317 152.348 40.1686C152.565 40.2822 152.793 40.3529 153.031 40.381C153.279 40.4139 153.534 40.4207 153.797 40.4015L153.906 42.3356C153.476 42.352 153.038 42.3157 152.591 42.2268C152.154 42.1428 151.765 42.012 151.424 41.8343Z" fill="white"/>
<path d="M158.065 45.7437C157.524 45.3813 157.125 44.9335 156.866 44.4003C156.613 43.8582 156.523 43.2648 156.596 42.6201C156.677 41.9813 156.938 41.3341 157.377 40.6785C157.817 40.023 158.324 39.554 158.899 39.2715C159.474 38.9891 160.072 38.8827 160.693 38.9525C161.314 39.0222 161.917 39.2532 162.501 39.6453C162.873 39.8948 163.189 40.19 163.449 40.5309C163.717 40.8778 163.886 41.2481 163.956 41.6417L163.564 42.2264L167.369 36.5522L169.216 37.7909L162.185 48.2756L160.324 47.028L161.082 45.8984L160.961 46.3951C160.493 46.4412 160.014 46.428 159.523 46.3557C159.038 46.2745 158.552 46.0705 158.065 45.7437ZM159.728 44.5856C160.1 44.8352 160.457 44.9722 160.8 44.9968C161.149 45.0126 161.502 44.9277 161.857 44.7423L162.811 43.3205C162.895 42.9657 162.856 42.612 162.694 42.2596C162.532 41.9071 162.265 41.606 161.893 41.3565C161.619 41.1724 161.314 41.0709 160.98 41.0523C160.66 41.0307 160.35 41.092 160.047 41.2361C159.745 41.3802 159.49 41.6073 159.282 41.9174C159.074 42.2275 158.958 42.5541 158.933 42.8972C158.909 43.2403 158.964 43.5599 159.099 43.8561C159.244 44.1583 159.453 44.4015 159.728 44.5856Z" fill="white"/>
<path d="M174.004 57.4896C173.838 57.4784 173.565 57.417 173.185 57.3053C172.813 57.201 172.398 57.0261 171.939 56.7805C171.481 56.5348 171.035 56.1984 170.602 55.7711C169.946 55.1153 169.457 54.4215 169.138 53.6897C168.834 52.9575 168.685 52.218 168.689 51.4709C168.702 50.7313 168.855 50.0147 169.147 49.3211C169.44 48.6276 169.863 47.9914 170.415 47.4124C171.033 46.7639 171.696 46.2615 172.405 45.9051C173.121 45.5561 173.848 45.3578 174.586 45.31C175.332 45.2697 176.063 45.3843 176.778 45.654C177.494 45.9236 178.161 46.3529 178.778 46.9418C179.349 47.4865 179.781 48.0458 180.074 48.6198C180.367 49.1938 180.568 49.702 180.676 50.1446L178.504 51.1016C178.451 50.7709 178.335 50.3738 178.158 49.9102C177.997 49.4463 177.707 49.0156 177.29 48.6181C176.858 48.2059 176.339 47.9391 175.732 47.8178C175.133 47.7037 174.523 47.7409 173.901 47.9292C173.295 48.1172 172.745 48.4698 172.252 48.987C171.729 49.5351 171.373 50.1169 171.184 50.7326C171.002 51.3404 170.994 51.9442 171.159 52.5439C171.325 53.1435 171.666 53.6899 172.183 54.1831C172.638 54.6174 173.098 54.9158 173.562 55.0783C174.026 55.2407 174.421 55.3219 174.745 55.3217L174.004 57.4896Z" fill="white"/>
<path d="M176.487 62.3428C175.945 61.6841 175.607 61.0225 175.475 60.3579C175.349 59.7016 175.406 59.0744 175.646 58.4762C175.885 57.8781 176.289 57.3451 176.857 56.8772C177.401 56.4297 178.006 56.1663 178.673 56.0869C179.34 56.0075 179.994 56.0973 180.636 56.3565C181.286 56.6089 181.848 57.0233 182.323 57.5997C182.96 58.3737 183.256 59.1942 183.21 60.0612C183.179 60.9296 182.8 61.7871 182.074 62.6337L177.282 59.5327L177.906 58.3768L181.433 60.5711L180.977 60.3451C181.137 60.103 181.224 59.831 181.238 59.5293C181.267 59.229 181.143 58.91 180.865 58.5724C180.546 58.1854 180.16 57.9851 179.707 57.9715C179.253 57.9579 178.804 58.1342 178.36 58.5004C177.858 58.914 177.587 59.3651 177.547 59.8538C177.515 60.3358 177.662 60.7743 177.988 61.1696C178.144 61.359 178.326 61.513 178.534 61.6317C178.749 61.7586 178.981 61.8644 179.231 61.9492L178.577 63.7727C178.175 63.6202 177.785 63.4157 177.409 63.1595C177.039 62.9115 176.731 62.6393 176.487 62.3428Z" fill="white"/>
<path d="M190.179 59.1687L191.458 61.0071L181.097 68.2194L179.818 66.381L190.179 59.1687Z" fill="white"/>
<path d="M183.873 73.053C183.444 72.3154 183.218 71.6079 183.195 70.9307C183.176 70.2627 183.334 69.6528 183.667 69.1013C184 68.5497 184.485 68.0889 185.121 67.7189C185.73 67.365 186.37 67.2027 187.041 67.2321C187.712 67.2614 188.343 67.4558 188.934 67.8151C189.535 68.1692 190.023 68.6689 190.398 69.3144C190.902 70.1812 191.062 71.0386 190.876 71.8868C190.705 72.7388 190.193 73.524 189.34 74.2422L185.112 70.4081L185.914 69.3681L189.04 72.1031L188.627 71.8065C188.824 71.5934 188.954 71.339 189.016 71.0435C189.093 70.7518 189.022 70.417 188.802 70.0389C188.55 69.6055 188.202 69.3455 187.756 69.2589C187.311 69.1723 186.84 69.2738 186.342 69.5633C185.779 69.8904 185.439 70.2919 185.321 70.7678C185.212 71.2383 185.286 71.6948 185.543 72.1374C185.667 72.3495 185.822 72.5309 186.008 72.6817C186.2 72.8416 186.412 72.9836 186.644 73.1075L185.705 74.8016C185.332 74.5861 184.981 74.3214 184.651 74.0077C184.326 73.7032 184.066 73.385 183.873 73.053Z" fill="white"/>
<path d="M188.089 81.4592C187.851 80.9231 187.737 80.4309 187.748 79.9825C187.773 79.5395 187.871 79.1166 188.042 78.7137L188.552 78.6796L187.31 79.232L186.4 77.185L197.936 72.0579L198.839 74.0902L192.596 76.865L193.254 76.5725C193.581 76.7307 193.911 76.9868 194.243 77.3409C194.576 77.6951 194.861 78.1402 195.099 78.6763C195.346 79.2319 195.44 79.7973 195.38 80.3724C195.321 80.9475 195.098 81.4841 194.713 81.9823C194.341 82.4859 193.795 82.898 193.074 83.2186C192.352 83.5392 191.659 83.6605 190.994 83.5825C190.334 83.5143 189.749 83.2895 189.241 82.9083C188.733 82.5271 188.349 82.0441 188.089 81.4592ZM189.613 80.2392C189.748 80.5413 189.949 80.7845 190.218 80.9686C190.491 81.1625 190.798 81.2767 191.14 81.3114C191.483 81.346 191.824 81.2875 192.165 81.1359C192.507 80.9843 192.774 80.772 192.968 80.4991C193.162 80.2262 193.273 79.9256 193.303 79.5975C193.346 79.2747 193.301 78.9623 193.166 78.6601C192.989 78.2604 192.74 77.9507 192.421 77.7308C192.101 77.511 191.757 77.407 191.389 77.4189L189.824 78.1143C189.581 78.4327 189.437 78.7652 189.392 79.1117C189.362 79.4637 189.436 79.8395 189.613 80.2392Z" fill="white"/>
<path d="M190.747 88.4183C190.57 87.8701 190.501 87.3264 190.54 86.787C190.582 86.2578 190.723 85.7751 190.964 85.3389L192.421 85.8436C192.232 86.2635 192.115 86.6317 192.072 86.9484C192.042 87.272 192.063 87.5454 192.135 87.7687C192.22 88.0326 192.331 88.2378 192.468 88.3841C192.605 88.5305 192.765 88.5742 192.947 88.5152C193.12 88.4595 193.234 88.3442 193.29 88.1694C193.348 88.0046 193.374 87.8058 193.366 87.573C193.368 87.3369 193.366 87.0856 193.358 86.819C193.354 86.1477 193.491 85.616 193.768 85.224C194.058 84.8389 194.422 84.5759 194.858 84.435C195.193 84.3269 195.556 84.305 195.947 84.3695C196.351 84.4408 196.727 84.6333 197.075 84.9469C197.436 85.2675 197.717 85.7374 197.916 86.3566C198.097 86.9149 198.193 87.4049 198.206 87.8267C198.219 88.2485 198.154 88.6729 198.012 89.0999L196.503 88.6959C196.593 88.4539 196.649 88.1947 196.672 87.9183C196.708 87.6488 196.699 87.4109 196.643 87.2046C196.565 86.9272 196.445 86.7304 196.285 86.6142C196.134 86.4947 195.988 86.4579 195.846 86.5038C195.649 86.5559 195.52 86.6761 195.458 86.8644C195.398 87.0628 195.378 87.2937 195.395 87.557C195.413 87.8203 195.419 88.0817 195.413 88.3414C195.405 88.871 195.294 89.327 195.081 89.7095C194.879 90.0887 194.529 90.3586 194.031 90.5192C193.625 90.6502 193.205 90.6681 192.771 90.5729C192.35 90.4845 191.959 90.2632 191.598 89.909C191.24 89.5649 190.957 89.068 190.747 88.4183Z" fill="white"/>
<path d="M20.4276 107.691L29.1148 104.814L28.7553 106.137L20.7695 102.486L20.9498 99.7397L32.891 105.912L20.2451 110.469L20.4276 107.691Z" fill="white"/>
<path d="M33.8284 95.8755C33.6686 96.7137 33.3755 97.3963 32.9492 97.9231C32.525 98.4394 32.0062 98.7965 31.3929 98.9944C30.7797 99.1924 30.1115 99.2224 29.3886 99.0845C28.697 98.9526 28.1076 98.6556 27.6202 98.1934C27.1328 97.7312 26.7837 97.1706 26.5728 96.5114C26.3514 95.8502 26.3107 95.1529 26.4506 94.4194C26.6385 93.4345 27.0805 92.6827 27.7767 92.1639C28.4644 91.6327 29.3658 91.3757 30.481 91.393L31.1592 97.0604L29.8718 97.3198L29.3047 93.2047L29.4221 93.6994C29.1337 93.7313 28.869 93.8382 28.6279 94.0203C28.3784 94.1899 28.2127 94.4895 28.1307 94.9191C28.0368 95.4115 28.1295 95.8364 28.4088 96.1937C28.6882 96.5511 29.1107 96.7837 29.6765 96.8916C30.3157 97.0135 30.8359 96.9336 31.2371 96.6518C31.6279 96.3679 31.8712 95.9746 31.9671 95.4716C32.0131 95.2307 32.0152 94.9921 31.9733 94.7561C31.9335 94.5096 31.8664 94.2634 31.7722 94.0174L33.5926 93.3547C33.7322 93.7614 33.8239 94.1915 33.8677 94.6451C33.9135 95.0882 33.9004 95.4983 33.8284 95.8755Z" fill="white"/>
<path d="M28.5682 87.0141L30.471 87.3444L30.1809 87.311C29.8371 87.0013 29.5754 86.6376 29.3958 86.2197C29.2059 85.7989 29.0812 85.4024 29.0217 85.0302C28.9652 84.6477 28.9619 84.3693 29.012 84.195L31.134 84.9212C30.9281 85.4059 30.8864 85.8601 31.0088 86.2837C31.1313 86.7073 31.349 87.0695 31.6621 87.3704C31.9752 87.6712 32.3266 87.8776 32.7161 87.9895L35.3457 88.7451L34.7316 90.8826L28.0115 88.9517L28.5682 87.0141Z" fill="white"/>
<path d="M30.0674 82.2709L30.8307 80.165L37.4043 82.5474L36.641 84.6534L30.0674 82.2709ZM27.7195 81.471C27.4086 81.3584 27.1965 81.1453 27.0832 80.832C26.9735 80.5086 26.9695 80.2065 27.0713 79.9257C27.173 79.6449 27.366 79.4255 27.6502 79.2675C27.938 79.0996 28.2373 79.0719 28.5482 79.1846C28.8591 79.2972 29.0712 79.5103 29.1845 79.8236C29.2914 80.1233 29.294 80.4136 29.1923 80.6944C29.0905 80.9752 28.8989 81.2064 28.6175 81.388C28.3297 81.556 28.0304 81.5837 27.7195 81.471Z" fill="white"/>
<path d="M38.4772 79.8477L33.8728 77.7982L33.3913 78.8798L31.5787 78.073L32.0602 76.9913L29.8384 76.0023C29.0003 75.6293 28.4245 75.0869 28.1108 74.3752C27.7917 73.6493 27.8361 72.8284 28.2438 71.9124C28.3653 71.6396 28.5436 71.357 28.7788 71.0647C29.0086 70.7583 29.2724 70.5197 29.5703 70.3487L30.6628 71.8683C30.4927 71.9094 30.3579 71.9894 30.2581 72.1085C30.153 72.2135 30.0744 72.3245 30.0224 72.4414C29.8923 72.7338 29.8834 73.0159 29.9959 73.2878C30.1084 73.5597 30.379 73.7911 30.8078 73.9819L32.9712 74.9449L33.83 73.0154L35.6426 73.8223L34.7837 75.7517L39.3881 77.8013L38.4772 79.8477Z" fill="white"/>
<path d="M34.8478 71.1292L35.8934 69.1482L42.077 72.4117L41.0315 74.3928L34.8478 71.1292ZM32.6322 70.0141C32.3397 69.8598 32.1589 69.6196 32.0897 69.2936C32.0255 68.9582 32.0631 68.6584 32.2025 68.3943C32.342 68.1302 32.5632 67.9394 32.8664 67.822C33.1746 67.6952 33.4749 67.7089 33.7673 67.8633C34.0598 68.0176 34.2406 68.2578 34.3097 68.5837C34.3745 68.8953 34.3371 69.1832 34.1977 69.4473C34.0583 69.7114 33.8368 69.9141 33.5331 70.0554C33.2249 70.1822 32.9246 70.1684 32.6322 70.0141Z" fill="white"/>
<path d="M45.1105 67.6985C44.6524 68.4185 44.1281 68.9445 43.5374 69.2767C42.9525 69.5999 42.3386 69.7403 41.6955 69.6978C41.0525 69.6553 40.4205 69.4365 39.7995 69.0414C39.2056 68.6635 38.7675 68.1698 38.4852 67.5603C38.2029 66.9508 38.0854 66.3009 38.1329 65.6104C38.1713 64.9142 38.3909 64.2511 38.7917 63.6212C39.3299 62.7752 40.0183 62.2397 40.8569 62.0147C41.6921 61.7749 42.6248 61.8689 43.6548 62.2967L42.1924 67.8141L40.9002 67.5798L41.8927 63.5461L41.8191 64.0492C41.5393 63.9723 41.2538 63.974 40.9625 64.0542C40.668 64.1197 40.4034 64.3369 40.1686 64.7059C39.8995 65.1288 39.8288 65.5579 39.9564 65.9931C40.0841 66.4284 40.3909 66.8006 40.8768 67.1098C41.4258 67.4591 41.9388 67.5768 42.4157 67.4631C42.8837 67.3436 43.255 67.0679 43.5299 66.6359C43.6616 66.4289 43.7516 66.208 43.7998 65.9732C43.8538 65.7295 43.8824 65.4758 43.8857 65.2124L45.8221 65.2687C45.8017 65.6982 45.7281 66.1318 45.6013 66.5695C45.4803 66.9982 45.3167 67.3745 45.1105 67.6985Z" fill="white"/>
<path d="M49.5731 61.4164C49.1658 61.9238 48.6855 62.2837 48.1321 62.4961C47.5704 62.7018 46.9714 62.7408 46.3353 62.6132C45.7058 62.4773 45.0833 62.1623 44.4677 61.6683C43.8521 61.1742 43.4281 60.6288 43.1959 60.0321C42.9636 59.4353 42.9087 58.8305 43.0313 58.2177C43.1539 57.6048 43.4355 57.0239 43.8761 56.4749C44.1565 56.1255 44.4776 55.8361 44.8395 55.6068C45.208 55.3691 45.5914 55.2323 45.9896 55.1963L46.5386 55.6369L41.2104 51.3607L42.6025 49.6262L52.4478 57.5278L51.0457 59.2747L49.9851 58.4235L50.4696 58.5867C50.4755 59.0564 50.4215 59.5328 50.3074 60.0157C50.1851 60.4919 49.9403 60.9588 49.5731 61.4164ZM48.5613 59.6606C48.8417 59.3113 49.0089 58.9667 49.0627 58.6269C49.1082 58.2805 49.0538 57.9223 48.8995 57.5522L47.5643 56.4806C47.218 56.3668 46.8623 56.3754 46.4973 56.5064C46.1323 56.6375 45.8095 56.8777 45.5291 57.2271C45.3222 57.485 45.1951 57.7796 45.1479 58.111C45.0991 58.4275 45.1336 58.7424 45.2514 59.0558C45.3692 59.3691 45.5736 59.6426 45.8648 59.8763C46.156 60.11 46.4714 60.2537 46.8112 60.3076C47.1509 60.3614 47.4741 60.3336 47.7808 60.2241C48.0942 60.1064 48.3544 59.9185 48.5613 59.6606Z" fill="white"/>
<path d="M62.6384 46.539C62.6131 46.7036 62.5286 46.9705 62.3848 47.3394C62.2491 47.7013 62.0393 48.1002 61.7554 48.536C61.4715 48.9719 61.0982 49.3871 60.6355 49.7817C59.9259 50.3801 59.1929 50.8071 58.4365 51.0625C57.6811 51.303 56.9314 51.3888 56.1875 51.3202C55.4516 51.2444 54.7507 51.031 54.0848 50.68C53.4188 50.329 52.821 49.8537 52.2913 49.2541C51.6981 48.5827 51.2542 47.8789 50.9596 47.1427C50.6731 46.3995 50.5376 45.6581 50.5531 44.9185C50.5767 44.1719 50.7533 43.4535 51.0832 42.7636C51.413 42.0737 51.8977 41.4462 52.5372 40.8812C53.1287 40.3586 53.723 39.9759 54.3198 39.7333C54.9167 39.4906 55.4403 39.334 55.8905 39.2636L56.6584 41.5102C56.3243 41.5349 55.9188 41.6156 55.4418 41.7523C54.9658 41.874 54.5119 42.1256 54.0803 42.5069C53.6326 42.9024 53.3224 43.3971 53.1496 43.991C52.9849 44.5778 52.9697 45.1889 53.1042 45.8245C53.2397 46.445 53.544 47.023 54.0171 47.5586C54.5186 48.1261 55.0679 48.5304 55.6651 48.7714C56.2552 49.0044 56.8561 49.0642 57.4676 48.9509C58.0792 48.8376 58.6528 48.5444 59.1883 48.0712C59.66 47.6545 59.9966 47.2219 60.1981 46.7734C60.3997 46.3249 60.5142 45.939 60.5418 45.6158L62.6384 46.539Z" fill="white"/>
<path d="M67.686 44.4799C66.9833 44.9641 66.2952 45.2439 65.6218 45.3193C64.9571 45.3886 64.337 45.2783 63.7616 44.9882C63.1861 44.6982 62.6895 44.2502 62.272 43.6441C61.8725 43.0644 61.6618 42.4389 61.6397 41.7676C61.6176 41.0963 61.763 40.452 62.0761 39.8347C62.3831 39.2087 62.844 38.6839 63.4589 38.2602C64.2846 37.6914 65.1273 37.4669 65.9872 37.5869C66.8498 37.692 67.6718 38.1425 68.4533 38.9383L64.954 43.4477L63.8557 42.7278L66.3434 39.4011L66.0793 39.8356C65.8517 39.6557 65.5881 39.5458 65.2887 39.506C64.992 39.4513 64.6636 39.5481 64.3034 39.7962C63.8906 40.0807 63.6581 40.4481 63.6058 40.8987C63.5535 41.3492 63.6908 41.8116 64.0176 42.2859C64.3867 42.8217 64.8131 43.1303 65.2966 43.2117C65.7741 43.2843 66.2236 43.1753 66.6452 42.8848C66.8472 42.7456 67.0163 42.5774 67.1523 42.38C67.2971 42.1766 67.4224 41.9542 67.5282 41.713L69.2892 42.5204C69.1028 42.9079 68.8659 43.2784 68.5784 43.6319C68.2996 43.9794 68.0022 44.2621 67.686 44.4799Z" fill="white"/>
<path d="M65.6937 30.5676L67.6348 29.4496L73.9352 40.3891L71.9941 41.507L65.6937 30.5676Z" fill="white"/>
<path d="M78.9882 38.0363C78.2166 38.4006 77.4924 38.5656 76.8156 38.5313C76.1484 38.4924 75.5543 38.2834 75.0332 37.9043C74.5121 37.5251 74.0945 37.0028 73.7802 36.3373C73.4797 35.7006 73.3726 35.0493 73.4592 34.3833C73.5458 33.7172 73.7934 33.1049 74.202 32.5463C74.6061 31.978 75.1457 31.5345 75.8209 31.2157C76.7276 30.7876 77.5955 30.7022 78.4247 30.9594C79.259 31.2025 79.9975 31.7798 80.6403 32.6913L76.4588 36.5765L75.4911 35.6887L78.4833 32.8073L78.1525 33.1935C77.957 32.9792 77.7146 32.8282 77.4255 32.7405C77.1415 32.6387 76.8018 32.6812 76.4064 32.8679C75.953 33.0819 75.6642 33.407 75.5398 33.8432C75.4155 34.2794 75.4763 34.7579 75.7222 35.2788C76 35.8672 76.3709 36.2405 76.835 36.3989C77.2945 36.5476 77.7557 36.5127 78.2187 36.2941C78.4405 36.1893 78.6345 36.0506 78.8006 35.8778C78.9764 35.7004 79.136 35.5012 79.2793 35.2802L80.8868 36.3613C80.6403 36.7136 80.3466 37.041 80.0058 37.3435C79.6747 37.6414 79.3355 37.8724 78.9882 38.0363Z" fill="white"/>
<path d="M87.7241 34.554C87.1695 34.7456 86.6694 34.8168 86.2236 34.7677C85.7844 34.705 85.3714 34.5712 84.9846 34.3663L84.9942 33.8552L85.4383 35.1406L83.3211 35.8721L79.1987 23.9402L81.3007 23.2139L83.5318 29.6714L83.2966 28.9908C83.4821 28.6785 83.7655 28.3718 84.1468 28.0708C84.5281 27.7698 84.996 27.5235 85.5505 27.3319C86.1251 27.1333 86.6964 27.0883 87.2643 27.1968C87.8322 27.3053 88.3479 27.5729 88.8113 27.9996C89.2813 28.4128 89.6452 28.9924 89.903 29.7385C90.1607 30.4845 90.2223 31.1855 90.0878 31.8414C89.9634 32.4938 89.6895 33.0568 89.2663 33.5303C88.843 34.0038 88.329 34.345 87.7241 34.554ZM86.6387 32.9315C86.9512 32.8235 87.2107 32.6436 87.4171 32.3917C87.6336 32.1364 87.7737 31.8397 87.8375 31.5016C87.9013 31.1636 87.8722 30.8182 87.7503 30.4653C87.6284 30.1124 87.4397 29.8278 87.1844 29.6113C86.929 29.3948 86.6391 29.258 86.3147 29.2008C85.9968 29.13 85.6816 29.1487 85.3691 29.2566C84.9557 29.3995 84.6258 29.6206 84.3795 29.9202C84.1331 30.2197 84.0001 30.5534 83.9805 30.9213L84.5396 32.5395C84.836 32.8095 85.155 32.9814 85.4965 33.0553C85.8446 33.1156 86.2253 33.0743 86.6387 32.9315Z" fill="white"/>
<path d="M94.8849 32.5009C94.3237 32.6303 93.776 32.6526 93.2419 32.5678C92.7183 32.4806 92.2494 32.2986 91.8353 32.0219L92.4628 30.6129C92.8649 30.8376 93.2218 30.9852 93.5336 31.0556C93.8534 31.1132 94.1276 31.1157 94.3563 31.0629C94.6265 31.0006 94.8404 30.9075 94.9979 30.7836C95.1555 30.6597 95.2127 30.5042 95.1695 30.3171C95.1288 30.1404 95.0237 30.0169 94.8542 29.9465C94.6951 29.8737 94.4992 29.8313 94.2666 29.8193C94.0315 29.7969 93.7809 29.778 93.5146 29.7628C92.8455 29.7091 92.3274 29.5275 91.9605 29.2181C91.6016 28.8958 91.3706 28.5112 91.2675 28.0643C91.1884 27.7213 91.1977 27.3579 91.2953 26.9742C91.4009 26.5776 91.6248 26.2195 91.9671 25.8997C92.3173 25.5672 92.8094 25.3278 93.4435 25.1816C94.0151 25.0498 94.5116 24.9955 94.933 25.0188C95.3543 25.0421 95.7716 25.1429 96.1849 25.3212L95.6534 26.7902C95.42 26.6798 95.1666 26.6014 94.8931 26.555C94.6277 26.4958 94.3899 26.485 94.1796 26.5225C93.8966 26.5768 93.6903 26.6791 93.5607 26.8294C93.4288 26.9693 93.3796 27.112 93.4131 27.2575C93.4483 27.4574 93.557 27.5966 93.7393 27.6749C93.9319 27.7509 94.1602 27.7913 94.424 27.7962C94.6878 27.801 94.9489 27.8175 95.2071 27.8455C95.734 27.8991 96.1789 28.0483 96.5418 28.293C96.9023 28.5273 97.1413 28.8992 97.2588 29.4085C97.3546 29.8242 97.3366 30.2443 97.2046 30.6689C97.0806 31.0806 96.8267 31.4511 96.4429 31.7804C96.0694 32.1074 95.5501 32.3475 94.8849 32.5009Z" fill="white"/>
<path d="M27.7059 122.324C26.825 121.572 25.7227 118.007 25.7118 117.971L25.5016 117.287L25.4004 117.995C25.3948 118.033 24.8593 121.724 24.1053 122.605C23.3521 123.486 19.7874 124.589 19.7516 124.6L19.0673 124.81L19.7759 124.911C19.813 124.917 23.5055 125.453 24.3862 126.206C25.267 126.959 26.3693 130.525 26.3805 130.56L26.5904 131.244L26.6919 130.536C26.6972 130.499 27.2333 126.806 27.9869 125.925C28.7398 125.044 32.3049 123.942 32.3407 123.931L33.0249 123.721L32.3167 123.619C32.2793 123.614 28.5871 123.078 27.7059 122.324Z" fill="#F6F6F6"/>
<path d="M115.702 204.587L112.093 196.177L113.442 196.422L110.487 204.691L107.735 204.746L112.864 192.321L118.485 204.531L115.702 204.587Z" fill="white"/>
<path d="M102.785 192.245C103.633 192.332 104.339 192.566 104.9 192.946C105.45 193.324 105.851 193.81 106.1 194.405C106.35 194.999 106.437 195.662 106.361 196.394C106.289 197.094 106.043 197.707 105.625 198.232C105.206 198.757 104.677 199.153 104.038 199.419C103.398 199.696 102.707 199.797 101.964 199.72C100.967 199.617 100.18 199.241 99.6038 198.591C99.0158 197.952 98.6827 197.075 98.6046 195.963L104.193 194.803L104.562 196.063L100.51 196.98L100.993 196.821C101.049 197.105 101.179 197.36 101.381 197.585C101.571 197.819 101.884 197.958 102.319 198.003C102.817 198.055 103.233 197.926 103.565 197.617C103.897 197.308 104.093 196.867 104.152 196.294C104.219 195.647 104.095 195.136 103.779 194.76C103.463 194.395 103.051 194.186 102.541 194.134C102.297 194.108 102.059 194.127 101.828 194.189C101.586 194.249 101.346 194.337 101.109 194.452L100.293 192.695C100.686 192.521 101.107 192.393 101.555 192.311C101.993 192.227 102.403 192.205 102.785 192.245Z" fill="white"/>
<path d="M94.4048 198.243L94.5713 196.319L94.5628 196.611C94.2836 196.98 93.9436 197.272 93.5426 197.486C93.1396 197.711 92.7552 197.869 92.3894 197.961C92.0131 198.05 91.736 198.077 91.5581 198.042L92.1003 195.865C92.6008 196.029 93.0569 196.032 93.4685 195.874C93.8801 195.715 94.2224 195.467 94.4953 195.13C94.7683 194.792 94.9439 194.424 95.0221 194.027L95.5502 191.342L97.7324 191.771L96.3829 198.632L94.4048 198.243Z" fill="white"/>
<path d="M89.551 197.154L87.3875 196.574L89.1994 189.821L91.3629 190.401L89.551 197.154ZM88.9547 199.562C88.869 199.881 88.6749 200.111 88.3723 200.251C88.0595 200.388 87.7589 200.417 87.4704 200.34C87.1819 200.263 86.9469 200.089 86.7652 199.819C86.5732 199.547 86.5201 199.251 86.6058 198.932C86.6915 198.612 86.8856 198.383 87.1881 198.243C87.4776 198.111 87.7665 198.084 88.055 198.161C88.3435 198.238 88.5902 198.41 88.7953 198.674C88.9872 198.947 89.0404 199.243 88.9547 199.562Z" fill="white"/>
<path d="M86.4178 188.983L84.7693 193.745L85.8882 194.133L85.2392 196.007L84.1203 195.62L83.3248 197.918C83.0248 198.785 82.5336 199.405 81.8513 199.779C81.1554 200.159 80.3337 200.185 79.3862 199.857C79.1039 199.759 78.8072 199.605 78.4958 199.396C78.171 199.193 77.9106 198.951 77.7148 198.669L79.1355 197.45C79.1909 197.616 79.2822 197.744 79.4094 197.833C79.523 197.929 79.6403 197.998 79.7612 198.039C80.0636 198.144 80.3455 198.129 80.6068 197.993C80.8681 197.858 81.0755 197.569 81.229 197.125L82.0036 194.887L80.0077 194.197L80.6567 192.322L82.6525 193.013L84.3011 188.25L86.4178 188.983Z" fill="white"/>
<path d="M78.0414 193.344L75.9782 192.471L78.7014 186.032L80.7645 186.904L78.0414 193.344ZM77.1197 195.647C76.9909 195.951 76.7671 196.152 76.4482 196.249C76.1195 196.341 75.8176 196.33 75.5425 196.213C75.2675 196.097 75.0585 195.893 74.9156 195.601C74.7629 195.304 74.7509 195.004 74.8797 194.7C75.0085 194.395 75.2323 194.194 75.5512 194.098C75.8561 194.006 76.1461 194.019 76.4212 194.135C76.6963 194.252 76.9171 194.455 77.0838 194.746C77.2365 195.042 77.2485 195.342 77.1197 195.647Z" fill="white"/>
<path d="M73.7461 183.412C74.5026 183.807 75.0715 184.284 75.453 184.844C75.825 185.399 76.0173 185.999 76.0299 186.643C76.0425 187.288 75.8785 187.936 75.5379 188.589C75.2122 189.213 74.7577 189.691 74.1746 190.025C73.5915 190.358 72.954 190.531 72.262 190.542C71.565 190.564 70.8856 190.401 70.2237 190.056C69.3348 189.592 68.7425 188.952 68.4466 188.136C68.1363 187.324 68.1503 186.387 68.4885 185.324L74.1106 186.309L73.9876 187.617L69.8839 186.973L70.3914 187.003C70.3388 187.288 70.3648 187.573 70.4696 187.856C70.56 188.144 70.799 188.389 71.1867 188.591C71.6312 188.823 72.0647 188.857 72.4875 188.693C72.9102 188.528 73.2548 188.191 73.5213 187.68C73.8224 187.103 73.8959 186.582 73.7418 186.117C73.5828 185.661 73.2764 185.314 72.8225 185.077C72.605 184.964 72.3772 184.893 72.1391 184.865C71.8916 184.832 71.6365 184.825 71.3738 184.845L71.2644 182.91C71.694 182.894 72.1323 182.93 72.5793 183.019C73.0167 183.103 73.4057 183.234 73.7461 183.412Z" fill="white"/>
<path d="M67.1056 179.503C67.646 179.865 68.0457 180.313 68.3045 180.846C68.5575 181.388 68.6476 181.982 68.5748 182.626C68.4932 183.265 68.2326 183.912 67.7929 184.568C67.3533 185.223 66.8461 185.692 66.2714 185.975C65.6967 186.257 65.0988 186.364 64.4777 186.294C63.8567 186.224 63.2538 185.993 62.6691 185.601C62.297 185.352 61.9813 185.056 61.7218 184.715C61.4536 184.369 61.2845 183.998 61.2146 183.605L61.6067 183.02L57.8014 188.694L55.9543 187.455L62.9856 176.971L64.8459 178.218L64.0885 179.348L64.2096 178.851C64.6772 178.805 65.1564 178.818 65.6473 178.891C66.1323 178.972 66.6184 179.176 67.1056 179.503ZM65.4428 180.661C65.0707 180.411 64.7131 180.274 64.37 180.25C64.021 180.234 63.6687 180.319 63.3132 180.504L62.3596 181.926C62.2758 182.281 62.3148 182.634 62.4765 182.987C62.6383 183.339 62.9052 183.64 63.2773 183.89C63.5519 184.074 63.8563 184.175 64.1906 184.194C64.51 184.216 64.8208 184.154 65.123 184.01C65.4251 183.866 65.6802 183.639 65.8881 183.329C66.0961 183.019 66.2123 182.692 66.2369 182.349C66.2615 182.006 66.2062 181.686 66.0709 181.39C65.9268 181.088 65.7174 180.845 65.4428 180.661Z" fill="white"/>
<path d="M51.166 167.756C51.3322 167.767 51.6053 167.829 51.9852 167.941C52.3574 168.045 52.7727 168.22 53.2312 168.465C53.6898 168.711 54.1353 169.047 54.568 169.475C55.2249 170.131 55.7129 170.824 56.0321 171.556C56.3363 172.288 56.4859 173.028 56.481 173.775C56.4684 174.515 56.3157 175.231 56.0229 175.925C55.7301 176.618 55.3076 177.254 54.7556 177.833C54.1372 178.482 53.474 178.984 52.7657 179.341C52.0497 179.69 51.3226 179.888 50.5844 179.936C49.8384 179.976 49.1076 179.862 48.392 179.592C47.6764 179.322 47.0098 178.893 46.3922 178.304C45.821 177.759 45.389 177.2 45.0961 176.626C44.8033 176.052 44.6026 175.544 44.494 175.101L46.6667 174.144C46.7199 174.475 46.8349 174.872 47.012 175.336C47.1739 175.8 47.4633 176.23 47.8801 176.628C48.3125 177.04 48.8318 177.307 49.4383 177.428C50.037 177.542 50.6473 177.505 51.269 177.317C51.8756 177.129 52.4255 176.776 52.9187 176.259C53.4413 175.711 53.7972 175.129 53.9862 174.513C54.1679 173.905 54.1762 173.302 54.011 172.702C53.8459 172.102 53.5047 171.556 52.9875 171.063C52.532 170.628 52.0722 170.33 51.6081 170.168C51.1441 170.005 50.7498 169.924 50.4254 169.924L51.166 167.756Z" fill="white"/>
<path d="M48.683 162.903C49.2255 163.562 49.563 164.224 49.6957 164.888C49.8216 165.544 49.7646 166.172 49.5249 166.77C49.2851 167.368 48.8811 167.901 48.3129 168.369C47.7695 168.816 47.1643 169.08 46.4973 169.159C45.8304 169.239 45.176 169.149 44.5343 168.89C43.8843 168.637 43.322 168.223 42.8473 167.646C42.21 166.872 41.9143 166.052 41.9604 165.185C41.9914 164.316 42.37 163.459 43.0961 162.612L47.8881 165.713L47.2646 166.869L43.7375 164.675L44.193 164.901C44.0332 165.143 43.9462 165.415 43.9321 165.717C43.9031 166.017 44.0275 166.336 44.3055 166.674C44.6242 167.061 45.0102 167.261 45.4636 167.275C45.9169 167.288 46.3659 167.112 46.8106 166.746C47.3129 166.332 47.5839 165.881 47.6236 165.392C47.6551 164.91 47.5082 164.472 47.1827 164.077C47.0267 163.887 46.8446 163.733 46.6364 163.614C46.4213 163.488 46.1891 163.382 45.9397 163.297L46.5936 161.473C46.9956 161.626 47.385 161.83 47.7618 162.087C48.1319 162.335 48.4389 162.607 48.683 162.903Z" fill="white"/>
<path d="M34.9919 166.077L33.7121 164.239L44.0731 157.027L45.3528 158.865L34.9919 166.077Z" fill="white"/>
<path d="M41.297 152.193C41.726 152.931 41.9523 153.638 41.9759 154.316C41.9942 154.984 41.8367 155.593 41.5035 156.145C41.1703 156.697 40.6855 157.157 40.0493 157.527C39.4407 157.881 38.8009 158.044 38.1299 158.014C37.4588 157.985 36.8276 157.791 36.2361 157.431C35.6354 157.077 35.1474 156.577 34.7721 155.932C34.268 155.065 34.1087 154.208 34.2942 153.36C34.465 152.508 34.9771 151.722 35.8304 151.004L40.0587 154.838L39.2569 155.878L36.1303 153.143L36.5434 153.44C36.3465 153.653 36.2168 153.907 36.1542 154.203C36.077 154.495 36.1483 154.829 36.3682 155.207C36.6202 155.641 36.9688 155.901 37.414 155.987C37.8592 156.074 38.3308 155.973 38.8287 155.683C39.3912 155.356 39.7315 154.954 39.8496 154.479C39.9585 154.008 39.8843 153.552 39.6269 153.109C39.5036 152.897 39.3488 152.715 39.1624 152.565C38.9707 152.405 38.7586 152.263 38.5261 152.139L39.4659 150.445C39.838 150.66 40.1893 150.925 40.5198 151.239C40.8449 151.543 41.104 151.861 41.297 152.193Z" fill="white"/>
<path d="M37.0809 143.787C37.3192 144.323 37.4329 144.815 37.4221 145.264C37.3972 145.707 37.2992 146.129 37.128 146.532L36.6179 146.566L37.8607 146.014L38.7705 148.061L27.2345 153.188L26.3313 151.156L32.5744 148.381L31.9165 148.674C31.5894 148.515 31.2596 148.259 30.9271 147.905C30.5946 147.551 30.3093 147.106 30.071 146.57C29.8241 146.014 29.7304 145.449 29.7899 144.874C29.8495 144.299 30.0721 143.762 30.4576 143.264C30.8291 142.76 31.3755 142.348 32.0968 142.028C32.8181 141.707 33.5112 141.586 34.1762 141.664C34.8369 141.732 35.4212 141.957 35.9291 142.338C36.4371 142.719 36.821 143.202 37.0809 143.787ZM35.5571 145.007C35.4228 144.705 35.2214 144.462 34.9528 144.278C34.6798 144.084 34.3723 143.969 34.03 143.935C33.6878 143.9 33.3461 143.959 33.0049 144.11C32.6638 144.262 32.3963 144.474 32.2024 144.747C32.0085 145.02 31.897 145.32 31.8677 145.649C31.8244 145.971 31.8699 146.284 32.0042 146.586C32.1818 146.986 32.4304 147.295 32.7499 147.515C33.0694 147.735 33.4132 147.839 33.7815 147.827L35.3459 147.132C35.5896 146.813 35.7336 146.481 35.778 146.134C35.8084 145.782 35.7347 145.407 35.5571 145.007Z" fill="white"/>
<path d="M34.4233 136.828C34.6002 137.376 34.6692 137.919 34.6304 138.459C34.5882 138.988 34.447 139.471 34.2067 139.907L32.7492 139.402C32.9387 138.982 33.0553 138.614 33.0988 138.297C33.1288 137.974 33.1078 137.7 33.0358 137.477C32.9506 137.213 32.8395 137.008 32.7026 136.862C32.5657 136.715 32.4059 136.672 32.2232 136.731C32.0506 136.786 31.9365 136.902 31.8809 137.076C31.822 137.241 31.7964 137.44 31.8043 137.673C31.8021 137.909 31.8047 138.16 31.8123 138.427C31.816 139.098 31.6794 139.63 31.4024 140.022C31.112 140.407 30.7486 140.67 30.3121 140.811C29.9771 140.919 29.6142 140.941 29.2236 140.876C28.8195 140.805 28.4435 140.613 28.0957 140.299C27.7344 139.978 27.4539 139.508 27.254 138.889C27.0738 138.331 26.9773 137.841 26.9645 137.419C26.9516 136.997 27.0164 136.573 27.1588 136.146L28.6678 136.55C28.5778 136.792 28.5214 137.051 28.4985 137.328C28.4622 137.597 28.4717 137.835 28.5271 138.041C28.6054 138.319 28.7249 138.515 28.8858 138.632C29.0364 138.751 29.1828 138.788 29.3249 138.742C29.5211 138.69 29.6504 138.57 29.7129 138.381C29.7721 138.183 29.7929 137.952 29.7752 137.689C29.7575 137.426 29.7515 137.164 29.7574 136.904C29.7658 136.375 29.8764 135.919 30.0892 135.536C30.2919 135.157 30.6419 134.887 31.1393 134.727C31.5453 134.596 31.9655 134.578 32.3997 134.673C32.8205 134.761 33.2114 134.983 33.5723 135.337C33.93 135.681 34.2136 136.178 34.4233 136.828Z" fill="white"/>
<defs>
<linearGradient id="paint0_linear_465_825" x1="112" y1="0" x2="112" y2="224" gradientUnits="userSpaceOnUse">
<stop stop-color="#323232"/>
<stop offset="0.49" stop-color="#7D7D7D"/>
<stop offset="1" stop-color="#373634"/>
</linearGradient>
<linearGradient id="paint1_linear_465_825" x1="112" y1="14.9333" x2="112" y2="209.067" gradientUnits="userSpaceOnUse">
<stop stop-color="white"/>
<stop offset="1" stop-color="#999999"/>
</linearGradient>
<linearGradient id="paint2_linear_465_825" x1="112" y1="37" x2="112" y2="187" gradientUnits="userSpaceOnUse">
<stop stop-color="white"/>
<stop offset="1" stop-color="#999999"/>
</linearGradient>
</defs>
</svg>
