<svg width="100" height="100" viewBox="0 0 100 100" fill="none" xmlns="http://www.w3.org/2000/svg">
<g filter="url(#filter0_d_337_5330)">
<circle cx="46" cy="40" r="30" fill="#20CDEB"/>
</g>
<path d="M45.101 32.2752L42.8443 33.2238C42.841 33.2251 42.8383 33.2271 42.8356 33.2291C42.833 33.2311 42.8303 33.2331 42.827 33.2345L42.8455 33.2809C42.8457 33.2808 42.8459 33.2807 42.8461 33.2807C42.8555 33.2768 42.8627 33.2714 42.8652 33.2695L42.8656 33.2691L45.101 32.2752ZM45.101 32.2752C45.3736 32.1602 45.5005 31.8476 45.387 31.5764M45.101 32.2752L45.387 31.5764M45.387 31.5764L44.4183 29.2782M45.387 31.5764L44.4183 29.2782M44.4183 29.2782C44.302 29.0083 43.9907 28.8841 43.7208 28.9963L44.4183 29.2782ZM42.8659 33.269L45.1204 32.3212L45.1204 32.3212C45.4184 32.1956 45.5573 31.8537 45.4331 31.557L45.433 31.5569L44.4644 29.2588L44.4642 29.2585C44.3371 28.9632 43.9966 28.8275 43.7016 28.9502L43.7016 28.9502L42.436 29.4789C42.4315 29.4806 42.4279 29.4825 42.4253 29.4841C42.4223 29.4859 42.4198 29.4877 42.4182 29.4889L42.4172 29.4897L39.3818 30.7674H39.3804L39.3711 30.7714L33.2492 33.3501L33.2492 33.3501L30.3072 34.5899C30.1638 34.6499 30.0513 34.7654 29.993 34.9084C29.9344 35.0518 29.936 35.2125 29.9958 35.3554L29.9959 35.3556L30.9178 37.5428V39.9163V39.919V49.0498C30.9178 49.3727 31.1794 49.6343 31.5023 49.6343L46.0312 49.6356C46.3542 49.6356 46.6154 49.3739 46.6154 49.0511V37.4271C46.6154 37.1042 46.3539 36.8427 46.031 36.8427H40.2584C40.257 36.8424 40.251 36.8413 40.2442 36.8413H34.3937L36.7244 35.8592L36.7244 35.8592L39.7828 34.5709C39.7848 34.5703 39.7868 34.5694 39.789 34.5683C39.7906 34.5675 39.7923 34.5666 39.794 34.5654L42.8659 33.269ZM42.4845 38.441L42.4845 38.4411L42.0941 39.333H40.0494L40.6257 38.0114H42.6729L42.4845 38.441ZM43.9496 38.0114H45.4462L45.4462 39.333H43.3708L43.5592 38.9034L43.5592 38.9034L43.9496 38.0114ZM44.1268 31.4705L43.2146 31.8532L43.2322 30.663L43.2322 30.6629L43.2358 30.4098L43.615 30.2519L44.1268 31.4705ZM32.0837 39.333V38.0101H32.7069L32.1293 39.333H32.0837ZM32.0837 40.5019H45.4462V45.9762H32.0837V40.5019ZM38.7724 39.333H36.7264L37.304 38.0101H39.35L38.7724 39.333ZM36.0285 38.0101L35.4509 39.333H33.4048L33.9825 38.0101H36.0285ZM34.0541 34.2804L35.9389 33.4864L35.9178 34.9298L34.0329 35.7238L34.0541 34.2804ZM37.1151 32.991L38.9999 32.197L38.9788 33.6404L37.0939 34.4344L37.1151 32.991ZM42.0608 30.9078L42.0372 32.3524L40.155 33.1451L40.1761 31.7017L42.0608 30.9078ZM31.2961 35.4415L32.8764 34.777L32.8552 36.2204L31.8091 36.66L31.2961 35.4415ZM45.4462 48.4667H32.0837V47.1451H45.4462V48.4667Z" fill="white" stroke="white" stroke-width="0.1"/>
<path d="M47.2171 34.4635C47.2202 34.4626 47.2229 34.462 47.2236 34.4619L47.2237 34.4618L47.238 34.459C47.2397 34.4587 47.2414 34.4583 47.2432 34.458C47.2539 34.456 47.2669 34.4535 47.2799 34.4508C47.2802 34.4507 47.2804 34.4507 47.2806 34.4506L47.2171 34.4635ZM47.2171 34.4635C47.1386 34.4785 47.0601 34.4994 47.0106 34.5141M47.2171 34.4635L47.0106 34.5141M47.0106 34.5141C46.9496 34.5287 46.8853 34.5464 46.8409 34.5634M47.0106 34.5141L46.0329 35.6573L46.0321 35.6565L46.0303 35.6546C46.0296 35.6538 46.0283 35.6523 46.0269 35.6503C46.0257 35.649 46.0246 35.6476 46.0235 35.646C46.0217 35.6434 46.0201 35.6406 46.0188 35.6378C46.0071 35.6164 45.9999 35.595 45.9945 35.5759C45.9918 35.5664 45.9897 35.5585 45.9878 35.5512C45.9851 35.5408 45.9827 35.5317 45.9792 35.521L45.9792 35.5208C45.9764 35.5121 45.9732 35.5042 45.9693 35.4945C45.9675 35.4903 45.9657 35.4858 45.9637 35.4806C45.9577 35.4657 45.9509 35.4468 45.948 35.4261M46.8409 34.5634C46.8413 34.5633 46.8417 34.5632 46.8421 34.563L46.8579 34.6105L46.8398 34.5639C46.8402 34.5637 46.8406 34.5636 46.8409 34.5634ZM46.8409 34.5634C46.8323 34.5664 46.825 34.5693 46.8188 34.5717C46.809 34.5752 46.7994 34.579 46.7905 34.5825L46.7902 34.5826C46.7807 34.5864 46.7721 34.5898 46.7636 34.5928L46.7636 34.5928L46.7623 34.5933C46.747 34.5992 46.7306 34.6053 46.7139 34.6115C46.6816 34.6235 46.6482 34.636 46.6194 34.6486M46.6194 34.6486C46.6192 34.6487 46.6189 34.6488 46.6187 34.6488L46.6388 34.6947L46.6202 34.6482C46.6199 34.6483 46.6196 34.6485 46.6194 34.6486ZM46.6194 34.6486C46.6103 34.6523 46.6018 34.6572 46.5959 34.6607C46.4769 34.7117 46.3582 34.7683 46.2444 34.8361L46.2444 34.836L46.2429 34.837C46.2429 34.837 46.2429 34.837 46.2428 34.8371H46.2359L46.2261 34.8469L46.208 34.8589L46.208 34.86C46.1974 34.8684 46.1883 34.877 46.1804 34.8849C46.1759 34.8894 46.1721 34.8934 46.1685 34.897C46.1616 34.9041 46.1558 34.9101 46.1489 34.9163C46.1405 34.9235 46.1337 34.9289 46.1264 34.9347C46.1202 34.9397 46.1136 34.945 46.1051 34.9521C46.0896 34.9652 46.0727 34.9806 46.0581 34.9994L46.0581 34.9994L46.0579 34.9996C46.0453 35.0162 46.0373 35.0337 46.0314 35.0476C46.0295 35.052 46.0279 35.056 46.0264 35.0596C46.0227 35.0686 46.0199 35.0756 46.016 35.0829L46.016 35.0829L46.0159 35.0832C46.0116 35.0914 46.007 35.0996 46.0021 35.1085L46.0018 35.109C45.997 35.1176 45.9919 35.1268 45.987 35.1363C45.9771 35.1554 45.9671 35.1774 45.961 35.2022M45.961 35.2022C45.961 35.202 45.9611 35.2018 45.9611 35.2017L46.0095 35.2144L45.9609 35.2027C45.9609 35.2025 45.961 35.2023 45.961 35.2022ZM45.961 35.2022C45.9561 35.2209 45.9555 35.2388 45.9553 35.2527C45.9553 35.2569 45.9552 35.2606 45.9552 35.264C45.9552 35.2734 45.9552 35.2806 45.9544 35.2883L45.9544 35.2884C45.9535 35.2978 45.9522 35.3074 45.9509 35.3179L45.9509 35.3181C45.9495 35.3283 45.9481 35.3394 45.947 35.3508C45.9448 35.3734 45.9438 35.399 45.948 35.4261M45.948 35.4261C45.948 35.4259 45.9479 35.4257 45.9479 35.4256L45.9975 35.4188L45.9481 35.4265C45.948 35.4264 45.948 35.4262 45.948 35.4261ZM46.2318 34.8439C46.232 34.8438 46.2321 34.8438 46.2321 34.8437C46.2322 34.8437 46.2323 34.8437 46.2323 34.8437C46.2324 34.8436 46.2323 34.8437 46.2319 34.8439C46.2356 34.8416 46.2395 34.84 46.2433 34.8389C46.2441 34.8387 46.2449 34.8385 46.2458 34.8383C46.2495 34.8374 46.2532 34.8371 46.2567 34.8371H46.245H46.2429C46.2427 34.8372 46.2425 34.8373 46.2423 34.8374L46.2318 34.8439ZM46.2318 34.8439C46.2318 34.8439 46.2319 34.8439 46.2319 34.8439M47.2804 34.5017C47.2703 34.5037 47.2606 34.5056 47.2525 34.5071C47.2458 34.5084 47.2402 34.5095 47.2365 34.5102L47.232 34.4616C47.2326 34.4616 47.2345 34.4616 47.237 34.4619C47.2382 34.462 47.2408 34.4623 47.2439 34.4631L47.244 34.4632C47.246 34.4637 47.2543 34.4658 47.2627 34.4726C47.2676 34.4764 47.2744 34.4834 47.2784 34.4944C47.2793 34.4968 47.28 34.4993 47.2804 34.5017Z" fill="white" stroke="white" stroke-width="0.1"/>
<path d="M50.1474 29.5332L50.1474 29.5332L50.1472 29.5331C49.0171 29.213 47.8284 29.8709 47.5015 31.0023L47.5014 31.0024C47.3428 31.5536 47.4085 32.1325 47.6875 32.6332C47.9665 33.1337 48.4222 33.495 48.9695 33.6496C49.1661 33.7056 49.3658 33.7344 49.5657 33.7344C49.9229 33.7344 50.2746 33.644 50.5946 33.4676L50.5946 33.4676C51.0953 33.1913 51.4593 32.7342 51.6179 32.1817L51.6198 32.1823V32.1721C51.9368 31.0413 51.2778 29.8595 50.1474 29.5332ZM49.2922 32.5247L49.2919 32.5246L48.7102 32.0636C48.7102 32.0636 48.7102 32.0636 48.7102 32.0636C48.5843 31.8359 48.5539 31.5744 48.6263 31.3255L48.6263 31.3254C48.7496 30.8985 49.141 30.62 49.5643 30.62C49.6508 30.62 49.7396 30.6314 49.827 30.6567L49.827 30.6567C50.3404 30.8054 50.6403 31.3444 50.4943 31.8589C50.4218 32.1107 50.2566 32.3177 50.0292 32.4435L50.0533 32.4873L50.0292 32.4435C49.8032 32.5679 49.5416 32.596 49.2922 32.5247Z" fill="white" stroke="white" stroke-width="0.1"/>
<path d="M62.1077 35.0164L62.1106 35.0154L62.1063 34.9762C62.1062 34.9757 62.1062 34.9752 62.1062 34.9743C62.1062 34.973 62.1063 34.971 62.1065 34.9673L62.1065 34.9665C62.1068 34.9611 62.1074 34.9518 62.1063 34.9415L62.1062 34.9409C62.0989 34.8815 62.0829 34.8213 62.0549 34.7636L62.1077 35.0164ZM62.1077 35.0164C62.1081 35.0613 62.1029 35.1053 62.0916 35.1509M62.1077 35.0164L57.6178 31.4702L57.6659 31.4839M59.1679 28.9893L59.2006 28.9516C59.2007 28.9516 59.2008 28.9517 59.2009 28.9517C59.2445 28.9896 59.2827 29.0336 59.3137 29.0852L59.3142 29.0861C59.3151 29.0877 59.3162 29.0893 59.3195 29.0936C59.3223 29.0973 59.3271 29.1037 59.3316 29.1115L59.3325 29.1132C59.3328 29.1136 59.3335 29.1144 59.3345 29.1158L59.335 29.1163C59.3375 29.1194 59.3431 29.1264 59.3476 29.1353L59.3479 29.136L62.0548 34.7634L59.001 28.8373C59.0017 28.8378 59.002 28.8379 59.002 28.8379C59.002 28.8379 59.0014 28.8376 59.0008 28.8374L58.9822 28.8838M59.1679 28.9893C59.1559 28.9786 59.1452 28.9706 59.1318 28.9613M59.1679 28.9893C59.208 29.0241 59.2427 29.0642 59.2708 29.1109M59.1679 28.9893L59.2708 29.1109M59.1318 28.9613L59.1614 28.921C59.1613 28.9209 59.1611 28.9208 59.161 28.9207C59.1608 28.9205 59.1607 28.9204 59.1605 28.9203L59.1318 28.9613ZM59.1318 28.9613C59.0864 28.9279 59.0356 28.9012 58.9822 28.8838M58.9822 28.8838C58.9788 28.8824 58.9762 28.8808 58.9735 28.8791C58.9708 28.8774 58.9682 28.8758 58.9648 28.8744M58.9822 28.8838L58.9976 28.8362L58.9648 28.8744M58.9648 28.8744L58.9421 28.8678M58.9648 28.8744L59 28.8367C58.9976 28.8352 58.9914 28.8312 58.9834 28.828L58.9835 28.8278L58.9789 28.8265L58.9574 28.8201M58.9421 28.8678L58.9579 28.8203L58.9574 28.8201M58.9421 28.8678L58.9562 28.8198L58.9574 28.8201M58.9421 28.8678C58.9381 28.8664 58.9354 28.8651 58.9314 28.8651M58.9574 28.8201L58.9561 28.8197L58.9511 28.818C58.9482 28.8171 58.9447 28.8163 58.9407 28.8157M58.9407 28.8157L58.9452 28.817L58.9314 28.8651M58.9407 28.8157L45.5162 24.9732L45.5021 25.0212M58.9407 28.8157C58.9378 28.8153 58.9347 28.8151 58.9314 28.8151V28.8651M58.9314 28.8651L45.5021 25.0212M45.5021 25.0212L45.5159 24.9731L45.5161 24.9732C45.3669 24.9294 45.2061 24.9484 45.0716 25.0243M45.5021 25.0212C45.3659 24.9811 45.2189 24.9985 45.096 25.068M45.096 25.068L45.0719 25.0241C45.0718 25.0242 45.0717 25.0242 45.0716 25.0243M45.096 25.068L45.0714 25.0244C45.0714 25.0244 45.0715 25.0243 45.0716 25.0243M45.096 25.068C44.9717 25.1361 44.8808 25.2524 44.8421 25.3873L44.2702 27.3861M45.0716 25.0243C44.9355 25.099 44.8363 25.2262 44.794 25.3735L44.794 25.3735L44.2222 27.3723L44.2702 27.3861M44.2702 27.3861C44.1887 27.6694 44.3531 27.966 44.6363 28.0475M44.2702 27.3861L44.2222 27.3724M44.6363 28.0475L44.2222 27.3724M44.6363 28.0475L44.6224 28.0955M44.6363 28.0475L44.6225 28.0955C44.6225 28.0955 44.6225 28.0955 44.6225 28.0955L44.6224 28.0955M44.6363 28.0475C44.9182 28.129 45.2162 27.9647 45.2977 27.6814M44.6363 28.0475L45.2977 27.6814M44.2222 27.3724C44.1331 27.6822 44.3128 28.0064 44.6224 28.0955M44.2222 27.3724L44.6224 28.0955M45.2977 27.6814L45.7088 26.2437L45.7569 26.2575M45.2977 27.6814L45.7569 26.2575M45.7569 26.2575L45.7707 26.2094L58.1575 29.7549M45.7569 26.2575L58.0958 29.7893M58.1575 29.7549L58.1094 29.7413L58.0958 29.7893M58.1575 29.7549L58.1438 29.803L58.0958 29.7893M58.1575 29.7549L57.6659 31.4839M58.0958 29.7893L57.6178 31.4701L57.6659 31.4839M57.6659 31.4839L57.0245 33.7299C56.9844 33.8728 57.0058 34.0185 57.0726 34.1374M57.0726 34.1374L57.029 34.1617C57.029 34.1618 57.029 34.1618 57.029 34.1619C57.0634 34.2233 57.11 34.2788 57.1648 34.3247C57.167 34.3272 57.1701 34.3303 57.1741 34.3331C57.1748 34.3336 57.1755 34.334 57.1762 34.3345C57.2349 34.381 57.3034 34.4176 57.3788 34.4404L57.3796 34.4406L59.6429 35.086L59.6429 35.086L60.804 35.4182L55.2747 54.7422L40.905 50.6276C40.5939 50.5385 40.2709 50.7182 40.1818 51.0279C40.0927 51.3377 40.2724 51.662 40.5821 51.7511L40.5822 51.7512L55.5136 56.0264C55.5137 56.0265 55.5139 56.0265 55.514 56.0266C55.5671 56.0428 55.6213 56.05 55.6751 56.05C55.7731 56.05 55.8709 56.0252 55.9584 55.977M57.0726 34.1374C57.1047 34.1948 57.1488 34.2469 57.2009 34.2897L57.0726 34.1374ZM55.9584 55.977C55.9584 55.977 55.9584 55.977 55.9584 55.977L55.9343 55.9332L55.9584 55.977ZM55.9584 55.977C56.0947 55.9023 56.1939 55.7751 56.2363 55.6277L56.2363 55.6276L62.0881 35.1806M62.0881 35.1806C62.0901 35.1741 62.0909 35.1682 62.0912 35.1639C62.0915 35.1597 62.0915 35.1558 62.0915 35.1537V35.1534C62.0915 35.1522 62.0916 35.1514 62.0916 35.1509M62.0881 35.1806C62.0879 35.1811 62.0878 35.1816 62.0876 35.182L62.0402 35.1662M62.0881 35.1806L62.0883 35.18L62.0402 35.1662M62.0916 35.1509C62.0916 35.1503 62.0916 35.15 62.0916 35.15C62.0916 35.15 62.0915 35.1507 62.0913 35.1516C62.0913 35.1518 62.0913 35.152 62.0912 35.1523L62.0914 35.1516C62.0914 35.1514 62.0915 35.1511 62.0916 35.1509ZM62.0402 35.1662L56.1882 55.6139L62.0429 35.1395C62.0415 35.1442 62.0415 35.1489 62.0415 35.1534C62.0415 35.1579 62.0415 35.1622 62.0402 35.1662ZM59.2708 29.1109C59.2735 29.1156 59.2765 29.1196 59.2795 29.1236M59.2708 29.1109L59.2795 29.1236M59.2955 29.147C59.2982 29.1503 59.3008 29.1537 59.3028 29.1577L59.2955 29.147ZM59.2955 29.147C59.2928 29.1437 59.2902 29.1403 59.2881 29.1363M59.2955 29.147L59.2881 29.1363M59.2881 29.1363C59.2855 29.1316 59.2825 29.1276 59.2795 29.1236M59.2881 29.1363L59.2795 29.1236M62.0566 34.9643C62.0569 34.9587 62.0572 34.953 62.0566 34.947V34.9817C62.0559 34.9757 62.0562 34.97 62.0566 34.9643ZM58.9607 31.028L60.4374 34.0974L58.2636 33.475L58.7604 31.7287L58.7604 31.7286L58.9607 31.028ZM57.1598 34.318C57.1595 34.3176 57.1594 34.3173 57.1594 34.3174L57.1595 34.3176L57.1598 34.3179L57.1598 34.318Z" fill="white" stroke="white" stroke-width="0.1"/>
<defs>
<filter id="filter0_d_337_5330" x="0" y="0" width="100" height="100" filterUnits="userSpaceOnUse" color-interpolation-filters="sRGB">
<feFlood flood-opacity="0" result="BackgroundImageFix"/>
<feColorMatrix in="SourceAlpha" type="matrix" values="0 0 0 0 0 0 0 0 0 0 0 0 0 0 0 0 0 0 127 0" result="hardAlpha"/>
<feOffset dx="4" dy="10"/>
<feGaussianBlur stdDeviation="10"/>
<feComposite in2="hardAlpha" operator="out"/>
<feColorMatrix type="matrix" values="0 0 0 0 0.862745 0 0 0 0 0.054902 0 0 0 0 0.054902 0 0 0 0.2 0"/>
<feBlend mode="normal" in2="BackgroundImageFix" result="effect1_dropShadow_337_5330"/>
<feBlend mode="normal" in="SourceGraphic" in2="effect1_dropShadow_337_5330" result="shape"/>
</filter>
</defs>
</svg>
