<svg width="100" height="100" viewBox="0 0 100 100" fill="none" xmlns="http://www.w3.org/2000/svg">
<g filter="url(#filter0_d_337_5375)">
<circle cx="46" cy="40" r="30" fill="#20CDEB"/>
</g>
<path d="M47.0671 54.5243C46.7172 54.663 46.3631 54.7936 46.0005 54.9062C43.1155 53.9954 40.5555 52.2698 38.6289 49.9373L37.7063 50.501C39.8136 53.0972 42.6494 55.0036 45.849 55.9749C45.9488 56.0049 46.0553 56.0049 46.1551 55.9749C46.4724 55.88 46.7791 55.7616 47.0874 55.6491C47.0768 55.5879 47.07 55.5261 47.0671 55.464V54.5243Z" fill="white"/>
<path d="M55.028 36.9873C55.0424 37.0118 55.0541 37.0406 55.0685 37.063V31.0381C55.0686 30.9087 55.0216 30.7837 54.9363 30.6864C54.8511 30.589 54.7333 30.526 54.605 30.5091C51.6784 30.125 48.8482 29.2028 46.257 27.7891C46.1787 27.7465 46.091 27.7241 46.0018 27.7241C45.9127 27.7241 45.8249 27.7465 45.7466 27.7891C43.1556 29.2027 40.3255 30.1249 37.3991 30.5091C37.2706 30.5257 37.1524 30.5885 37.0668 30.6859C36.9812 30.7833 36.9341 30.9085 36.9341 31.0381V39.4917C36.937 40.9009 37.1528 42.3015 37.5741 43.6463L38.5298 43.1258C38.1818 41.9457 38.0037 40.722 38.0007 39.4917V31.5005C40.7975 31.08 43.5026 30.1875 46.0005 28.8611C48.4984 30.1875 51.2035 31.08 54.0003 31.5005V35.3991C54.3613 35.9094 54.709 36.4342 55.028 36.9873Z" fill="white"/>
<path d="M51.6225 46.9938C50.2274 49.0142 48.2736 50.5841 46.0003 51.5116C44.2339 50.7912 42.6558 49.676 41.3871 48.2514L40.4634 48.8157C41.9122 50.4883 43.7475 51.7819 45.8099 52.5841C45.9334 52.631 46.0698 52.631 46.1933 52.5841C49.0747 51.4596 51.4937 49.3981 53.0609 46.7314C52.6963 46.9132 52.2949 47.009 51.8876 47.0114C51.799 47.0101 51.7105 47.0042 51.6225 46.9938Z" fill="white"/>
<path d="M50.5246 43.5176C50.4441 43.6461 50.3819 43.7852 50.3401 43.931C50.2857 44.1339 50.2719 44.3456 50.2993 44.5539C50.3268 44.7622 50.395 44.9631 50.5001 45.1451C50.6052 45.327 50.7451 45.4865 50.9118 45.6144C51.0785 45.7422 51.2688 45.836 51.4718 45.8904C51.6079 45.9262 51.7481 45.9442 51.8888 45.9437C52.1696 45.9444 52.4456 45.8708 52.6888 45.7304L56.3836 43.5971C56.6927 43.421 56.934 43.1466 57.0691 42.8176C57.2042 42.4885 57.2253 42.1237 57.129 41.7813C57.0328 41.4388 56.8248 41.1384 56.538 40.9279C56.2513 40.7174 55.9024 40.6089 55.5469 40.6196C54.7679 38.468 53.6163 36.4703 52.1448 34.7179C52.3293 34.415 52.4076 34.0592 52.3672 33.7068C52.3269 33.3544 52.1701 33.0256 51.9219 32.7722C51.6736 32.5189 51.348 32.3556 50.9965 32.3081C50.645 32.2606 50.2877 32.3316 49.9811 32.51L46.2863 34.6432C45.9808 34.8191 45.7419 35.091 45.6068 35.4166C45.4716 35.7422 45.4478 36.1033 45.539 36.4438C45.6303 36.7843 45.8314 37.0852 46.1112 37.2997C46.391 37.5141 46.7338 37.6302 47.0863 37.6298C47.0975 37.6298 47.1082 37.6255 47.1194 37.6255C47.3167 38.1749 47.5503 38.7322 47.8127 39.2847L31.0932 48.3895C30.7235 48.5906 30.423 48.8984 30.2308 49.2728C30.0387 49.6472 29.9639 50.0709 30.0162 50.4885C30.0685 50.906 30.2454 51.2982 30.5239 51.6137C30.8024 51.9292 31.1696 52.1534 31.5774 52.2571C31.848 52.3272 32.13 52.3418 32.4064 52.3001C32.6829 52.2584 32.948 52.1612 33.1859 52.0145L49.4318 42.0857C49.7806 42.5881 50.147 43.0696 50.5246 43.5176ZM55.5805 41.6788C55.6977 41.679 55.8116 41.7178 55.9045 41.7892C55.9975 41.8607 56.0643 41.9607 56.0946 42.074C56.125 42.1872 56.1172 42.3073 56.0725 42.4156C56.0277 42.524 55.9485 42.6146 55.8471 42.6734L52.1523 44.8067C52.0297 44.8771 51.8842 44.8963 51.7475 44.86C51.6456 44.8327 51.5541 44.7758 51.4846 44.6965C51.415 44.6172 51.3706 44.519 51.3568 44.4144C51.343 44.3098 51.3606 44.2035 51.4073 44.1089C51.4539 44.0143 51.5276 43.9357 51.619 43.883L55.3138 41.7497C55.3948 41.7027 55.4868 41.6779 55.5805 41.6777V41.6788ZM53.1805 38.0549C53.7201 38.9819 54.1759 39.9551 54.5426 40.963L51.3214 42.8243C50.6332 42.0016 50.0191 41.1196 49.4862 40.1887C48.9466 39.2609 48.4911 38.2868 48.1252 37.2778L51.3448 35.4187C52.0323 36.242 52.6467 37.1237 53.1811 38.0538L53.1805 38.0549ZM46.6244 36.297C46.5537 36.1746 46.5346 36.029 46.5712 35.8924C46.6078 35.7557 46.6972 35.6393 46.8196 35.5685L50.5139 33.4353C50.5746 33.4002 50.6416 33.3774 50.7111 33.3682C50.7806 33.359 50.8512 33.3636 50.9189 33.3817C50.9866 33.3999 51.0501 33.4312 51.1057 33.4738C51.1613 33.5165 51.208 33.5697 51.243 33.6305C51.3137 33.753 51.3329 33.8985 51.2963 34.0351C51.2597 34.1718 51.1703 34.2882 51.0478 34.359L47.3535 36.4922C47.2928 36.5273 47.2258 36.5501 47.1563 36.5593C47.0868 36.5685 47.0162 36.5639 46.9485 36.5458C46.8808 36.5276 46.8173 36.4963 46.7617 36.4537C46.7061 36.411 46.6595 36.3578 46.6244 36.297ZM32.6297 51.1041C32.5127 51.1764 32.3824 51.2245 32.2465 51.2456C32.1105 51.2666 31.9718 51.2601 31.8384 51.2265C31.705 51.1929 31.5798 51.1329 31.4701 51.05C31.3603 50.967 31.2684 50.8629 31.1996 50.7438C31.1309 50.6246 31.0868 50.4929 31.0699 50.3564C31.0531 50.2199 31.0638 50.0814 31.1015 49.9492C31.1391 49.8169 31.203 49.6935 31.2892 49.5864C31.3755 49.4792 31.4824 49.3905 31.6036 49.3255L48.2964 40.2361C48.3839 40.3961 48.4697 40.5615 48.5631 40.7204C48.6564 40.8793 48.7535 41.035 48.85 41.1918L32.6297 51.1041Z" fill="white"/>
<path d="M35.6685 44.6835C35.0969 43.0121 34.8038 41.2582 34.8008 39.4917V28.5736C38.7745 28.4756 42.6464 27.2967 46.0004 25.1636C49.3545 27.2967 53.2264 28.4756 57.2001 28.5736V39.4917C57.2001 39.6922 57.1921 39.8912 57.1846 40.0906C57.4699 40.302 57.7092 40.5691 57.8881 40.8757C58.0001 41.0771 58.0855 41.2922 58.142 41.5156C58.2234 40.844 58.2651 40.1682 58.2668 39.4917V28.0467C58.2668 27.9053 58.2106 27.7696 58.1105 27.6696C58.0105 27.5696 57.8749 27.5134 57.7334 27.5134C53.7675 27.512 49.8845 26.3774 46.5418 24.2431L46.2879 24.0831C46.2024 24.0288 46.1033 24 46.002 24C45.9008 24 45.8017 24.0288 45.7162 24.0831L45.4613 24.2431C42.118 26.3779 38.2342 27.5126 34.2674 27.5134C34.126 27.5134 33.9904 27.5696 33.8903 27.6696C33.7903 27.7696 33.7341 27.9053 33.7341 28.0467V39.4917C33.7376 41.436 34.0712 43.3656 34.7208 45.1982L35.6685 44.6835Z" fill="white"/>
<path d="M56.9138 44.5203L56.2738 44.8937C55.6704 46.594 54.7909 48.1832 53.6707 49.5975H54.9912C56.2452 47.8541 57.1672 45.8945 57.7111 43.8169C57.4957 44.1029 57.2244 44.3423 56.9138 44.5203Z" fill="white"/>
<path d="M60.4001 52.7973H59.8668V52.264C59.8668 51.8397 59.6982 51.4327 59.3982 51.1327C59.0981 50.8326 58.6912 50.6641 58.2668 50.6641H51.867C51.4427 50.6641 51.0357 50.8326 50.7357 51.1327C50.4356 51.4327 50.2671 51.8397 50.2671 52.264V52.7973H49.7337C49.3094 52.7973 48.9025 52.9659 48.6024 53.2659C48.3024 53.566 48.1338 53.973 48.1338 54.3973V55.4639C48.1338 55.6054 48.19 55.741 48.29 55.841C48.39 55.9411 48.5257 55.9972 48.6671 55.9972H61.4667C61.6082 55.9972 61.7438 55.9411 61.8438 55.841C61.9439 55.741 62.0001 55.6054 62.0001 55.4639V54.3973C62.0001 53.973 61.8315 53.566 61.5314 53.2659C61.2314 52.9659 60.8244 52.7973 60.4001 52.7973ZM51.3337 52.264C51.3337 52.1226 51.3899 51.9869 51.4899 51.8869C51.5899 51.7869 51.7256 51.7307 51.867 51.7307H58.2668C58.4083 51.7307 58.5439 51.7869 58.6439 51.8869C58.744 51.9869 58.8001 52.1226 58.8001 52.264V52.7973H51.3337V52.264ZM60.9334 54.9306H49.2004V54.3973C49.2004 54.2558 49.2566 54.1202 49.3566 54.0202C49.4566 53.9202 49.5923 53.864 49.7337 53.864H60.4001C60.5415 53.864 60.6772 53.9202 60.7772 54.0202C60.8772 54.1202 60.9334 54.2558 60.9334 54.3973V54.9306Z" fill="white"/>
<defs>
<filter id="filter0_d_337_5375" x="0" y="0" width="100" height="100" filterUnits="userSpaceOnUse" color-interpolation-filters="sRGB">
<feFlood flood-opacity="0" result="BackgroundImageFix"/>
<feColorMatrix in="SourceAlpha" type="matrix" values="0 0 0 0 0 0 0 0 0 0 0 0 0 0 0 0 0 0 127 0" result="hardAlpha"/>
<feOffset dx="4" dy="10"/>
<feGaussianBlur stdDeviation="10"/>
<feComposite in2="hardAlpha" operator="out"/>
<feColorMatrix type="matrix" values="0 0 0 0 0.862745 0 0 0 0 0.054902 0 0 0 0 0.054902 0 0 0 0.2 0"/>
<feBlend mode="normal" in2="BackgroundImageFix" result="effect1_dropShadow_337_5375"/>
<feBlend mode="normal" in="SourceGraphic" in2="effect1_dropShadow_337_5375" result="shape"/>
</filter>
</defs>
</svg>
