<svg width="100" height="100" viewBox="0 0 100 100" fill="none" xmlns="http://www.w3.org/2000/svg">
<g filter="url(#filter0_d_337_5747)">
<circle cx="46" cy="40" r="30" fill="#DC0E0E"/>
</g>
<path d="M50.8871 40.2461C50.8871 37.8279 48.9245 35.8653 46.5063 35.8653C44.0881 35.8653 42.1256 37.8279 42.1256 40.2461C42.1256 42.6643 44.0881 44.6268 46.5063 44.6268C48.9245 44.6268 50.8871 42.6643 50.8871 40.2461ZM43.6954 40.2461C43.6954 38.6986 44.9588 37.4352 46.5063 37.4352C48.0538 37.4352 49.3172 38.6986 49.3172 40.2461C49.3172 41.7935 48.0538 43.057 46.5063 43.057C44.9588 43.057 43.6954 41.7935 43.6954 40.2461Z" fill="white" stroke="white" stroke-width="0.2"/>
<path d="M37.8723 57.0963C37.8175 57.5267 38.1153 57.9201 38.5478 57.9752C38.9711 58.03 39.3717 57.7326 39.4268 57.2998C39.4268 57.2997 39.4268 57.2997 39.4268 57.2996L40.3377 50.2795C40.6052 48.2266 42.3642 46.6817 44.4303 46.6817H48.574C50.6404 46.6817 52.4058 48.2268 52.6665 50.2792L52.6666 50.2795L53.5775 57.2999L53.5776 57.3009C53.6325 57.6924 53.9689 57.9829 54.3547 57.9829H54.3549H54.3551H54.3552H54.3554H54.3555H54.3557H54.3559H54.356H54.3562H54.3564H54.3565H54.3567H54.3568H54.357H54.3572H54.3573H54.3575H54.3577H54.3578H54.358H54.3581H54.3583H54.3585H54.3586H54.3588H54.359H54.3591H54.3593H54.3595H54.3596H54.3598H54.36H54.3601H54.3603H54.3605H54.3606H54.3608H54.361H54.3611H54.3613H54.3614H54.3616H54.3618H54.3619H54.3621H54.3623H54.3624H54.3626H54.3628H54.363H54.3631H54.3633H54.3635H54.3636H54.3638H54.364H54.3641H54.3643H54.3645H54.3646H54.3648H54.365H54.3651H54.3653H54.3655H54.3656H54.3658H54.366H54.3662H54.3663H54.3665H54.3667H54.3668H54.367H54.3672H54.3673H54.3675H54.3677H54.3679H54.368H54.3682H54.3684H54.3685H54.3687H54.3689H54.3691H54.3692H54.3694H54.3696H54.3698H54.3699H54.3701H54.3703H54.3704H54.3706H54.3708H54.371H54.3711H54.3713H54.3715H54.3717H54.3718H54.372H54.3722H54.3723H54.3725H54.3727H54.3729H54.373H54.3732H54.3734H54.3736H54.3737H54.3739H54.3741H54.3743H54.3744H54.3746H54.3748H54.375H54.3751H54.3753H54.3755H54.3757H54.3758H54.376H54.3762H54.3764H54.3765H54.3767H54.3769H54.3771H54.3772H54.3774H54.3776H54.3778H54.3779H54.3781H54.3783H54.3785H54.3786H54.3788H54.379H54.3792H54.3794H54.3795H54.3797H54.3799H54.3801H54.3802H54.3804H54.3806H54.3808H54.3809H54.3811H54.3813H54.3815H54.3817H54.3818H54.382H54.3822H54.3824H54.3825H54.3827H54.3829H54.3831H54.3833H54.3834H54.3836H54.3838H54.384H54.3842H54.3843H54.3845H54.3847H54.3849H54.385H54.3852H54.3854H54.3856H54.3858H54.3859H54.3861H54.3863H54.3865H54.3867H54.3868H54.387H54.3872H54.3874H54.3876H54.3877H54.3879H54.3881H54.3883H54.3884H54.3886H54.3888H54.389H54.3892H54.3893H54.3895H54.3897H54.3899H54.3901H54.3902H54.3904H54.3906H54.3908H54.391H54.3911H54.3913H54.3915H54.3917H54.3919H54.392H54.3922H54.3924H54.3926H54.3928H54.3929H54.3931H54.3933H54.3935H54.3937H54.3938H54.394H54.3942H54.3944H54.3946H54.3947H54.3949H54.3951H54.3953H54.3955H54.3957H54.3958H54.396H54.3962H54.3964H54.3966H54.3967H54.3969H54.3971H54.3973H54.3975H54.3976H54.3978H54.398H54.3982H54.3984H54.3985H54.3987H54.3989H54.3991H54.3993H54.3994H54.3996H54.3998H54.4H54.4002H54.4003H54.4005H54.4007H54.4009H54.4011H54.4012H54.4014H54.4016H54.4018H54.402H54.4022H54.4023H54.4025H54.4027H54.4029H54.4031H54.4032H54.4034H54.4036H54.4038H54.404H54.4041H54.4043H54.4045H54.4047H54.4049H54.405H54.4052H54.4054H54.4056H54.4058H54.4059H54.4061H54.4063H54.4065H54.4067H54.4068H54.407H54.4072H54.4074H54.4076H54.4077H54.4079H54.4081H54.4083H54.4085H54.4086H54.4088H54.409H54.4092H54.4094H54.4095H54.4097H54.4099H54.4101H54.4103H54.4104H54.4106H54.4108H54.411H54.4112H54.4113H54.4115H54.4117H54.4119H54.412H54.4122H54.4124H54.4126H54.4128H54.4129H54.4131H54.4133H54.4135H54.4137H54.4138H54.414H54.4142H54.4144H54.4146H54.4147H54.4149H54.4151H54.4153H54.4154H54.4156H54.4158H54.416H54.4162H54.4163H54.4165H54.4167H54.4169H54.417H54.4172H54.4174H54.4176H54.4178H54.4179H54.4181H54.4183H54.4185H54.4186H54.4188H54.419H54.4192H54.4193H54.4195H54.4197H54.4199H54.4201H54.4202H54.4204H54.4206H54.4208H54.4209H54.4211H54.4213H54.4215H54.4216H54.4218H54.422H54.4222H54.4223H54.4225H54.4227H54.4229H54.423H54.4232H54.4234H54.4236H54.4237H54.4239H54.4241H54.4243H54.4244H54.4246H54.4248H54.425H54.4251H54.4253H54.4255H54.4257H54.4258H54.426H54.4262H54.4264H54.4265H54.4267H54.4269H54.427H54.4272H54.4274H54.4276H54.4277H54.4279H54.4281H54.4283H54.4284H54.4286H54.4288H54.4289H54.4291H54.4293H54.4295H54.4296H54.4298H54.43H54.4301H54.4303H54.4305H54.4307H54.4308H54.431H54.4312H54.4313H54.4315H54.4317H54.4319H54.432H54.4322H54.4324H54.4325H54.4327H54.4329H54.433H54.4332H54.4334H54.4336H54.4337H54.4339H54.4341H54.4342H54.4344H54.4346H54.4347H54.4349H54.4351H54.4352H54.4354H54.4356H54.4357H54.4359H54.4361H54.4362H54.4364H54.4366H54.4367H54.4369H54.4371H54.4372H54.4374H54.4376H54.4377H54.4379H54.4381H54.4382H54.4384H54.4386H54.4387H54.4389H54.4391H54.4392H54.4394H54.4396H54.4397H54.4399H54.4401H54.4402H54.4404H54.4405H54.4407H54.4409H54.441H54.4412H54.4414H54.4415H54.4417H54.4418H54.442H54.4422H54.4423H54.4425H54.4427H54.4428H54.443H54.4431H54.4433H54.4435H54.4436H54.4438V57.9837L54.4564 57.9821C54.8889 57.927 55.1868 57.5336 55.132 57.1032L55.132 57.1029L54.221 50.0825L54.221 50.0824C53.8522 47.2569 51.4274 45.1264 48.5825 45.1188L48.5809 45.1119H44.4371C41.5856 45.1119 39.1528 47.245 38.7833 50.0756L38.7833 50.0757L37.8723 57.0961L37.8723 57.0963Z" fill="white" stroke="white" stroke-width="0.2"/>
<path d="M42.4821 49.6941V49.7089C42.1028 49.7147 41.7662 49.9965 41.7159 50.3905C41.7159 50.3907 41.7159 50.3908 41.7158 50.3909L40.8187 57.0956L40.8187 57.0956L40.8186 57.0962C40.7638 57.5267 41.0617 57.9201 41.4942 57.9751L41.4941 57.9759H41.5068H41.507H41.5071H41.5073H41.5075H41.5076H41.5078H41.508H41.5081H41.5083H41.5084H41.5086H41.5088H41.5089H41.5091H41.5093H41.5094H41.5096H41.5097H41.5099H41.5101H41.5102H41.5104H41.5106H41.5107H41.5109H41.5111H41.5112H41.5114H41.5115H41.5117H41.5119H41.512H41.5122H41.5124H41.5125H41.5127H41.5129H41.513H41.5132H41.5134H41.5135H41.5137H41.5139H41.514H41.5142H41.5144H41.5145H41.5147H41.5149H41.515H41.5152H41.5154H41.5155H41.5157H41.5159H41.516H41.5162H41.5164H41.5165H41.5167H41.5169H41.5171H41.5172H41.5174H41.5176H41.5177H41.5179H41.5181H41.5182H41.5184H41.5186H41.5188H41.5189H41.5191H41.5193H41.5194H41.5196H41.5198H41.5199H41.5201H41.5203H41.5205H41.5206H41.5208H41.521H41.5211H41.5213H41.5215H41.5217H41.5218H41.522H41.5222H41.5224H41.5225H41.5227H41.5229H41.523H41.5232H41.5234H41.5236H41.5237H41.5239H41.5241H41.5243H41.5244H41.5246H41.5248H41.5249H41.5251H41.5253H41.5255H41.5256H41.5258H41.526H41.5262H41.5263H41.5265H41.5267H41.5269H41.527H41.5272H41.5274H41.5276H41.5277H41.5279H41.5281H41.5283H41.5284H41.5286H41.5288H41.529H41.5291H41.5293H41.5295H41.5297H41.5299H41.53H41.5302H41.5304H41.5306H41.5307H41.5309H41.5311H41.5313H41.5314H41.5316H41.5318H41.532H41.5321H41.5323H41.5325H41.5327H41.5329H41.533H41.5332H41.5334H41.5336H41.5337H41.5339H41.5341H41.5343H41.5345H41.5346H41.5348H41.535H41.5352H41.5353H41.5355H41.5357H41.5359H41.5361H41.5362H41.5364H41.5366H41.5368H41.537H41.5371H41.5373H41.5375H41.5377H41.5378H41.538H41.5382H41.5384H41.5386H41.5387H41.5389H41.5391H41.5393H41.5395H41.5396H41.5398H41.54H41.5402H41.5404H41.5405H41.5407H41.5409H41.5411H41.5413H41.5414H41.5416H41.5418H41.542H41.5421H41.5423H41.5425H41.5427H41.5429H41.543H41.5432H41.5434H41.5436H41.5438H41.5439H41.5441H41.5443H41.5445H41.5447H41.5448H41.545H41.5452H41.5454H41.5456H41.5458H41.5459H41.5461H41.5463H41.5465H41.5467H41.5468H41.547H41.5472H41.5474H41.5476H41.5477H41.5479H41.5481H41.5483H41.5485H41.5486H41.5488H41.549H41.5492H41.5494H41.5495H41.5497H41.5499H41.5501H41.5503H41.5504H41.5506H41.5508H41.551H41.5512H41.5513H41.5515H41.5517H41.5519H41.5521H41.5522H41.5524H41.5526H41.5528H41.553H41.5532H41.5533H41.5535H41.5537H41.5539H41.5541H41.5542H41.5544H41.5546H41.5548H41.555H41.5551H41.5553H41.5555H41.5557H41.5559H41.556H41.5562H41.5564H41.5566H41.5568H41.5569H41.5571H41.5573H41.5575H41.5577H41.5578H41.558H41.5582H41.5584H41.5586H41.5587H41.5589H41.5591H41.5593H41.5595H41.5596H41.5598H41.56H41.5602H41.5604H41.5605H41.5607H41.5609H41.5611H41.5613H41.5614H41.5616H41.5618H41.562H41.5622H41.5623H41.5625H41.5627H41.5629H41.5631H41.5632H41.5634H41.5636H41.5638H41.564H41.5641H41.5643H41.5645H41.5647H41.5648H41.565H41.5652H41.5654H41.5656H41.5657H41.5659H41.5661H41.5663H41.5665H41.5666H41.5668H41.567H41.5672H41.5673H41.5675H41.5677H41.5679H41.5681H41.5682H41.5684H41.5686H41.5688H41.5689H41.5691H41.5693H41.5695H41.5697H41.5698H41.57H41.5702H41.5704H41.5705H41.5707H41.5709H41.5711H41.5713H41.5714H41.5716H41.5718H41.572H41.5721H41.5723H41.5725H41.5727H41.5728H41.573H41.5732H41.5734H41.5735H41.5737H41.5739H41.5741H41.5742H41.5744H41.5746H41.5748H41.5749H41.5751H41.5753H41.5755H41.5756H41.5758H41.576H41.5762H41.5763H41.5765H41.5767H41.5769H41.577H41.5772H41.5774H41.5776H41.5777H41.5779H41.5781H41.5783H41.5784H41.5786H41.5788H41.579H41.5791H41.5793H41.5795H41.5796H41.5798H41.58H41.5802H41.5803H41.5805H41.5807H41.5809H41.581H41.5812H41.5814H41.5815H41.5817H41.5819H41.5821H41.5822H41.5824H41.5826H41.5827H41.5829H41.5831H41.5833H41.5834H41.5836H41.5838H41.5839H41.5841H41.5843H41.5844H41.5846H41.5848H41.585H41.5851H41.5853H41.5855H41.5856H41.5858H41.586H41.5861H41.5863H41.5865H41.5866H41.5868H41.587H41.5872H41.5873H41.5875H41.5877H41.5878H41.588H41.5882H41.5883H41.5885H41.5887H41.5888H41.589H41.5892H41.5893H41.5895H41.5897H41.5898H41.59H41.5902H41.5903H41.5905H41.5907H41.5908H41.591H41.5911H41.5913H41.5915H41.5916H41.5918H41.592H41.5921H41.5923H41.5925H41.5926H41.5928H41.593H41.5931H41.5933H41.5934H41.5936H41.5938H41.5939H41.5941H41.5943H41.5944H41.5946H41.5947H41.5949H41.5951H41.5952H41.5954H41.5955H41.5957H41.5959C41.9817 57.9759 42.3182 57.6854 42.373 57.2939L42.3731 57.2933L43.2703 50.588L43.2703 50.588L43.2704 50.5873C43.3252 50.1569 43.0273 49.7635 42.5948 49.7084L42.4821 49.6941Z" fill="white" stroke="white" stroke-width="0.2"/>
<path d="M50.5307 49.7157V49.7009L50.418 49.7153C49.9851 49.7704 49.6876 50.1711 49.7425 50.5944L49.7425 50.5944L49.7425 50.5948L50.6397 57.3002L50.6398 57.3008C50.6946 57.6923 51.0311 57.9828 51.4169 57.9828H51.4171H51.4173H51.4174H51.4176H51.4177H51.4179H51.4181H51.4182H51.4184H51.4185H51.4187H51.4189H51.419H51.4192H51.4194H51.4195H51.4197H51.4198H51.42H51.4202H51.4203H51.4205H51.4207H51.4208H51.421H51.4212H51.4213H51.4215H51.4217H51.4218H51.422H51.4221H51.4223H51.4225H51.4226H51.4228H51.423H51.4231H51.4233H51.4235H51.4236H51.4238H51.424H51.4241H51.4243H51.4245H51.4246H51.4248H51.425H51.4251H51.4253H51.4255H51.4256H51.4258H51.426H51.4262H51.4263H51.4265H51.4267H51.4268H51.427H51.4272H51.4273H51.4275H51.4277H51.4278H51.428H51.4282H51.4284H51.4285H51.4287H51.4289H51.429H51.4292H51.4294H51.4295H51.4297H51.4299H51.4301H51.4302H51.4304H51.4306H51.4307H51.4309H51.4311H51.4313H51.4314H51.4316H51.4318H51.4319H51.4321H51.4323H51.4325H51.4326H51.4328H51.433H51.4332H51.4333H51.4335H51.4337H51.4338H51.434H51.4342H51.4344H51.4345H51.4347H51.4349H51.4351H51.4352H51.4354H51.4356H51.4358H51.4359H51.4361H51.4363H51.4365H51.4366H51.4368H51.437H51.4372H51.4373H51.4375H51.4377H51.4379H51.438H51.4382H51.4384H51.4386H51.4387H51.4389H51.4391H51.4393H51.4394H51.4396H51.4398H51.44H51.4401H51.4403H51.4405H51.4407H51.4408H51.441H51.4412H51.4414H51.4415H51.4417H51.4419H51.4421H51.4423H51.4424H51.4426H51.4428H51.443H51.4431H51.4433H51.4435H51.4437H51.4439H51.444H51.4442H51.4444H51.4446H51.4447H51.4449H51.4451H51.4453H51.4455H51.4456H51.4458H51.446H51.4462H51.4463H51.4465H51.4467H51.4469H51.4471H51.4472H51.4474H51.4476H51.4478H51.448H51.4481H51.4483H51.4485H51.4487H51.4488H51.449H51.4492H51.4494H51.4496H51.4497H51.4499H51.4501H51.4503H51.4505H51.4506H51.4508H51.451H51.4512H51.4514H51.4515H51.4517H51.4519H51.4521H51.4523H51.4524H51.4526H51.4528H51.453H51.4532H51.4533H51.4535H51.4537H51.4539H51.4541H51.4542H51.4544H51.4546H51.4548H51.455H51.4551H51.4553H51.4555H51.4557H51.4559H51.456H51.4562H51.4564H51.4566H51.4568H51.4569H51.4571H51.4573H51.4575H51.4577H51.4578H51.458H51.4582H51.4584H51.4586H51.4587H51.4589H51.4591H51.4593H51.4595H51.4596H51.4598H51.46H51.4602H51.4604H51.4606H51.4607H51.4609H51.4611H51.4613H51.4615H51.4616H51.4618H51.462H51.4622H51.4624H51.4625H51.4627H51.4629H51.4631H51.4633H51.4634H51.4636H51.4638H51.464H51.4642H51.4643H51.4645H51.4647H51.4649H51.4651H51.4652H51.4654H51.4656H51.4658H51.466H51.4661H51.4663H51.4665H51.4667H51.4669H51.4671H51.4672H51.4674H51.4676H51.4678H51.468H51.4681H51.4683H51.4685H51.4687H51.4689H51.469H51.4692H51.4694H51.4696H51.4698H51.4699H51.4701H51.4703H51.4705H51.4707H51.4708H51.471H51.4712H51.4714H51.4716H51.4717H51.4719H51.4721H51.4723H51.4724H51.4726H51.4728H51.473H51.4732H51.4733H51.4735H51.4737H51.4739H51.4741H51.4742H51.4744H51.4746H51.4748H51.475H51.4751H51.4753H51.4755H51.4757H51.4759H51.476H51.4762H51.4764H51.4766H51.4767H51.4769H51.4771H51.4773H51.4775H51.4776H51.4778H51.478H51.4782H51.4783H51.4785H51.4787H51.4789H51.4791H51.4792H51.4794H51.4796H51.4798H51.4799H51.4801H51.4803H51.4805H51.4807H51.4808H51.481H51.4812H51.4814H51.4815H51.4817H51.4819H51.4821H51.4822H51.4824H51.4826H51.4828H51.483H51.4831H51.4833H51.4835H51.4837H51.4838H51.484H51.4842H51.4844H51.4845H51.4847H51.4849H51.4851H51.4852H51.4854H51.4856H51.4858H51.4859H51.4861H51.4863H51.4865H51.4866H51.4868H51.487H51.4872H51.4873H51.4875H51.4877H51.4879H51.488H51.4882H51.4884H51.4885H51.4887H51.4889H51.4891H51.4892H51.4894H51.4896H51.4898H51.4899H51.4901H51.4903H51.4905H51.4906H51.4908H51.491H51.4911H51.4913H51.4915H51.4917H51.4918H51.492H51.4922H51.4923H51.4925H51.4927H51.4929H51.493H51.4932H51.4934H51.4935H51.4937H51.4939H51.494H51.4942H51.4944H51.4946H51.4947H51.4949H51.4951H51.4952H51.4954H51.4956H51.4957H51.4959H51.4961H51.4963H51.4964H51.4966H51.4968H51.4969H51.4971H51.4973H51.4974H51.4976H51.4978H51.4979H51.4981H51.4983H51.4984H51.4986H51.4988H51.4989H51.4991H51.4993H51.4994H51.4996H51.4998H51.4999H51.5001H51.5003H51.5004H51.5006H51.5008H51.5009H51.5011H51.5013H51.5014H51.5016H51.5018H51.5019H51.5021H51.5022H51.5024H51.5026H51.5027H51.5029H51.5031H51.5032H51.5034H51.5036H51.5037H51.5039H51.504H51.5042H51.5044H51.5045H51.5047H51.5048H51.505H51.5052H51.5053H51.5055H51.5057H51.5058H51.506V57.9836L51.5186 57.982C51.9515 57.9269 52.2491 57.5262 52.1942 57.1028L52.1941 57.1024L51.297 50.3977C51.2969 50.3976 51.2969 50.3975 51.2969 50.3974C51.2466 50.0033 50.91 49.7216 50.5307 49.7157Z" fill="white" stroke="white" stroke-width="0.2"/>
<path d="M64.3901 37.6878L64.3611 37.6936L64.3558 37.6947L57.3506 44.5155C57.3505 44.5156 57.3504 44.5158 57.3502 44.5159C57.1889 44.6775 57.1098 44.9255 57.1457 45.1545C57.1458 45.1548 57.1458 45.155 57.1458 45.1552L58.803 54.8176C58.9319 55.548 58.7095 56.2653 58.1941 56.7951L58.1937 56.7955C57.7574 57.2389 57.1634 57.4897 56.5539 57.4897C56.447 57.4897 56.333 57.4826 56.2256 57.4683L56.2245 57.4681C55.7916 57.4052 55.5021 57.0038 55.5646 56.574C55.6276 56.1409 56.0358 55.8518 56.4583 55.914C56.6803 55.9438 56.9154 55.8655 57.0778 55.697L57.0791 55.6957C57.1745 55.6003 57.3179 55.3984 57.2636 55.0849L57.2636 55.0847L55.6061 45.4137L55.606 45.4131C55.4843 44.6759 55.7275 43.9169 56.265 43.3937C56.265 43.3937 56.265 43.3937 56.265 43.3937L63.2922 36.5513L63.2924 36.5512C63.4904 36.3592 63.5569 36.084 63.4722 35.8177C63.3882 35.5539 63.1737 35.374 62.8952 35.3315C62.8951 35.3315 62.895 35.3315 62.8949 35.3315L53.1903 33.9206L53.1887 33.9204C52.4385 33.7989 51.801 33.3341 51.4712 32.6674L51.4712 32.6673L47.1356 23.8729L47.135 23.8717C47.0151 23.6199 46.7701 23.4698 46.4925 23.4698C46.2163 23.4698 45.9765 23.6188 45.8492 23.8732C45.8491 23.8733 45.8491 23.8734 45.8491 23.8735L41.5143 32.6663C41.5142 32.6664 41.5141 32.6666 41.514 32.6668C41.1909 33.3412 40.5459 33.8061 39.8023 33.9205L39.8015 33.9206L30.0894 35.3316L30.0877 35.3318L30.0877 35.3318C29.8051 35.3679 29.5903 35.5527 29.5059 35.8177C29.4212 36.084 29.4877 36.3592 29.6857 36.5512L29.6859 36.5513L36.7131 43.3937C36.7131 43.3937 36.7131 43.3937 36.7131 43.3937C37.2506 43.9169 37.4938 44.6759 37.3722 45.4131L37.372 45.4137L35.7145 55.0779L35.7145 55.078C35.6607 55.3889 35.8077 55.591 35.9002 55.69C36.0704 55.8596 36.2989 55.9366 36.5192 55.9072C36.9514 55.8374 37.3509 56.1365 37.4135 56.5671C37.476 56.9968 37.1867 57.3981 36.7539 57.4612C36.0301 57.5687 35.2927 57.3179 34.7774 56.7884C34.7773 56.7883 34.7773 56.7883 34.7772 56.7882L34.8489 56.7185C34.3557 56.2185 34.1434 55.5267 34.2667 54.8281L64.3901 37.6878ZM64.3901 37.6878L64.4113 37.6671C65.0415 37.0513 65.2565 36.1553 64.9844 35.3248C64.7125 34.4946 64.0034 33.8925 63.1364 33.7706C63.1363 33.7706 63.1363 33.7706 63.1362 33.7706L53.4387 32.3598C53.4386 32.3598 53.4385 32.3598 53.4384 32.3598C53.1981 32.3236 52.999 32.1736 52.8896 31.968L48.5548 23.1751C48.168 22.3871 47.3795 21.9 46.4993 21.9C45.6186 21.9 44.8377 22.3875 44.4442 23.1744L44.4439 23.1749L40.1084 31.9693L40.1081 31.9698C40.007 32.1781 39.8033 32.3233 39.5669 32.3598C39.5667 32.3598 39.5666 32.3598 39.5665 32.3599L29.862 33.7707L29.8617 33.7707C28.9958 33.8995 28.2864 34.494 28.0143 35.3248C27.7421 36.1555 27.9642 37.0586 28.5945 37.6674C28.5945 37.6675 28.5946 37.6675 28.5946 37.6675L35.6216 44.5096L35.6219 44.5099C35.7894 44.6714 35.8678 44.9183 35.8258 45.1458L35.8256 45.147L34.1682 54.8107C34.1682 54.8108 34.1682 54.8108 34.1682 54.8109L64.3901 37.6878Z" fill="white" stroke="white" stroke-width="0.2"/>
<defs>
<filter id="filter0_d_337_5747" x="0" y="0" width="100" height="100" filterUnits="userSpaceOnUse" color-interpolation-filters="sRGB">
<feFlood flood-opacity="0" result="BackgroundImageFix"/>
<feColorMatrix in="SourceAlpha" type="matrix" values="0 0 0 0 0 0 0 0 0 0 0 0 0 0 0 0 0 0 127 0" result="hardAlpha"/>
<feOffset dx="4" dy="10"/>
<feGaussianBlur stdDeviation="10"/>
<feComposite in2="hardAlpha" operator="out"/>
<feColorMatrix type="matrix" values="0 0 0 0 0.862745 0 0 0 0 0.054902 0 0 0 0 0.054902 0 0 0 0.2 0"/>
<feBlend mode="normal" in2="BackgroundImageFix" result="effect1_dropShadow_337_5747"/>
<feBlend mode="normal" in="SourceGraphic" in2="effect1_dropShadow_337_5747" result="shape"/>
</filter>
</defs>
</svg>
