<svg width="100" height="100" viewBox="0 0 100 100" fill="none" xmlns="http://www.w3.org/2000/svg">
<g filter="url(#filter0_d_337_5371)">
<circle cx="46" cy="40" r="30" fill="#20CDEB"/>
</g>
<path d="M61.9436 53.8759L60.6536 51.0313C61.6246 46.6048 60.2599 44.4007 59.895 43.9097L58.716 40.7709C58.5631 40.3527 58.2064 40.0725 57.7751 39.9752V27.5554C57.7751 26.698 57.0877 26 56.2424 26H39.3359C38.4909 26 37.8032 26.698 37.8032 27.5554V39.9535C37.7645 39.9362 37.7347 39.9265 37.7196 39.9224C36.8147 39.635 36.0794 40.5041 35.7255 41.3353C35.2201 42.524 34.5084 45.0017 35.0484 46.7501C35.4222 47.9598 35.1567 48.5702 35.1265 48.6354L35.0765 48.7013C34.8411 48.6036 34.5674 48.6592 34.3895 48.8493L30.1689 53.3604C29.9989 53.5419 29.9527 53.8072 30.051 54.0363C30.149 54.2651 30.3728 54.4134 30.6205 54.4134H37.8605C38.0681 54.4134 38.262 54.3089 38.3772 54.1343L39.6871 52.1489C39.7234 52.0944 39.7474 52.0333 39.7649 51.9705C39.9937 51.8784 40.2281 51.7673 40.4693 51.6262C40.5074 51.6038 40.5416 51.5786 40.5728 51.5503H52.7657C53.391 52.248 53.9628 52.808 54.2973 53.1226L54.0848 54.2602C54.0214 54.5994 54.2431 54.9258 54.5799 54.9896C54.6187 54.9969 54.657 55 54.6947 55C54.9873 55 55.2477 54.7906 55.3036 54.49L55.5791 53.0122C55.6192 52.7983 55.5452 52.5785 55.3838 52.4326C54.1321 51.2998 50.9151 47.9391 51.0614 46.0134C51.0768 45.8081 51.135 45.6325 51.2371 45.4765L51.6905 46.737C51.7819 46.9906 52.0197 47.1489 52.2736 47.1489C52.3435 47.1489 52.4148 47.1369 52.484 47.1117C52.8064 46.9937 52.973 46.6355 52.8565 46.3115L50.2757 39.1471C50.2788 39.1171 50.3418 39.0105 50.5018 38.9501C50.6646 38.8907 50.7801 38.9304 50.7965 38.9459L51.5065 40.7691C51.5188 40.8585 51.5404 40.9465 51.5719 41.0334L53.258 45.2654C53.2591 45.2678 53.2615 45.2698 53.2625 45.2726C53.2837 45.3237 53.3122 45.3689 53.3437 45.411C53.3512 45.422 53.3595 45.4324 53.3684 45.4424C53.404 45.4838 53.4434 45.5203 53.4876 45.55C53.4924 45.5535 53.4969 45.5555 53.5023 45.5586C53.5438 45.5849 53.5883 45.6056 53.6356 45.6218C53.6466 45.6259 53.6572 45.6294 53.6695 45.6332C53.7213 45.6473 53.7744 45.6559 53.8285 45.6566C53.8309 45.6566 53.8326 45.6573 53.8347 45.6573C53.8535 45.6573 53.8727 45.6539 53.8926 45.6518C53.9104 45.6501 53.9279 45.6501 53.9454 45.6463C53.9728 45.6415 53.9992 45.6321 54.0259 45.6235C54.0372 45.6201 54.0488 45.6183 54.0605 45.6135C54.0615 45.6135 54.0619 45.6132 54.0629 45.6132C54.0636 45.6132 54.0646 45.6128 54.0656 45.6121C54.0838 45.6045 54.1002 45.5931 54.1177 45.5845C54.1372 45.5745 54.1571 45.5659 54.1746 45.5542C54.1893 45.5445 54.202 45.5324 54.2157 45.521C54.2339 45.5069 54.2531 45.4934 54.2692 45.4772C54.2812 45.4662 54.2901 45.4524 54.3003 45.4403C54.3164 45.422 54.3329 45.4044 54.3466 45.3844C54.3548 45.372 54.3606 45.3575 54.3689 45.344C54.3805 45.3226 54.3939 45.3023 54.4035 45.2795C54.4096 45.2654 54.4127 45.2502 54.4179 45.2357C54.4258 45.2129 54.4347 45.1898 54.4401 45.1653C54.4432 45.1498 54.4436 45.1336 54.446 45.1177C54.4494 45.0935 54.4538 45.0697 54.4542 45.0459C54.4545 45.0273 54.4515 45.01 54.4501 44.9917C54.4487 44.969 54.4487 44.9465 54.4443 44.9238C54.4412 44.9031 54.4329 44.8831 54.4271 44.862C54.4213 44.8427 54.4189 44.8234 54.411 44.8044L54.4096 44.7999L54.4086 44.7982L52.7557 40.5552C52.7862 40.5097 52.8493 40.4476 52.9593 40.4061C53.1213 40.3461 53.2375 40.3861 53.2553 40.4068L54.9425 44.6384C54.9668 44.6991 55.0014 44.7512 55.0401 44.7989L55.0566 44.8434C55.1504 45.0935 55.3865 45.2474 55.637 45.2474C55.71 45.2474 55.784 45.2343 55.8563 45.207C56.177 45.0849 56.338 44.7247 56.2174 44.4017L55.0079 41.1915C55.011 41.1608 55.0733 41.0541 55.2337 40.9944C55.3965 40.9341 55.5129 40.9744 55.5263 40.9824L56.741 44.2171C56.7602 44.2685 56.7872 44.3137 56.8174 44.3565L57.0843 45.0673C57.2056 45.3906 57.564 45.5521 57.884 45.4306C58.2044 45.3085 58.3661 44.9486 58.2448 44.626L57.0356 41.4154C57.0387 41.3854 57.1007 41.2788 57.2611 41.2184C57.4235 41.158 57.5397 41.198 57.5537 41.2073L58.7691 44.4407C58.7954 44.5121 58.8348 44.5773 58.8856 44.635C58.9013 44.6529 60.4261 46.5365 59.3985 50.9551C59.367 51.09 59.381 51.2315 59.4382 51.3571L60.8156 54.3934C60.9202 54.6232 61.1446 54.7592 61.3803 54.7592C61.466 54.7592 61.5537 54.7405 61.6376 54.7026C61.9491 54.5601 62.0862 54.1895 61.9436 53.8759ZM36.8654 41.8281C36.9586 41.6131 37.1118 41.3761 37.2389 41.2363C37.254 41.4647 37.2214 41.9016 36.9741 42.6793C36.9302 42.8176 36.9353 42.9674 36.9888 43.102L37.8036 45.1536V49.9952C37.8036 50.1004 37.8142 50.2025 37.8337 50.3019L36.1617 49.3261C36.2453 49.1961 36.8045 48.2265 36.2333 46.3792C35.8735 45.2136 36.2792 43.2065 36.8654 41.8281ZM37.5281 53.164H32.0568L34.9552 50.0666L38.2888 52.0113L37.5281 53.164ZM39.3359 50.3012C39.1748 50.3012 39.0436 50.1643 39.0436 49.9948V45.0459C39.0436 45.0456 39.0436 45.0452 39.0436 45.0445V27.5554C39.0436 27.3864 39.1745 27.249 39.3359 27.249H56.2424C56.4035 27.249 56.5344 27.3864 56.5344 27.5554V40.1953C56.5237 40.2022 56.5131 40.2098 56.5025 40.2171C56.324 39.9938 56.068 39.8375 55.7775 39.7644V29.0574C55.7775 28.7124 55.4996 28.4329 55.1566 28.4329H40.4214C40.0787 28.4329 39.8012 28.7124 39.8012 29.0574V48.4932C39.8012 48.8379 40.0791 49.1177 40.4214 49.1177H50.899C51.1525 49.5232 51.4342 49.921 51.7261 50.3016L39.3359 50.3012ZM49.108 39.5573L49.1669 39.7216L46.4419 41.4785V36.6949L49.2426 38.4467C49.2097 38.4991 49.1799 38.5526 49.1542 38.6085C49.0131 38.9197 48.9966 39.2585 49.108 39.5573ZM52.5286 39.2354C52.4439 39.2675 52.3634 39.3062 52.286 39.3493L51.9553 38.5019C51.7326 37.8929 51.0812 37.5744 50.3905 37.6934L46.1486 35.0408C45.9574 34.9214 45.7162 34.9155 45.5202 35.0256C45.3232 35.1356 45.2012 35.3447 45.2012 35.5718V42.6206C45.2012 42.8483 45.3249 43.0588 45.5236 43.1682C45.6165 43.2196 45.7189 43.2451 45.8214 43.2451C45.9382 43.2451 46.0547 43.212 46.1561 43.1465L49.6 40.9258L50.7729 44.1861C50.2075 44.6191 49.8789 45.2139 49.8248 45.9189C49.7785 46.5292 49.9437 47.1941 50.2346 47.868H41.0419V29.6819H54.5368V39.9503C54.5022 39.9707 54.4689 39.9931 54.436 40.0152L54.4134 39.9576C54.1602 39.2685 53.317 38.9442 52.5286 39.2354Z" fill="white"/>
<defs>
<filter id="filter0_d_337_5371" x="0" y="0" width="100" height="100" filterUnits="userSpaceOnUse" color-interpolation-filters="sRGB">
<feFlood flood-opacity="0" result="BackgroundImageFix"/>
<feColorMatrix in="SourceAlpha" type="matrix" values="0 0 0 0 0 0 0 0 0 0 0 0 0 0 0 0 0 0 127 0" result="hardAlpha"/>
<feOffset dx="4" dy="10"/>
<feGaussianBlur stdDeviation="10"/>
<feComposite in2="hardAlpha" operator="out"/>
<feColorMatrix type="matrix" values="0 0 0 0 0.862745 0 0 0 0 0.054902 0 0 0 0 0.054902 0 0 0 0.2 0"/>
<feBlend mode="normal" in2="BackgroundImageFix" result="effect1_dropShadow_337_5371"/>
<feBlend mode="normal" in="SourceGraphic" in2="effect1_dropShadow_337_5371" result="shape"/>
</filter>
</defs>
</svg>
